/* XPM */
static char * reaction_xpm[] = {
"64 64 6 1",
" 	c #FFFFFFFFFFFF",
".	c #000000000000",
"X	c #00000000FFFF",
"o	c #FFFF0000FFFF",
"O	c #0000FFFFFFFF",
"+	c #0000FFFF0000",
"                                                                ",
"                                                                ",
"           ......                         .                     ",
"            .   ..                                              ",
"            .    .                    .                         ",
"            .   ..   ..    ..    ..  ......   ..  . ..          ",
"            .....   .  .  .  .  .  .  .   .  .  .  .  .         ",
"            .  .    ....   ...  .     .   .  .  .  .  .         ",
"            .   .   .     .  .  .     .   .  .  .  .  .         ",
"            .    .  ..  . .  .  .  .  .   .  .  .  .  .         ",
"           ...   ..  ...   .. .  ..    .....  ..  ... ..        ",
"                                                                ",
"                                                                ",
"                                                                ",
"          XXXXX                                   XXXXX         ",
"         XooooXX                                 XXOOOOX        ",
"        XooooooXXX                             XXXOOOOOOX       ",
"        XooooooooXXX                         XXXOOOOOOOOX       ",
"        XooooooooooXX                       XXOOOOOOOOOOX       ",
"        XooooooooooooXX                   XXOOOOOOOOOOOOX       ",
"        XoooooooooooooXXX               XXXOOOOOOOOOOOOOX       ",
"        XXooooooooooooo XXX           XXX OOOOOOOOOOOOOXX       ",
"         XXXoooooooooooo  XX         XX  OOOOOOOOOOOOXXX        ",
"           XXoooooooooooo  XXX     XXX  OOOOOOOOOOOOXX          ",
"            XXXoooooooooo    XX   XX    OOOOOOOOOOXXX           ",
"              XXXooooooooo   XX  XXX   OOOOOOOOOXXX             ",
"                XXXoooooooo X X  X XX OOOOOOOOXXX               ",
"                  XXooooooo X X  X  X OOOOOOOXX                 ",
"                   XXXoooooX  X  XX  XOOOOOXXX                  ",
"                     XXXoooX  X   X  XOOOXXX                    ",
"                       XXXoX X    XX XOXXX                      ",
"                         XXXXX     XXXXX                        ",
"                          XXo       OXX                         ",
"                            o       O                           ",
"                            oo     OO                           ",
"                           ooo     OOO                          ",
"                           ooo     OOO                          ",
"                            oXXXXXXXO                           ",
"                          XXX       XXX                         ",
"                        XX             XX                       ",
"                        XX             XX                       ",
"                        X XXX       XXX X                       ",
"                        X   XXXXXXXXX   X                       ",
"                        X               X                       ",
"                        X   XX          X                       ",
"                        X    X          X                       ",
"                        X               X                       ",
"                        X   XX    XX    X                       ",
"                        X    X+++X  X   X                       ",
"                        X +++++++X  X++ X                       ",
"                        X+++XX++ +XX++++X                       ",
"                        X++++X++++++++++X                       ",
"                        X+ ++++ ++++++ +X                       ",
"                        X+++XX++++++ +++X                       ",
"                        X++++XOOOOOOO+++X                       ",
"                        X+OOO+++++++OOO+X                       ",
"                        XXX++++++ ++++XXX                       ",
"                          XXX+++++++XXX                         ",
"                            XXXXXXXXX                           ",
"                                                                ",
"                                                                ",
"                                                                ",
"                                                                ",
"                                                                "};
