/* XPM */
static char * supply_xpm[] = {
"64 64 7 1",
" 	c #FFFFFFFFFFFF",
".	c #000000000000",
"X	c #00000000FFFF",
"o	c #0000FFFFFFFF",
"O	c #FFFF00000000",
"+	c #FFFF0000FFFF",
"@	c #0000FFFF0000",
"                                                                ",
"                 ... .                   ..                     ",
"                .   ..                    .                     ",
"                .    .                    .                     ",
"                 ..    .. .. ....  ....   . ..  ..              ",
"                  ...   .  .  .  .  .  .  .  .  .               ",
"                    ..  .  .  .  .  .  .  .  . ..               ",
"                .    .  .  .  .  .  .  .  .  . .                ",
"                ..  ..  .  .  .  .  .  .  .   ..                ",
"                . ...    .. . ...   ...  ...  .                 ",
"                              .     .         .                 ",
"                              .     .        .                  ",
"                             ...   ...      ..                  ",
"                                                                ",
"               XXX        XXX        XXX        XXX             ",
"             XXX XXX    XXX XXX    XXX XXX    XXX XXX           ",
"            XX     XX  XX     XX  XX     XX  XX     XX          ",
"            XXXX XXXX  XXXX XXXX  XXXX XXXX  XXXX XXXX          ",
"            X  XXX  X  X  XXX  X  X  XXX  X  X  XXX  X          ",
"            X       X  X       X  X       X  X       X          ",
"            X  ooo  X  X       X  X       X  X       X          ",
"            XoooooooX  X       X  X       X  X  OOO  X          ",
"            XoooooooX  X       X  X       X  XOOOOOOOX          ",
"            XoooooooX  X  +++  X  X       X  XOOOOOOOX          ",
"            XoooooooX  X+++++++X  X       X  XOOOOOOOX          ",
"         ...XoooooooX..X+++++++X..X  @@@  X..XOOOOOOOX........  ",
"        .   XoooooooX  X+++++++X  X@@@@@@@X  XOOOOOOOX      ..  ",
"       .    XoooooooX  X+++++++X  X@@@@@@@X  XOOOOOOOX     ..   ",
"      .     XXoooooXX  XX+++++XX  XX@@@@@XX  XXOOOOOXX    ..    ",
"    ..       XXXoXXX    XXX+XXX    XXX@XXX    XXXOXXX    ..     ",
"   .           XXX        XXX        XXX        XXX     ...     ",
"  .                                                    .. .     ",
"  ....................................................... .     ",
"   .................................................... . .     ",
"    . .   . XoooooooX  X+++++++X  X@@@@@@@X  XOOOOO. .  . .     ",
"    . .   . XoooooooX  X+++++++X  X@@@@@@@X  XOOOOO. .  . .     ",
"    . .   . XoooooooX  X+++++++X  X@@@@@@@X  XOOOOO. .  . .     ",
"    . .   . XoooooooX  X+++++++X  X@@@@@@@X  XOOOOO. .  . .     ",
"    . .   . XoooooooX  X+++++++X  X@@@@@@@X  XOOOOO. .  . .     ",
"    . .   . XoooooooX  X+++++++X  X@@@@@@@X  XOOOOO. .  . .     ",
"    . .   . XoooooooX  X+++++++X  X@@@@@@@X  XOOOOO. .  . .     ",
"    . .   . XoooooooX  X+++++++X  X@@@@@@@X  XOOOOO. .  . .     ",
"    . .   . XoooooooX  X+++++++X  X@@@@@@@X  XOOOOO. .  . .     ",
"    . .   . XoooooooX  X+++++++X  X@@@@@@@X  XOOOOO. .  . .     ",
"    . .   . XoooooooX  X+++++++X  X@@@@@@@X  XOOOOO. .  . .     ",
"    . .   . XoooooooX  X+++++++X  X@@@@@@@X  XOOOOO. .  . .     ",
"    . .   . XoooooooX  X+++++++X  X@@@@@@@X  XOOOOO. .  . .     ",
"    . .   . XoooooooX  X+++++++X  X@@@@@@@X  XOOOOO. .  . .     ",
"    . .   . XoooooooX  X+++++++X  X@@@@@@@X  XOOOOO. .  . .     ",
"    . .   . XoooooooX  X+++++++X  X@@@@@@@X  XOOOOO. .  . .     ",
"    . .   . XoooooooX  X+++++++X  X@@@@@@@X  XOOOOO. .  . .     ",
"    . .   . XoooooooX  X+++++++X  X@@@@@@@X  XOOOOO. .  . .     ",
"    . .   . XoooooooX  X+++++++X  X@@@@@@@X  XOOOOO. .  . .     ",
"    . ......XoooooooX..X+++++++X..X@@@@@@@X..XOOOOO. .... ....  ",
"    . ..  . XoooooooX  X+++++++X  X@@@@@@@X  XOOOOO. .  . ....  ",
"    . .   ..XXoooooXX  XX+++++XX  XX@@@@@XX  XXOOOO. .   ....   ",
"    . .    . XXXoXXX    XXX+XXX    XXX@XXX    XXXOO. .   ...    ",
"    . .        XXX        XXX        XXX        XXX. .  ...     ",
"    . .                                            . . ...      ",
"   ......................................................       ",
"  ......................................................        ",
"                                                                ",
"                                                                ",
"                                                                "};
