<svg xmlns="http://www.w3.org/2000/svg" xmlns:rdkit="http://www.rdkit.org/xml" xmlns:xlink="http://www.w3.org/1999/xlink" version="1.1" baseProfile="full" xml:space="preserve" width="300px" height="300px" viewBox="0 0 300 300">
<!-- END OF HEADER -->
<rect style="opacity:1.0;fill:#FFFFFF;stroke:none" width="300" height="300" x="0" y="0"> </rect>
<path class="bond-0 atom-0 atom-1" d="M 167.422,286.364 L 151.693,277.186" style="fill:none;fill-rule:evenodd;stroke:#000000;stroke-width:2.0px;stroke-linecap:butt;stroke-linejoin:miter;stroke-opacity:1"/>
<path class="bond-1 atom-1 atom-2" d="M 151.693,277.186 L 151.777,258.974" style="fill:none;fill-rule:evenodd;stroke:#000000;stroke-width:2.0px;stroke-linecap:butt;stroke-linejoin:miter;stroke-opacity:1"/>
<path class="bond-1 atom-1 atom-2" d="M 154.984,274.469 L 155.042,261.721" style="fill:none;fill-rule:evenodd;stroke:#000000;stroke-width:2.0px;stroke-linecap:butt;stroke-linejoin:miter;stroke-opacity:1"/>
<path class="bond-2 atom-2 atom-3" d="M 151.777,258.974 L 136.048,249.793" style="fill:none;fill-rule:evenodd;stroke:#000000;stroke-width:2.0px;stroke-linecap:butt;stroke-linejoin:miter;stroke-opacity:1"/>
<path class="bond-3 atom-3 atom-4" d="M 136.048,249.793 L 136.125,231.576" style="fill:none;fill-rule:evenodd;stroke:#000000;stroke-width:2.0px;stroke-linecap:butt;stroke-linejoin:miter;stroke-opacity:1"/>
<path class="bond-4 atom-4 atom-5" d="M 136.125,231.576 L 151.927,222.537" style="fill:none;fill-rule:evenodd;stroke:#000000;stroke-width:2.0px;stroke-linecap:butt;stroke-linejoin:miter;stroke-opacity:1"/>
<path class="bond-5 atom-4 atom-6" d="M 136.125,231.576 L 120.385,222.414" style="fill:none;fill-rule:evenodd;stroke:#000000;stroke-width:2.0px;stroke-linecap:butt;stroke-linejoin:miter;stroke-opacity:1"/>
<path class="bond-6 atom-6 atom-7" d="M 120.385,222.414 L 114.491,225.796" style="fill:none;fill-rule:evenodd;stroke:#000000;stroke-width:2.0px;stroke-linecap:butt;stroke-linejoin:miter;stroke-opacity:1"/>
<path class="bond-6 atom-6 atom-7" d="M 114.491,225.796 L 108.596,229.179" style="fill:none;fill-rule:evenodd;stroke:#FF0000;stroke-width:2.0px;stroke-linecap:butt;stroke-linejoin:miter;stroke-opacity:1"/>
<path class="bond-7 atom-6 atom-8" d="M 120.385,222.414 L 120.414,204.179" style="fill:none;fill-rule:evenodd;stroke:#000000;stroke-width:2.0px;stroke-linecap:butt;stroke-linejoin:miter;stroke-opacity:1"/>
<path class="bond-8 atom-8 atom-9" d="M 120.414,204.179 L 136.223,195.104" style="fill:none;fill-rule:evenodd;stroke:#000000;stroke-width:2.0px;stroke-linecap:butt;stroke-linejoin:miter;stroke-opacity:1"/>
<path class="bond-84 atom-83 atom-8" d="M 107.944,197.044 L 114.179,200.611" style="fill:none;fill-rule:evenodd;stroke:#0000FF;stroke-width:2.0px;stroke-linecap:butt;stroke-linejoin:miter;stroke-opacity:1"/>
<path class="bond-84 atom-83 atom-8" d="M 114.179,200.611 L 120.414,204.179" style="fill:none;fill-rule:evenodd;stroke:#000000;stroke-width:2.0px;stroke-linecap:butt;stroke-linejoin:miter;stroke-opacity:1"/>
<path class="bond-9 atom-9 atom-10" d="M 135.399,196.52 L 141.268,199.933" style="fill:none;fill-rule:evenodd;stroke:#000000;stroke-width:2.0px;stroke-linecap:butt;stroke-linejoin:miter;stroke-opacity:1"/>
<path class="bond-9 atom-9 atom-10" d="M 141.268,199.933 L 147.137,203.346" style="fill:none;fill-rule:evenodd;stroke:#FF0000;stroke-width:2.0px;stroke-linecap:butt;stroke-linejoin:miter;stroke-opacity:1"/>
<path class="bond-9 atom-9 atom-10" d="M 137.047,193.687 L 142.916,197.1" style="fill:none;fill-rule:evenodd;stroke:#000000;stroke-width:2.0px;stroke-linecap:butt;stroke-linejoin:miter;stroke-opacity:1"/>
<path class="bond-9 atom-9 atom-10" d="M 142.916,197.1 L 148.784,200.513" style="fill:none;fill-rule:evenodd;stroke:#FF0000;stroke-width:2.0px;stroke-linecap:butt;stroke-linejoin:miter;stroke-opacity:1"/>
<path class="bond-10 atom-9 atom-11" d="M 136.223,195.104 L 136.242,188.175" style="fill:none;fill-rule:evenodd;stroke:#000000;stroke-width:2.0px;stroke-linecap:butt;stroke-linejoin:miter;stroke-opacity:1"/>
<path class="bond-10 atom-9 atom-11" d="M 136.242,188.175 L 136.262,181.246" style="fill:none;fill-rule:evenodd;stroke:#0000FF;stroke-width:2.0px;stroke-linecap:butt;stroke-linejoin:miter;stroke-opacity:1"/>
<path class="bond-11 atom-11 atom-12" d="M 139.664,174.958 L 145.861,171.363" style="fill:none;fill-rule:evenodd;stroke:#0000FF;stroke-width:2.0px;stroke-linecap:butt;stroke-linejoin:miter;stroke-opacity:1"/>
<path class="bond-11 atom-11 atom-12" d="M 145.861,171.363 L 152.058,167.768" style="fill:none;fill-rule:evenodd;stroke:#000000;stroke-width:2.0px;stroke-linecap:butt;stroke-linejoin:miter;stroke-opacity:1"/>
<path class="bond-12 atom-12 atom-13" d="M 152.058,167.768 L 151.988,149.596" style="fill:none;fill-rule:evenodd;stroke:#000000;stroke-width:2.0px;stroke-linecap:butt;stroke-linejoin:miter;stroke-opacity:1"/>
<path class="bond-14 atom-12 atom-15" d="M 152.058,167.768 L 167.925,176.727" style="fill:none;fill-rule:evenodd;stroke:#000000;stroke-width:2.0px;stroke-linecap:butt;stroke-linejoin:miter;stroke-opacity:1"/>
<path class="bond-13 atom-13 atom-14" d="M 151.988,149.596 L 167.743,140.466" style="fill:none;fill-rule:evenodd;stroke:#000000;stroke-width:2.0px;stroke-linecap:butt;stroke-linejoin:miter;stroke-opacity:1"/>
<path class="bond-15 atom-15 atom-16" d="M 166.286,176.747 L 166.372,183.679" style="fill:none;fill-rule:evenodd;stroke:#000000;stroke-width:2.0px;stroke-linecap:butt;stroke-linejoin:miter;stroke-opacity:1"/>
<path class="bond-15 atom-15 atom-16" d="M 166.372,183.679 L 166.458,190.611" style="fill:none;fill-rule:evenodd;stroke:#FF0000;stroke-width:2.0px;stroke-linecap:butt;stroke-linejoin:miter;stroke-opacity:1"/>
<path class="bond-15 atom-15 atom-16" d="M 169.564,176.707 L 169.649,183.639" style="fill:none;fill-rule:evenodd;stroke:#000000;stroke-width:2.0px;stroke-linecap:butt;stroke-linejoin:miter;stroke-opacity:1"/>
<path class="bond-15 atom-15 atom-16" d="M 169.649,183.639 L 169.735,190.571" style="fill:none;fill-rule:evenodd;stroke:#FF0000;stroke-width:2.0px;stroke-linecap:butt;stroke-linejoin:miter;stroke-opacity:1"/>
<path class="bond-16 atom-15 atom-17" d="M 167.925,176.727 L 174.077,173.034" style="fill:none;fill-rule:evenodd;stroke:#000000;stroke-width:2.0px;stroke-linecap:butt;stroke-linejoin:miter;stroke-opacity:1"/>
<path class="bond-16 atom-15 atom-17" d="M 174.077,173.034 L 180.23,169.341" style="fill:none;fill-rule:evenodd;stroke:#0000FF;stroke-width:2.0px;stroke-linecap:butt;stroke-linejoin:miter;stroke-opacity:1"/>
<path class="bond-17 atom-17 atom-18" d="M 187.01,169.182 L 193.289,172.658" style="fill:none;fill-rule:evenodd;stroke:#0000FF;stroke-width:2.0px;stroke-linecap:butt;stroke-linejoin:miter;stroke-opacity:1"/>
<path class="bond-17 atom-17 atom-18" d="M 193.289,172.658 L 199.569,176.134" style="fill:none;fill-rule:evenodd;stroke:#000000;stroke-width:2.0px;stroke-linecap:butt;stroke-linejoin:miter;stroke-opacity:1"/>
<path class="bond-18 atom-17 atom-19" d="M 183.517,162.979 L 183.347,155.95" style="fill:none;fill-rule:evenodd;stroke:#0000FF;stroke-width:2.0px;stroke-linecap:butt;stroke-linejoin:miter;stroke-opacity:1"/>
<path class="bond-18 atom-17 atom-19" d="M 183.347,155.95 L 183.177,148.922" style="fill:none;fill-rule:evenodd;stroke:#000000;stroke-width:2.0px;stroke-linecap:butt;stroke-linejoin:miter;stroke-opacity:1"/>
<path class="bond-19 atom-19 atom-20" d="M 183.177,148.922 L 198.662,139.02" style="fill:none;fill-rule:evenodd;stroke:#000000;stroke-width:2.0px;stroke-linecap:butt;stroke-linejoin:miter;stroke-opacity:1"/>
<path class="bond-20 atom-20 atom-21" d="M 200.299,138.945 L 199.988,132.127" style="fill:none;fill-rule:evenodd;stroke:#000000;stroke-width:2.0px;stroke-linecap:butt;stroke-linejoin:miter;stroke-opacity:1"/>
<path class="bond-20 atom-20 atom-21" d="M 199.988,132.127 L 199.677,125.309" style="fill:none;fill-rule:evenodd;stroke:#FF0000;stroke-width:2.0px;stroke-linecap:butt;stroke-linejoin:miter;stroke-opacity:1"/>
<path class="bond-20 atom-20 atom-21" d="M 197.025,139.095 L 196.714,132.276" style="fill:none;fill-rule:evenodd;stroke:#000000;stroke-width:2.0px;stroke-linecap:butt;stroke-linejoin:miter;stroke-opacity:1"/>
<path class="bond-20 atom-20 atom-21" d="M 196.714,132.276 L 196.403,125.458" style="fill:none;fill-rule:evenodd;stroke:#FF0000;stroke-width:2.0px;stroke-linecap:butt;stroke-linejoin:miter;stroke-opacity:1"/>
<path class="bond-21 atom-20 atom-22" d="M 198.662,139.02 L 205,142.265" style="fill:none;fill-rule:evenodd;stroke:#000000;stroke-width:2.0px;stroke-linecap:butt;stroke-linejoin:miter;stroke-opacity:1"/>
<path class="bond-21 atom-20 atom-22" d="M 205,142.265 L 211.338,145.51" style="fill:none;fill-rule:evenodd;stroke:#0000FF;stroke-width:2.0px;stroke-linecap:butt;stroke-linejoin:miter;stroke-opacity:1"/>
<path class="bond-22 atom-22 atom-23" d="M 214.907,151.568 L 215.206,158.545" style="fill:none;fill-rule:evenodd;stroke:#0000FF;stroke-width:2.0px;stroke-linecap:butt;stroke-linejoin:miter;stroke-opacity:1"/>
<path class="bond-22 atom-22 atom-23" d="M 215.206,158.545 L 215.505,165.521" style="fill:none;fill-rule:evenodd;stroke:#000000;stroke-width:2.0px;stroke-linecap:butt;stroke-linejoin:miter;stroke-opacity:1"/>
<path class="bond-23 atom-22 atom-24" d="M 218.118,145.112 L 224.248,141.265" style="fill:none;fill-rule:evenodd;stroke:#0000FF;stroke-width:2.0px;stroke-linecap:butt;stroke-linejoin:miter;stroke-opacity:1"/>
<path class="bond-23 atom-22 atom-24" d="M 224.248,141.265 L 230.378,137.418" style="fill:none;fill-rule:evenodd;stroke:#000000;stroke-width:2.0px;stroke-linecap:butt;stroke-linejoin:miter;stroke-opacity:1"/>
<path class="bond-24 atom-24 atom-25" d="M 230.378,137.418 L 246.282,146.784" style="fill:none;fill-rule:evenodd;stroke:#000000;stroke-width:2.0px;stroke-linecap:butt;stroke-linejoin:miter;stroke-opacity:1"/>
<path class="bond-28 atom-24 atom-29" d="M 230.378,137.418 L 229.978,118.142" style="fill:none;fill-rule:evenodd;stroke:#000000;stroke-width:2.0px;stroke-linecap:butt;stroke-linejoin:miter;stroke-opacity:1"/>
<path class="bond-25 atom-25 atom-26" d="M 246.282,146.784 L 262.353,138.514" style="fill:none;fill-rule:evenodd;stroke:#000000;stroke-width:2.0px;stroke-linecap:butt;stroke-linejoin:miter;stroke-opacity:1"/>
<path class="bond-26 atom-26 atom-27" d="M 262.353,138.514 L 277.656,148.503" style="fill:none;fill-rule:evenodd;stroke:#000000;stroke-width:2.0px;stroke-linecap:butt;stroke-linejoin:miter;stroke-opacity:1"/>
<path class="bond-27 atom-26 atom-28" d="M 262.353,138.514 L 263.293,120.443" style="fill:none;fill-rule:evenodd;stroke:#000000;stroke-width:2.0px;stroke-linecap:butt;stroke-linejoin:miter;stroke-opacity:1"/>
<path class="bond-29 atom-29 atom-30" d="M 230.826,119.543 L 236.604,116.045" style="fill:none;fill-rule:evenodd;stroke:#000000;stroke-width:2.0px;stroke-linecap:butt;stroke-linejoin:miter;stroke-opacity:1"/>
<path class="bond-29 atom-29 atom-30" d="M 236.604,116.045 L 242.382,112.547" style="fill:none;fill-rule:evenodd;stroke:#FF0000;stroke-width:2.0px;stroke-linecap:butt;stroke-linejoin:miter;stroke-opacity:1"/>
<path class="bond-29 atom-29 atom-30" d="M 229.129,116.74 L 234.907,113.241" style="fill:none;fill-rule:evenodd;stroke:#000000;stroke-width:2.0px;stroke-linecap:butt;stroke-linejoin:miter;stroke-opacity:1"/>
<path class="bond-29 atom-29 atom-30" d="M 234.907,113.241 L 240.685,109.743" style="fill:none;fill-rule:evenodd;stroke:#FF0000;stroke-width:2.0px;stroke-linecap:butt;stroke-linejoin:miter;stroke-opacity:1"/>
<path class="bond-30 atom-29 atom-31" d="M 229.978,118.142 L 223.336,114.594" style="fill:none;fill-rule:evenodd;stroke:#000000;stroke-width:2.0px;stroke-linecap:butt;stroke-linejoin:miter;stroke-opacity:1"/>
<path class="bond-30 atom-29 atom-31" d="M 223.336,114.594 L 216.694,111.046" style="fill:none;fill-rule:evenodd;stroke:#0000FF;stroke-width:2.0px;stroke-linecap:butt;stroke-linejoin:miter;stroke-opacity:1"/>
<path class="bond-31 atom-31 atom-32" d="M 212.585,104.87 L 211.381,97.3993" style="fill:none;fill-rule:evenodd;stroke:#0000FF;stroke-width:2.0px;stroke-linecap:butt;stroke-linejoin:miter;stroke-opacity:1"/>
<path class="bond-31 atom-31 atom-32" d="M 211.381,97.3993 L 210.177,89.9285" style="fill:none;fill-rule:evenodd;stroke:#000000;stroke-width:2.0px;stroke-linecap:butt;stroke-linejoin:miter;stroke-opacity:1"/>
<path class="bond-32 atom-32 atom-33" d="M 210.177,89.9285 L 224.278,78.1363" style="fill:none;fill-rule:evenodd;stroke:#000000;stroke-width:2.0px;stroke-linecap:butt;stroke-linejoin:miter;stroke-opacity:1"/>
<path class="bond-35 atom-32 atom-36" d="M 210.177,89.9285 L 191.378,85.2233" style="fill:none;fill-rule:evenodd;stroke:#000000;stroke-width:2.0px;stroke-linecap:butt;stroke-linejoin:miter;stroke-opacity:1"/>
<path class="bond-33 atom-33 atom-34" d="M 224.278,78.1363 L 241.446,84.7243" style="fill:none;fill-rule:evenodd;stroke:#000000;stroke-width:2.0px;stroke-linecap:butt;stroke-linejoin:miter;stroke-opacity:1"/>
<path class="bond-34 atom-33 atom-35" d="M 224.278,78.1363 L 221.503,60.2587" style="fill:none;fill-rule:evenodd;stroke:#000000;stroke-width:2.0px;stroke-linecap:butt;stroke-linejoin:miter;stroke-opacity:1"/>
<path class="bond-36 atom-36 atom-37" d="M 190.071,84.2348 L 186.255,89.2816" style="fill:none;fill-rule:evenodd;stroke:#000000;stroke-width:2.0px;stroke-linecap:butt;stroke-linejoin:miter;stroke-opacity:1"/>
<path class="bond-36 atom-36 atom-37" d="M 186.255,89.2816 L 182.439,94.3283" style="fill:none;fill-rule:evenodd;stroke:#FF0000;stroke-width:2.0px;stroke-linecap:butt;stroke-linejoin:miter;stroke-opacity:1"/>
<path class="bond-36 atom-36 atom-37" d="M 192.685,86.2117 L 188.869,91.2585" style="fill:none;fill-rule:evenodd;stroke:#000000;stroke-width:2.0px;stroke-linecap:butt;stroke-linejoin:miter;stroke-opacity:1"/>
<path class="bond-36 atom-36 atom-37" d="M 188.869,91.2585 L 185.053,96.3052" style="fill:none;fill-rule:evenodd;stroke:#FF0000;stroke-width:2.0px;stroke-linecap:butt;stroke-linejoin:miter;stroke-opacity:1"/>
<path class="bond-37 atom-36 atom-38" d="M 191.378,85.2233 L 187.648,78.711" style="fill:none;fill-rule:evenodd;stroke:#000000;stroke-width:2.0px;stroke-linecap:butt;stroke-linejoin:miter;stroke-opacity:1"/>
<path class="bond-37 atom-36 atom-38" d="M 187.648,78.711 L 183.917,72.1987" style="fill:none;fill-rule:evenodd;stroke:#0000FF;stroke-width:2.0px;stroke-linecap:butt;stroke-linejoin:miter;stroke-opacity:1"/>
<path class="bond-38 atom-38 atom-39" d="M 178.027,68.2249 L 170.709,69.0781" style="fill:none;fill-rule:evenodd;stroke:#0000FF;stroke-width:2.0px;stroke-linecap:butt;stroke-linejoin:miter;stroke-opacity:1"/>
<path class="bond-38 atom-38 atom-39" d="M 170.709,69.0781 L 163.391,69.9313" style="fill:none;fill-rule:evenodd;stroke:#000000;stroke-width:2.0px;stroke-linecap:butt;stroke-linejoin:miter;stroke-opacity:1"/>
<path class="bond-39 atom-38 atom-40" d="M 182.681,63.4795 L 184.748,56.3809" style="fill:none;fill-rule:evenodd;stroke:#0000FF;stroke-width:2.0px;stroke-linecap:butt;stroke-linejoin:miter;stroke-opacity:1"/>
<path class="bond-39 atom-38 atom-40" d="M 184.748,56.3809 L 186.815,49.2823" style="fill:none;fill-rule:evenodd;stroke:#000000;stroke-width:2.0px;stroke-linecap:butt;stroke-linejoin:miter;stroke-opacity:1"/>
<path class="bond-40 atom-40 atom-41" d="M 186.815,49.2823 L 203.644,42.5923" style="fill:none;fill-rule:evenodd;stroke:#000000;stroke-width:2.0px;stroke-linecap:butt;stroke-linejoin:miter;stroke-opacity:1"/>
<path class="bond-44 atom-40 atom-45" d="M 186.815,49.2823 L 172.503,36.9657" style="fill:none;fill-rule:evenodd;stroke:#000000;stroke-width:2.0px;stroke-linecap:butt;stroke-linejoin:miter;stroke-opacity:1"/>
<path class="bond-41 atom-41 atom-42" d="M 203.644,42.5923 L 204.875,23.7314" style="fill:none;fill-rule:evenodd;stroke:#000000;stroke-width:2.0px;stroke-linecap:butt;stroke-linejoin:miter;stroke-opacity:1"/>
<path class="bond-42 atom-42 atom-43" d="M 204.875,23.7314 L 221.026,15.3079" style="fill:none;fill-rule:evenodd;stroke:#000000;stroke-width:2.0px;stroke-linecap:butt;stroke-linejoin:miter;stroke-opacity:1"/>
<path class="bond-43 atom-42 atom-44" d="M 204.875,23.7314 L 189.441,13.6364" style="fill:none;fill-rule:evenodd;stroke:#000000;stroke-width:2.0px;stroke-linecap:butt;stroke-linejoin:miter;stroke-opacity:1"/>
<path class="bond-45 atom-45 atom-46" d="M 174.119,37.238 L 175.261,30.4582" style="fill:none;fill-rule:evenodd;stroke:#000000;stroke-width:2.0px;stroke-linecap:butt;stroke-linejoin:miter;stroke-opacity:1"/>
<path class="bond-45 atom-45 atom-46" d="M 175.261,30.4582 L 176.403,23.6783" style="fill:none;fill-rule:evenodd;stroke:#FF0000;stroke-width:2.0px;stroke-linecap:butt;stroke-linejoin:miter;stroke-opacity:1"/>
<path class="bond-45 atom-45 atom-46" d="M 170.887,36.6935 L 172.029,29.9136" style="fill:none;fill-rule:evenodd;stroke:#000000;stroke-width:2.0px;stroke-linecap:butt;stroke-linejoin:miter;stroke-opacity:1"/>
<path class="bond-45 atom-45 atom-46" d="M 172.029,29.9136 L 173.171,23.1338" style="fill:none;fill-rule:evenodd;stroke:#FF0000;stroke-width:2.0px;stroke-linecap:butt;stroke-linejoin:miter;stroke-opacity:1"/>
<path class="bond-46 atom-45 atom-47" d="M 172.503,36.9657 L 165.552,39.6262" style="fill:none;fill-rule:evenodd;stroke:#000000;stroke-width:2.0px;stroke-linecap:butt;stroke-linejoin:miter;stroke-opacity:1"/>
<path class="bond-46 atom-45 atom-47" d="M 165.552,39.6262 L 158.601,42.2866" style="fill:none;fill-rule:evenodd;stroke:#0000FF;stroke-width:2.0px;stroke-linecap:butt;stroke-linejoin:miter;stroke-opacity:1"/>
<path class="bond-47 atom-47 atom-48" d="M 151.806,41.187 L 145.919,37.0297" style="fill:none;fill-rule:evenodd;stroke:#0000FF;stroke-width:2.0px;stroke-linecap:butt;stroke-linejoin:miter;stroke-opacity:1"/>
<path class="bond-47 atom-47 atom-48" d="M 145.919,37.0297 L 140.032,32.8724" style="fill:none;fill-rule:evenodd;stroke:#000000;stroke-width:2.0px;stroke-linecap:butt;stroke-linejoin:miter;stroke-opacity:1"/>
<path class="bond-48 atom-48 atom-49" d="M 140.032,32.8724 L 141.289,14.6743" style="fill:none;fill-rule:evenodd;stroke:#000000;stroke-width:2.0px;stroke-linecap:butt;stroke-linejoin:miter;stroke-opacity:1"/>
<path class="bond-49 atom-48 atom-50" d="M 140.032,32.8724 L 123.633,41.132" style="fill:none;fill-rule:evenodd;stroke:#000000;stroke-width:2.0px;stroke-linecap:butt;stroke-linejoin:miter;stroke-opacity:1"/>
<path class="bond-50 atom-50 atom-51" d="M 124.504,39.7435 L 118.771,36.1489" style="fill:none;fill-rule:evenodd;stroke:#000000;stroke-width:2.0px;stroke-linecap:butt;stroke-linejoin:miter;stroke-opacity:1"/>
<path class="bond-50 atom-50 atom-51" d="M 118.771,36.1489 L 113.037,32.5542" style="fill:none;fill-rule:evenodd;stroke:#FF0000;stroke-width:2.0px;stroke-linecap:butt;stroke-linejoin:miter;stroke-opacity:1"/>
<path class="bond-50 atom-50 atom-51" d="M 122.763,42.5204 L 117.029,38.9258" style="fill:none;fill-rule:evenodd;stroke:#000000;stroke-width:2.0px;stroke-linecap:butt;stroke-linejoin:miter;stroke-opacity:1"/>
<path class="bond-50 atom-50 atom-51" d="M 117.029,38.9258 L 111.296,35.3312" style="fill:none;fill-rule:evenodd;stroke:#FF0000;stroke-width:2.0px;stroke-linecap:butt;stroke-linejoin:miter;stroke-opacity:1"/>
<path class="bond-51 atom-50 atom-52" d="M 123.633,41.132 L 123.492,48.0519" style="fill:none;fill-rule:evenodd;stroke:#000000;stroke-width:2.0px;stroke-linecap:butt;stroke-linejoin:miter;stroke-opacity:1"/>
<path class="bond-51 atom-50 atom-52" d="M 123.492,48.0519 L 123.35,54.9719" style="fill:none;fill-rule:evenodd;stroke:#0000FF;stroke-width:2.0px;stroke-linecap:butt;stroke-linejoin:miter;stroke-opacity:1"/>
<path class="bond-52 atom-52 atom-53" d="M 119.873,61.4224 L 113.847,65.2071" style="fill:none;fill-rule:evenodd;stroke:#0000FF;stroke-width:2.0px;stroke-linecap:butt;stroke-linejoin:miter;stroke-opacity:1"/>
<path class="bond-52 atom-52 atom-53" d="M 113.847,65.2071 L 107.821,68.9918" style="fill:none;fill-rule:evenodd;stroke:#000000;stroke-width:2.0px;stroke-linecap:butt;stroke-linejoin:miter;stroke-opacity:1"/>
<path class="bond-53 atom-53 atom-54" d="M 107.821,68.9918 L 109.507,87.1316" style="fill:none;fill-rule:evenodd;stroke:#000000;stroke-width:2.0px;stroke-linecap:butt;stroke-linejoin:miter;stroke-opacity:1"/>
<path class="bond-54 atom-53 atom-55" d="M 107.821,68.9918 L 90.0523,59.7416" style="fill:none;fill-rule:evenodd;stroke:#000000;stroke-width:2.0px;stroke-linecap:butt;stroke-linejoin:miter;stroke-opacity:1"/>
<path class="bond-55 atom-55 atom-56" d="M 91.6911,59.7501 L 91.7268,52.8943" style="fill:none;fill-rule:evenodd;stroke:#000000;stroke-width:2.0px;stroke-linecap:butt;stroke-linejoin:miter;stroke-opacity:1"/>
<path class="bond-55 atom-55 atom-56" d="M 91.7268,52.8943 L 91.7624,46.0385" style="fill:none;fill-rule:evenodd;stroke:#FF0000;stroke-width:2.0px;stroke-linecap:butt;stroke-linejoin:miter;stroke-opacity:1"/>
<path class="bond-55 atom-55 atom-56" d="M 88.4135,59.7331 L 88.4492,52.8772" style="fill:none;fill-rule:evenodd;stroke:#000000;stroke-width:2.0px;stroke-linecap:butt;stroke-linejoin:miter;stroke-opacity:1"/>
<path class="bond-55 atom-55 atom-56" d="M 88.4492,52.8772 L 88.4849,46.0214" style="fill:none;fill-rule:evenodd;stroke:#FF0000;stroke-width:2.0px;stroke-linecap:butt;stroke-linejoin:miter;stroke-opacity:1"/>
<path class="bond-56 atom-55 atom-57" d="M 90.0523,59.7416 L 82.7648,63.4015" style="fill:none;fill-rule:evenodd;stroke:#000000;stroke-width:2.0px;stroke-linecap:butt;stroke-linejoin:miter;stroke-opacity:1"/>
<path class="bond-56 atom-55 atom-57" d="M 82.7648,63.4015 L 75.4773,67.0615" style="fill:none;fill-rule:evenodd;stroke:#0000FF;stroke-width:2.0px;stroke-linecap:butt;stroke-linejoin:miter;stroke-opacity:1"/>
<path class="bond-57 atom-57 atom-58" d="M 68.6515,66.4389 L 62.8673,62.4293" style="fill:none;fill-rule:evenodd;stroke:#0000FF;stroke-width:2.0px;stroke-linecap:butt;stroke-linejoin:miter;stroke-opacity:1"/>
<path class="bond-57 atom-57 atom-58" d="M 62.8673,62.4293 L 57.0831,58.4196" style="fill:none;fill-rule:evenodd;stroke:#000000;stroke-width:2.0px;stroke-linecap:butt;stroke-linejoin:miter;stroke-opacity:1"/>
<path class="bond-58 atom-57 atom-59" d="M 71.5576,73.1185 L 70.7736,80.1578" style="fill:none;fill-rule:evenodd;stroke:#0000FF;stroke-width:2.0px;stroke-linecap:butt;stroke-linejoin:miter;stroke-opacity:1"/>
<path class="bond-58 atom-57 atom-59" d="M 70.7736,80.1578 L 69.9896,87.1971" style="fill:none;fill-rule:evenodd;stroke:#000000;stroke-width:2.0px;stroke-linecap:butt;stroke-linejoin:miter;stroke-opacity:1"/>
<path class="bond-59 atom-59 atom-60" d="M 69.9896,87.1971 L 53.6962,95.2273" style="fill:none;fill-rule:evenodd;stroke:#000000;stroke-width:2.0px;stroke-linecap:butt;stroke-linejoin:miter;stroke-opacity:1"/>
<path class="bond-63 atom-59 atom-64" d="M 69.9896,87.1971 L 83.7848,95.9083" style="fill:none;fill-rule:evenodd;stroke:#000000;stroke-width:2.0px;stroke-linecap:butt;stroke-linejoin:miter;stroke-opacity:1"/>
<path class="bond-60 atom-60 atom-61" d="M 53.6962,95.2273 L 38.6228,85.2269" style="fill:none;fill-rule:evenodd;stroke:#000000;stroke-width:2.0px;stroke-linecap:butt;stroke-linejoin:miter;stroke-opacity:1"/>
<path class="bond-61 atom-61 atom-62" d="M 38.6228,85.2269 L 22.3439,93.3554" style="fill:none;fill-rule:evenodd;stroke:#000000;stroke-width:2.0px;stroke-linecap:butt;stroke-linejoin:miter;stroke-opacity:1"/>
<path class="bond-62 atom-61 atom-63" d="M 38.6228,85.2269 L 39.7663,67.0835" style="fill:none;fill-rule:evenodd;stroke:#000000;stroke-width:2.0px;stroke-linecap:butt;stroke-linejoin:miter;stroke-opacity:1"/>
<path class="bond-64 atom-64 atom-65" d="M 84.7074,97.2628 L 89.2236,94.1864" style="fill:none;fill-rule:evenodd;stroke:#000000;stroke-width:2.0px;stroke-linecap:butt;stroke-linejoin:miter;stroke-opacity:1"/>
<path class="bond-64 atom-64 atom-65" d="M 89.2236,94.1864 L 93.7398,91.1101" style="fill:none;fill-rule:evenodd;stroke:#FF0000;stroke-width:2.0px;stroke-linecap:butt;stroke-linejoin:miter;stroke-opacity:1"/>
<path class="bond-64 atom-64 atom-65" d="M 82.8622,94.5539 L 87.3784,91.4776" style="fill:none;fill-rule:evenodd;stroke:#000000;stroke-width:2.0px;stroke-linecap:butt;stroke-linejoin:miter;stroke-opacity:1"/>
<path class="bond-64 atom-64 atom-65" d="M 87.3784,91.4776 L 91.8946,88.4012" style="fill:none;fill-rule:evenodd;stroke:#FF0000;stroke-width:2.0px;stroke-linecap:butt;stroke-linejoin:miter;stroke-opacity:1"/>
<path class="bond-65 atom-64 atom-66" d="M 83.7848,95.9083 L 84.1387,102.718" style="fill:none;fill-rule:evenodd;stroke:#000000;stroke-width:2.0px;stroke-linecap:butt;stroke-linejoin:miter;stroke-opacity:1"/>
<path class="bond-65 atom-64 atom-66" d="M 84.1387,102.718 L 84.4927,109.528" style="fill:none;fill-rule:evenodd;stroke:#0000FF;stroke-width:2.0px;stroke-linecap:butt;stroke-linejoin:miter;stroke-opacity:1"/>
<path class="bond-66 atom-66 atom-67" d="M 88.1066,115.564 L 94.5458,118.83" style="fill:none;fill-rule:evenodd;stroke:#0000FF;stroke-width:2.0px;stroke-linecap:butt;stroke-linejoin:miter;stroke-opacity:1"/>
<path class="bond-66 atom-66 atom-67" d="M 94.5458,118.83 L 100.985,122.097" style="fill:none;fill-rule:evenodd;stroke:#000000;stroke-width:2.0px;stroke-linecap:butt;stroke-linejoin:miter;stroke-opacity:1"/>
<path class="bond-67 atom-66 atom-68" d="M 81.3441,116.037 L 75.6614,119.731" style="fill:none;fill-rule:evenodd;stroke:#0000FF;stroke-width:2.0px;stroke-linecap:butt;stroke-linejoin:miter;stroke-opacity:1"/>
<path class="bond-67 atom-66 atom-68" d="M 75.6614,119.731 L 69.9787,123.426" style="fill:none;fill-rule:evenodd;stroke:#000000;stroke-width:2.0px;stroke-linecap:butt;stroke-linejoin:miter;stroke-opacity:1"/>
<path class="bond-68 atom-68 atom-69" d="M 69.9787,123.426 L 53.973,114.977" style="fill:none;fill-rule:evenodd;stroke:#000000;stroke-width:2.0px;stroke-linecap:butt;stroke-linejoin:miter;stroke-opacity:1"/>
<path class="bond-72 atom-68 atom-73" d="M 69.9787,123.426 L 71.0202,141.555" style="fill:none;fill-rule:evenodd;stroke:#000000;stroke-width:2.0px;stroke-linecap:butt;stroke-linejoin:miter;stroke-opacity:1"/>
<path class="bond-69 atom-69 atom-70" d="M 53.973,114.977 L 38.6519,124.416" style="fill:none;fill-rule:evenodd;stroke:#000000;stroke-width:2.0px;stroke-linecap:butt;stroke-linejoin:miter;stroke-opacity:1"/>
<path class="bond-70 atom-70 atom-71" d="M 38.6519,124.416 L 39.1654,142.574" style="fill:none;fill-rule:evenodd;stroke:#000000;stroke-width:2.0px;stroke-linecap:butt;stroke-linejoin:miter;stroke-opacity:1"/>
<path class="bond-71 atom-70 atom-72" d="M 38.6519,124.416 L 22.6935,115.712" style="fill:none;fill-rule:evenodd;stroke:#000000;stroke-width:2.0px;stroke-linecap:butt;stroke-linejoin:miter;stroke-opacity:1"/>
<path class="bond-73 atom-73 atom-74" d="M 70.1234,140.183 L 64.5254,143.843" style="fill:none;fill-rule:evenodd;stroke:#000000;stroke-width:2.0px;stroke-linecap:butt;stroke-linejoin:miter;stroke-opacity:1"/>
<path class="bond-73 atom-73 atom-74" d="M 64.5254,143.843 L 58.9274,147.503" style="fill:none;fill-rule:evenodd;stroke:#FF0000;stroke-width:2.0px;stroke-linecap:butt;stroke-linejoin:miter;stroke-opacity:1"/>
<path class="bond-73 atom-73 atom-74" d="M 71.917,142.926 L 66.319,146.586" style="fill:none;fill-rule:evenodd;stroke:#000000;stroke-width:2.0px;stroke-linecap:butt;stroke-linejoin:miter;stroke-opacity:1"/>
<path class="bond-73 atom-73 atom-74" d="M 66.319,146.586 L 60.721,150.246" style="fill:none;fill-rule:evenodd;stroke:#FF0000;stroke-width:2.0px;stroke-linecap:butt;stroke-linejoin:miter;stroke-opacity:1"/>
<path class="bond-74 atom-73 atom-75" d="M 71.0202,141.555 L 77.5248,144.862" style="fill:none;fill-rule:evenodd;stroke:#000000;stroke-width:2.0px;stroke-linecap:butt;stroke-linejoin:miter;stroke-opacity:1"/>
<path class="bond-74 atom-73 atom-75" d="M 77.5248,144.862 L 84.0294,148.169" style="fill:none;fill-rule:evenodd;stroke:#0000FF;stroke-width:2.0px;stroke-linecap:butt;stroke-linejoin:miter;stroke-opacity:1"/>
<path class="bond-75 atom-75 atom-76" d="M 90.8126,147.721 L 96.7983,143.884" style="fill:none;fill-rule:evenodd;stroke:#0000FF;stroke-width:2.0px;stroke-linecap:butt;stroke-linejoin:miter;stroke-opacity:1"/>
<path class="bond-75 atom-75 atom-76" d="M 96.7983,143.884 L 102.784,140.047" style="fill:none;fill-rule:evenodd;stroke:#000000;stroke-width:2.0px;stroke-linecap:butt;stroke-linejoin:miter;stroke-opacity:1"/>
<path class="bond-76 atom-75 atom-77" d="M 87.6039,154.217 L 87.894,161.147" style="fill:none;fill-rule:evenodd;stroke:#0000FF;stroke-width:2.0px;stroke-linecap:butt;stroke-linejoin:miter;stroke-opacity:1"/>
<path class="bond-76 atom-75 atom-77" d="M 87.894,161.147 L 88.1841,168.078" style="fill:none;fill-rule:evenodd;stroke:#000000;stroke-width:2.0px;stroke-linecap:butt;stroke-linejoin:miter;stroke-opacity:1"/>
<path class="bond-77 atom-77 atom-78" d="M 88.1841,168.078 L 72.7574,177.594" style="fill:none;fill-rule:evenodd;stroke:#000000;stroke-width:2.0px;stroke-linecap:butt;stroke-linejoin:miter;stroke-opacity:1"/>
<path class="bond-80 atom-77 atom-81" d="M 88.1841,168.078 L 104.274,176.826" style="fill:none;fill-rule:evenodd;stroke:#000000;stroke-width:2.0px;stroke-linecap:butt;stroke-linejoin:miter;stroke-opacity:1"/>
<path class="bond-78 atom-78 atom-79" d="M 72.7574,177.594 L 73.2636,195.77" style="fill:none;fill-rule:evenodd;stroke:#000000;stroke-width:2.0px;stroke-linecap:butt;stroke-linejoin:miter;stroke-opacity:1"/>
<path class="bond-79 atom-78 atom-80" d="M 72.7574,177.594 L 56.7589,168.908" style="fill:none;fill-rule:evenodd;stroke:#000000;stroke-width:2.0px;stroke-linecap:butt;stroke-linejoin:miter;stroke-opacity:1"/>
<path class="bond-81 atom-81 atom-82" d="M 105.12,178.229 L 110.918,174.729" style="fill:none;fill-rule:evenodd;stroke:#000000;stroke-width:2.0px;stroke-linecap:butt;stroke-linejoin:miter;stroke-opacity:1"/>
<path class="bond-81 atom-81 atom-82" d="M 110.918,174.729 L 116.716,171.229" style="fill:none;fill-rule:evenodd;stroke:#FF0000;stroke-width:2.0px;stroke-linecap:butt;stroke-linejoin:miter;stroke-opacity:1"/>
<path class="bond-81 atom-81 atom-82" d="M 103.427,175.423 L 109.224,171.923" style="fill:none;fill-rule:evenodd;stroke:#000000;stroke-width:2.0px;stroke-linecap:butt;stroke-linejoin:miter;stroke-opacity:1"/>
<path class="bond-81 atom-81 atom-82" d="M 109.224,171.923 L 115.022,168.423" style="fill:none;fill-rule:evenodd;stroke:#FF0000;stroke-width:2.0px;stroke-linecap:butt;stroke-linejoin:miter;stroke-opacity:1"/>
<path class="bond-82 atom-81 atom-83" d="M 104.274,176.826 L 104.381,183.802" style="fill:none;fill-rule:evenodd;stroke:#000000;stroke-width:2.0px;stroke-linecap:butt;stroke-linejoin:miter;stroke-opacity:1"/>
<path class="bond-82 atom-81 atom-83" d="M 104.381,183.802 L 104.488,190.779" style="fill:none;fill-rule:evenodd;stroke:#0000FF;stroke-width:2.0px;stroke-linecap:butt;stroke-linejoin:miter;stroke-opacity:1"/>
<path class="bond-83 atom-83 atom-84" d="M 101.165,197.102 L 95.0189,200.726" style="fill:none;fill-rule:evenodd;stroke:#0000FF;stroke-width:2.0px;stroke-linecap:butt;stroke-linejoin:miter;stroke-opacity:1"/>
<path class="bond-83 atom-83 atom-84" d="M 95.0189,200.726 L 88.8724,204.35" style="fill:none;fill-rule:evenodd;stroke:#000000;stroke-width:2.0px;stroke-linecap:butt;stroke-linejoin:miter;stroke-opacity:1"/>
<path class="atom-7" d="M 94.4407 227.654 L 95.4895 227.654 L 95.4895 230.943 L 99.4445 230.943 L 99.4445 227.654 L 100.493 227.654 L 100.493 235.389 L 99.4445 235.389 L 99.4445 231.817 L 95.4895 231.817 L 95.4895 235.389 L 94.4407 235.389 L 94.4407 227.654 " fill="#FF0000"/>
<path class="atom-7" d="M 101.04 231.5 Q 101.04 229.643, 101.957 228.605 Q 102.875 227.567, 104.59 227.567 Q 106.306 227.567, 107.223 228.605 Q 108.141 229.643, 108.141 231.5 Q 108.141 233.379, 107.212 234.45 Q 106.284 235.51, 104.59 235.51 Q 102.886 235.51, 101.957 234.45 Q 101.04 233.39, 101.04 231.5 M 104.59 234.635 Q 105.77 234.635, 106.404 233.849 Q 107.049 233.051, 107.049 231.5 Q 107.049 229.981, 106.404 229.216 Q 105.77 228.441, 104.59 228.441 Q 103.41 228.441, 102.766 229.206 Q 102.132 229.97, 102.132 231.5 Q 102.132 233.062, 102.766 233.849 Q 103.41 234.635, 104.59 234.635 " fill="#FF0000"/>
<path class="atom-10" d="M 148.416 204.281 Q 148.416 202.424, 149.334 201.386 Q 150.251 200.348, 151.967 200.348 Q 153.682 200.348, 154.6 201.386 Q 155.517 202.424, 155.517 204.281 Q 155.517 206.16, 154.589 207.231 Q 153.66 208.291, 151.967 208.291 Q 150.262 208.291, 149.334 207.231 Q 148.416 206.171, 148.416 204.281 M 151.967 207.417 Q 153.147 207.417, 153.78 206.63 Q 154.425 205.832, 154.425 204.281 Q 154.425 202.762, 153.78 201.998 Q 153.147 201.222, 151.967 201.222 Q 150.787 201.222, 150.142 201.987 Q 149.508 202.751, 149.508 204.281 Q 149.508 205.843, 150.142 206.63 Q 150.787 207.417, 151.967 207.417 " fill="#FF0000"/>
<path class="atom-11" d="M 126.381 173.056 L 127.43 173.056 L 127.43 176.345 L 131.385 176.345 L 131.385 173.056 L 132.434 173.056 L 132.434 180.791 L 131.385 180.791 L 131.385 177.219 L 127.43 177.219 L 127.43 180.791 L 126.381 180.791 L 126.381 173.056 " fill="#0000FF"/>
<path class="atom-11" d="M 134.564 173.056 L 137.099 177.153 Q 137.35 177.558, 137.754 178.29 Q 138.159 179.022, 138.181 179.065 L 138.181 173.056 L 139.208 173.056 L 139.208 180.791 L 138.148 180.791 L 135.427 176.312 Q 135.11 175.788, 134.772 175.187 Q 134.444 174.586, 134.346 174.4 L 134.346 180.791 L 133.341 180.791 L 133.341 173.056 L 134.564 173.056 " fill="#0000FF"/>
<path class="atom-16" d="M 164.6 194.98 Q 164.6 193.123, 165.518 192.085 Q 166.435 191.047, 168.151 191.047 Q 169.866 191.047, 170.784 192.085 Q 171.702 193.123, 171.702 194.98 Q 171.702 196.859, 170.773 197.93 Q 169.844 198.99, 168.151 198.99 Q 166.446 198.99, 165.518 197.93 Q 164.6 196.87, 164.6 194.98 M 168.151 198.115 Q 169.331 198.115, 169.964 197.329 Q 170.609 196.531, 170.609 194.98 Q 170.609 193.461, 169.964 192.696 Q 169.331 191.921, 168.151 191.921 Q 166.971 191.921, 166.326 192.686 Q 165.693 193.45, 165.693 194.98 Q 165.693 196.542, 166.326 197.329 Q 166.971 198.115, 168.151 198.115 " fill="#FF0000"/>
<path class="atom-17" d="M 181.911 163.438 L 184.446 167.535 Q 184.697 167.94, 185.102 168.672 Q 185.506 169.404, 185.528 169.447 L 185.528 163.438 L 186.555 163.438 L 186.555 171.173 L 185.495 171.173 L 182.774 166.694 Q 182.458 166.17, 182.119 165.569 Q 181.791 164.968, 181.693 164.782 L 181.693 171.173 L 180.688 171.173 L 180.688 163.438 L 181.911 163.438 " fill="#0000FF"/>
<path class="atom-21" d="M 194.284 120.92 Q 194.284 119.063, 195.202 118.025 Q 196.12 116.987, 197.835 116.987 Q 199.55 116.987, 200.468 118.025 Q 201.386 119.063, 201.386 120.92 Q 201.386 122.799, 200.457 123.87 Q 199.529 124.93, 197.835 124.93 Q 196.131 124.93, 195.202 123.87 Q 194.284 122.81, 194.284 120.92 M 197.835 124.056 Q 199.015 124.056, 199.649 123.269 Q 200.293 122.472, 200.293 120.92 Q 200.293 119.402, 199.649 118.637 Q 199.015 117.861, 197.835 117.861 Q 196.655 117.861, 196.011 118.626 Q 195.377 119.391, 195.377 120.92 Q 195.377 122.483, 196.011 123.269 Q 196.655 124.056, 197.835 124.056 " fill="#FF0000"/>
<path class="atom-22" d="M 213.012 143.376 L 215.547 147.473 Q 215.798 147.877, 216.202 148.609 Q 216.607 149.341, 216.629 149.385 L 216.629 143.376 L 217.656 143.376 L 217.656 151.111 L 216.596 151.111 L 213.875 146.631 Q 213.559 146.107, 213.22 145.506 Q 212.892 144.905, 212.794 144.719 L 212.794 151.111 L 211.789 151.111 L 211.789 143.376 L 213.012 143.376 " fill="#0000FF"/>
<path class="atom-30" d="M 241.988 108.742 Q 241.988 106.885, 242.906 105.847 Q 243.824 104.809, 245.539 104.809 Q 247.254 104.809, 248.172 105.847 Q 249.09 106.885, 249.09 108.742 Q 249.09 110.621, 248.161 111.692 Q 247.232 112.752, 245.539 112.752 Q 243.835 112.752, 242.906 111.692 Q 241.988 110.632, 241.988 108.742 M 245.539 111.878 Q 246.719 111.878, 247.353 111.091 Q 247.997 110.293, 247.997 108.742 Q 247.997 107.223, 247.353 106.459 Q 246.719 105.683, 245.539 105.683 Q 244.359 105.683, 243.714 106.448 Q 243.081 107.212, 243.081 108.742 Q 243.081 110.304, 243.714 111.091 Q 244.359 111.878, 245.539 111.878 " fill="#FF0000"/>
<path class="atom-31" d="M 203.394 105.359 L 204.443 105.359 L 204.443 108.647 L 208.398 108.647 L 208.398 105.359 L 209.447 105.359 L 209.447 113.094 L 208.398 113.094 L 208.398 109.521 L 204.443 109.521 L 204.443 113.094 L 203.394 113.094 L 203.394 105.359 " fill="#0000FF"/>
<path class="atom-31" d="M 211.577 105.359 L 214.112 109.456 Q 214.363 109.86, 214.768 110.592 Q 215.172 111.324, 215.194 111.368 L 215.194 105.359 L 216.221 105.359 L 216.221 113.094 L 215.161 113.094 L 212.441 108.615 Q 212.124 108.09, 211.785 107.489 Q 211.457 106.888, 211.359 106.703 L 211.359 113.094 L 210.354 113.094 L 210.354 105.359 L 211.577 105.359 " fill="#0000FF"/>
<path class="atom-37" d="M 176.895 99.7031 Q 176.895 97.8458, 177.812 96.8078 Q 178.73 95.7699, 180.445 95.7699 Q 182.161 95.7699, 183.078 96.8078 Q 183.996 97.8458, 183.996 99.7031 Q 183.996 101.582, 183.068 102.653 Q 182.139 103.713, 180.445 103.713 Q 178.741 103.713, 177.812 102.653 Q 176.895 101.593, 176.895 99.7031 M 180.445 102.839 Q 181.625 102.839, 182.259 102.052 Q 182.904 101.254, 182.904 99.7031 Q 182.904 98.1844, 182.259 97.4197 Q 181.625 96.644, 180.445 96.644 Q 179.266 96.644, 178.621 97.4087 Q 177.987 98.1735, 177.987 99.7031 Q 177.987 101.265, 178.621 102.052 Q 179.266 102.839, 180.445 102.839 " fill="#FF0000"/>
<path class="atom-38" d="M 179.704 63.9624 L 182.239 68.0595 Q 182.49 68.4637, 182.895 69.1957 Q 183.299 69.9277, 183.321 69.9714 L 183.321 63.9624 L 184.348 63.9624 L 184.348 71.6976 L 183.288 71.6976 L 180.567 67.2182 Q 180.251 66.6938, 179.912 66.0929 Q 179.584 65.492, 179.486 65.3063 L 179.486 71.6976 L 178.481 71.6976 L 178.481 63.9624 L 179.704 63.9624 " fill="#0000FF"/>
<path class="atom-46" d="M 171.993 18.9388 Q 171.993 17.0815, 172.911 16.0436 Q 173.828 15.0057, 175.544 15.0057 Q 177.259 15.0057, 178.177 16.0436 Q 179.094 17.0815, 179.094 18.9388 Q 179.094 20.818, 178.166 21.8887 Q 177.237 22.9485, 175.544 22.9485 Q 173.839 22.9485, 172.911 21.8887 Q 171.993 20.8289, 171.993 18.9388 M 175.544 22.0744 Q 176.724 22.0744, 177.357 21.2878 Q 178.002 20.4902, 178.002 18.9388 Q 178.002 17.4202, 177.357 16.6554 Q 176.724 15.8797, 175.544 15.8797 Q 174.364 15.8797, 173.719 16.6445 Q 173.085 17.4093, 173.085 18.9388 Q 173.085 20.5012, 173.719 21.2878 Q 174.364 22.0744, 175.544 22.0744 " fill="#FF0000"/>
<path class="atom-47" d="M 153.494 39.7189 L 156.029 43.816 Q 156.28 44.2202, 156.685 44.9522 Q 157.089 45.6842, 157.111 45.7279 L 157.111 39.7189 L 158.138 39.7189 L 158.138 47.4541 L 157.078 47.4541 L 154.357 42.9747 Q 154.041 42.4503, 153.702 41.8494 Q 153.374 41.2485, 153.276 41.0628 L 153.276 47.4541 L 152.271 47.4541 L 152.271 39.7189 L 153.494 39.7189 " fill="#0000FF"/>
<path class="atom-47" d="M 152.178 48.2277 L 153.227 48.2277 L 153.227 51.5162 L 157.182 51.5162 L 157.182 48.2277 L 158.23 48.2277 L 158.23 55.9628 L 157.182 55.9628 L 157.182 52.3902 L 153.227 52.3902 L 153.227 55.9628 L 152.178 55.9628 L 152.178 48.2277 " fill="#0000FF"/>
<path class="atom-51" d="M 104.609 31.4521 Q 104.609 29.5947, 105.526 28.5568 Q 106.444 27.5189, 108.159 27.5189 Q 109.875 27.5189, 110.792 28.5568 Q 111.71 29.5947, 111.71 31.4521 Q 111.71 33.3312, 110.781 34.4019 Q 109.853 35.4617, 108.159 35.4617 Q 106.455 35.4617, 105.526 34.4019 Q 104.609 33.3422, 104.609 31.4521 M 108.159 34.5877 Q 109.339 34.5877, 109.973 33.801 Q 110.618 33.0035, 110.618 31.4521 Q 110.618 29.9334, 109.973 29.1686 Q 109.339 28.3929, 108.159 28.3929 Q 106.979 28.3929, 106.335 29.1577 Q 105.701 29.9225, 105.701 31.4521 Q 105.701 33.0144, 106.335 33.801 Q 106.979 34.5877, 108.159 34.5877 " fill="#FF0000"/>
<path class="atom-52" d="M 121.552 55.426 L 124.087 59.5231 Q 124.338 59.9273, 124.742 60.6593 Q 125.147 61.3913, 125.168 61.435 L 125.168 55.426 L 126.195 55.426 L 126.195 63.1612 L 125.136 63.1612 L 122.415 58.6818 Q 122.098 58.1574, 121.76 57.5565 Q 121.432 56.9556, 121.334 56.7699 L 121.334 63.1612 L 120.328 63.1612 L 120.328 55.426 L 121.552 55.426 " fill="#0000FF"/>
<path class="atom-52" d="M 127.124 55.426 L 128.173 55.426 L 128.173 58.7146 L 132.128 58.7146 L 132.128 55.426 L 133.177 55.426 L 133.177 63.1612 L 132.128 63.1612 L 132.128 59.5886 L 128.173 59.5886 L 128.173 63.1612 L 127.124 63.1612 L 127.124 55.426 " fill="#0000FF"/>
<path class="atom-56" d="M 86.5962 41.5653 Q 86.5962 39.708, 87.514 38.6701 Q 88.4317 37.6322, 90.147 37.6322 Q 91.8623 37.6322, 92.78 38.6701 Q 93.6977 39.708, 93.6977 41.5653 Q 93.6977 43.4445, 92.7691 44.5152 Q 91.8404 45.575, 90.147 45.575 Q 88.4426 45.575, 87.514 44.5152 Q 86.5962 43.4554, 86.5962 41.5653 M 90.147 44.7009 Q 91.3269 44.7009, 91.9606 43.9143 Q 92.6052 43.1168, 92.6052 41.5653 Q 92.6052 40.0467, 91.9606 39.2819 Q 91.3269 38.5062, 90.147 38.5062 Q 88.967 38.5062, 88.3224 39.271 Q 87.6888 40.0358, 87.6888 41.5653 Q 87.6888 43.1277, 88.3224 43.9143 Q 88.967 44.7009, 90.147 44.7009 " fill="#FF0000"/>
<path class="atom-57" d="M 70.3301 64.9202 L 72.8648 69.0172 Q 73.1161 69.4215, 73.5203 70.1535 Q 73.9246 70.8855, 73.9464 70.9292 L 73.9464 64.9202 L 74.9734 64.9202 L 74.9734 72.6554 L 73.9137 72.6554 L 71.1932 68.176 Q 70.8764 67.6516, 70.5377 67.0507 Q 70.2099 66.4498, 70.1116 66.264 L 70.1116 72.6554 L 69.1065 72.6554 L 69.1065 64.9202 L 70.3301 64.9202 " fill="#0000FF"/>
<path class="atom-65" d="M 93.2097 87.0915 Q 93.2097 85.2342, 94.1275 84.1963 Q 95.0452 83.1584, 96.7605 83.1584 Q 98.4758 83.1584, 99.3935 84.1963 Q 100.311 85.2342, 100.311 87.0915 Q 100.311 88.9707, 99.3826 90.0414 Q 98.4539 91.1011, 96.7605 91.1011 Q 95.0561 91.1011, 94.1275 90.0414 Q 93.2097 88.9816, 93.2097 87.0915 M 96.7605 90.2271 Q 97.9404 90.2271, 98.5741 89.4405 Q 99.2187 88.6429, 99.2187 87.0915 Q 99.2187 85.5729, 98.5741 84.8081 Q 97.9404 84.0324, 96.7605 84.0324 Q 95.5806 84.0324, 94.936 84.7972 Q 94.3023 85.562, 94.3023 87.0915 Q 94.3023 88.6538, 94.936 89.4405 Q 95.5806 90.2271, 96.7605 90.2271 " fill="#FF0000"/>
<path class="atom-66" d="M 83.0072 109.977 L 85.5419 114.074 Q 85.7932 114.478, 86.1975 115.21 Q 86.6017 115.942, 86.6235 115.986 L 86.6235 109.977 L 87.6505 109.977 L 87.6505 117.712 L 86.5908 117.712 L 83.8703 113.232 Q 83.5535 112.708, 83.2148 112.107 Q 82.8871 111.506, 82.7887 111.32 L 82.7887 117.712 L 81.7836 117.712 L 81.7836 109.977 L 83.0072 109.977 " fill="#0000FF"/>
<path class="atom-74" d="M 52.2686 151.515 Q 52.2686 149.658, 53.1863 148.62 Q 54.1041 147.582, 55.8194 147.582 Q 57.5346 147.582, 58.4524 148.62 Q 59.3701 149.658, 59.3701 151.515 Q 59.3701 153.394, 58.4415 154.465 Q 57.5128 155.525, 55.8194 155.525 Q 54.115 155.525, 53.1863 154.465 Q 52.2686 153.405, 52.2686 151.515 M 55.8194 154.651 Q 56.9993 154.651, 57.633 153.864 Q 58.2776 153.066, 58.2776 151.515 Q 58.2776 149.996, 57.633 149.232 Q 56.9993 148.456, 55.8194 148.456 Q 54.6394 148.456, 53.9948 149.221 Q 53.3611 149.985, 53.3611 151.515 Q 53.3611 153.077, 53.9948 153.864 Q 54.6394 154.651, 55.8194 154.651 " fill="#FF0000"/>
<path class="atom-75" d="M 85.7131 146.027 L 88.2478 150.124 Q 88.4991 150.528, 88.9033 151.26 Q 89.3075 151.992, 89.3294 152.036 L 89.3294 146.027 L 90.3564 146.027 L 90.3564 153.762 L 89.2966 153.762 L 86.5762 149.283 Q 86.2594 148.758, 85.9207 148.157 Q 85.5929 147.556, 85.4946 147.371 L 85.4946 153.762 L 84.4894 153.762 L 84.4894 146.027 L 85.7131 146.027 " fill="#0000FF"/>
<path class="atom-82" d="M 116.324 167.43 Q 116.324 165.572, 117.242 164.534 Q 118.16 163.497, 119.875 163.497 Q 121.59 163.497, 122.508 164.534 Q 123.426 165.572, 123.426 167.43 Q 123.426 169.309, 122.497 170.38 Q 121.568 171.439, 119.875 171.439 Q 118.171 171.439, 117.242 170.38 Q 116.324 169.32, 116.324 167.43 M 119.875 170.565 Q 121.055 170.565, 121.689 169.779 Q 122.333 168.981, 122.333 167.43 Q 122.333 165.911, 121.689 165.146 Q 121.055 164.371, 119.875 164.371 Q 118.695 164.371, 118.05 165.135 Q 117.417 165.9, 117.417 167.43 Q 117.417 168.992, 118.05 169.779 Q 118.695 170.565, 119.875 170.565 " fill="#FF0000"/>
<path class="atom-83" d="M 102.844 191.236 L 105.379 195.333 Q 105.63 195.737, 106.034 196.469 Q 106.439 197.201, 106.46 197.245 L 106.46 191.236 L 107.487 191.236 L 107.487 198.971 L 106.428 198.971 L 103.707 194.492 Q 103.39 193.967, 103.052 193.367 Q 102.724 192.766, 102.626 192.58 L 102.626 198.971 L 101.62 198.971 L 101.62 191.236 L 102.844 191.236 " fill="#0000FF"/>
</svg>