/* XPM */
static char * Go_xpm[] = {
"50 50 4 1",
" 	c #555555555555",
".	c #0000FFFF0000",
"X	c #FFFFFFFFFFFF",
"o	c #3333FFFF3333",
"                                                  ",
"                                                  ",
"                  .............                   ",
"               ...................                ",
"             .......................              ",
"           ...........................            ",
"          .............................           ",
"         ...............................          ",
"        .................................         ",
"       ...................................        ",
"      .....................................       ",
"     .......................................      ",
"     .......................................      ",
"    .........................................     ",
"    .........................................     ",
"   ...........................................    ",
"   ...........................................    ",
"   ...........................................    ",
"  ................XXXXX......XXXX..............   ",
"  ..............XXXXXXXX....XXXXXX.............   ",
"  .............XXXX..oXX...XXX.oXXX............   ",
"  .............XXX.........XXX..XXX............   ",
"  ............XXX.........XXX....XXX...........   ",
"  ............XXX.........XXX....XXX...........   ",
"  ............XXX.........XXX....XXX...........   ",
"  ............XXX....XXX..XXX....XXX...........   ",
"  ............XXXX...XXX..XXX....XXX...........   ",
"  .............XXX...XXX...XXX..XXX............   ",
"  .............XXXX..XXX...XXX..XXX............   ",
"  ..............XXXXXXXX....XXXXXX.............   ",
"  ................XXXXXX.....XXXX..............   ",
"   ...........................................    ",
"   ...........................................    ",
"   ...........................................    ",
"    .........................................     ",
"    .........................................     ",
"     .......................................      ",
"     .......................................      ",
"      .....................................       ",
"       ...................................        ",
"        .................................         ",
"         ...............................          ",
"          .............................           ",
"           ...........................            ",
"             .......................              ",
"               ...................                ",
"                  .............                   ",
"                                                  ",
"                                                  ",
"                                                  "};
