/* XPM */
static char *RDIcon[]={
"16 16 6 1",
". c None",
"# c #1414ff",
"a c #143cff",
"b c #6464ff",
"c c #8c8cff",
"d c #b4b4ff",
"................",
".....######.....",
"....#aaaaaa#....",
"...#abbbbbba#...",
"..#abbbbbbbba#..",
".#abbbccccbbba#.",
".#abbccccccbba#.",
".#abbccddccbba#.",
".#abbccddccbba#.",
".#abbccccccbba#.",
".#abbbccccbbba#.",
"..#abbbbbbbba#..",
"...#abbbbbba#...",
"....#aaaaaa#....",
".....######.....",
"................"};
