/* XPM */
static char * Stop_xpm[] = {
"50 50 3 1",
" 	c #555555555555",
".	c #FFFF00000000",
"X	c #FFFFFFFFFFFF",
"                                                  ",
"               ....................               ",
"              ......................              ",
"             ........................             ",
"            ..........................            ",
"           ............................           ",
"          ..............................          ",
"         ................................         ",
"        ..................................        ",
"       ....................................       ",
"      ......................................      ",
"     ........................................     ",
"    ..........................................    ",
"   ............................................   ",
"  ..............................................  ",
" ................................................ ",
" ................................................ ",
" ................................................ ",
" ................................................ ",
" .....XXXXXX..XXXXXXXXXXX....XXXX....XXXXXXX..... ",
" ....XXXXXXXX.XXXXXXXXXXX...XXXXXX...XXXXXXXX.... ",
" ...XXX....XX.....XXX......XXX..XXX..XXX..XXXX... ",
" ...XXX...........XXX......XXX..XXX..XXX...XXX... ",
" ...XXXXX.........XXX.....XXX....XXX.XXX...XXX... ",
" ...XXXXXXX.......XXX.....XXX....XXX.XXX..XXX.... ",
" ....XXXXXXX......XXX.....XXX....XXX.XXXXXXXX.... ",
" ......XXXXXX.....XXX.....XXX....XXX.XXXXXX...... ",
" ........XXXX.....XXX.....XXX....XXX.XXX......... ",
" .........XXX.....XXX......XXX..XXX..XXX......... ",
" ...XX....XXX.....XXX......XXX..XXX..XXX......... ",
" ...XXXXXXXX......XXX.......XXXXXX...XXX......... ",
" ....XXXXXX.......XXX........XXXX....XXX......... ",
" ................................................ ",
" ................................................ ",
" ................................................ ",
"  ..............................................  ",
"   ............................................   ",
"    ..........................................    ",
"     ........................................     ",
"      ......................................      ",
"       ....................................       ",
"        ..................................        ",
"         ................................         ",
"          ..............................          ",
"           ............................           ",
"            ..........................            ",
"             ........................             ",
"              ......................              ",
"               ....................               ",
"                                                  "};
