/* XPM */
static char * filter_xpm[] = {
"64 64 5 1",
" 	c #FFFFFFFFFFFF",
".	c #000000000000",
",	c #666666666666",
"X	c #00000000FFFF",
"o	c #FFFF5555FFFF",
"                                                                ",
"                                                                ",
"   ....... . ..                                       XXXXX     ",
"    .    .    .                                      XX,,,,X    ",
"    .         .  .                                 XXX,,,,,,X   ",
"    .   . ..  . ....  ..  . ..                   XXX,,,,,,,,X   ",
"    .....  .  .  .   .  .  ..                   XX,,,,,,,,,,X   ",
"    .   .  .  .  .   ....  .                  XX,,,,,,,,,,,,X   ",
"    .      .  .  .   .     .                XXX,,,,,,,,,,,,,X   ",
"    .      .  .  .   ..  . .              XXX ,,,,,,,,,,,,,XX   ",
"   ....   ......  ..  ... ...            XX  ,,,,,,,,,,,,XXX    ",
"                                       XXX  ,,,,,,,,,,,,XX      ",
"                                      XX    ,,,,,,,,,,XXX       ",
"                                     XXX   ,,,,,,,,,XXX         ",
"                                     X XX ,,,,,,,,XXX           ",
"                                     X  X ,,,,,,,XX             ",
"                                     XX  X,,,,,XXX              ",
"                                      X  X,,,XXX                ",
"                                      XX X,XXX                  ",
"                                       XXXXX                    ",
"                                        ,XX                     ",
"                                        ,                       ",
"                                       ,,                       ",
"                                       ,,,                      ",
"                              XXXXXXXXXX,XXXXXXX                ",
"                          XXXX                  XXXX            ",
"                        XX              ,           XX          ",
"                       X               ,,,            X         ",
"                       XXX              ,           XXX         ",
"                        X XXXX                  XXXX X          ",
"                         X    XXXXXXXXXXXXXXXXXX    X           ",
"                          X                        X            ",
"                           X       ,,,,,,,,       X             ",
"                            X   ,,,,,,,,,,,,,,   X              ",
"                             X,,,,,,,,,,,,,,,,,,X               ",
"                              X,,,,,,,,,,,,,,,,X                ",
"                               X,,,,,,,,,,,,,,X                 ",
"                                X,,,,,,,,,,,,X                  ",
"                                 X,,,,,,,,,,X                   ",
"                                  X,,,,,,,,X                    ",
"                                   X,,,,,,X                     ",
"                                    X,,,,X                      ",
"                                     X,,X                       ",
"                                     XooX                       ",
"                                     XooX                       ",
"                                     XooX                       ",
"                                     XooX                       ",
"                                     XooX                       ",
"                                     XooX                       ",
"                                     XooX                       ",
"                                     XooX                       ",
"                                     XooX                       ",
"                                     XooX                       ",
"                                     XooX                       ",
"                                     XooX                       ",
"                                     XooX                       ",
"                                     XooX                       ",
"                                     XooX                       ",
"                                      XX                        ",
"                                      oo                        ",
"                                      oo                        ",
"                                       o                        ",
"                                      o                         ",
"                                       o                        "};
