/* XPM */
static char * sink_xpm[] = {
"64 64 4 1",
" 	c #FFFFFFFFFFFF",
".	c #000000000000",
"X	c #00000000FFFF",
"o	c #0000FFFFFFFF",
"                                                                ",
"                                                                ",
"             ... .                                              ",
"            .   ..                                              ",
"            .    .  .                                           ",
"             ..    ....  ..  . ..  ..    ....  ..               ",
"              ...   .   .  .  ..  .  .  .  .  .  .              ",
"                ..  .   .  .  .    ...  .  .  ....              ",
"            .    .  .   .  .  .   .  .  ...   .                 ",
"            ..  ..  .   .  .  .   .  .   .    ..  .             ",
"            . ...    ..  ..  ...   .. .  ...   ...              ",
"                                        .   .                   ",
"                                        .   .                   ",
"                                         ...                    ",
"                                                                ",
"                                                                ",
"                                                                ",
"                                                                ",
"                                                                ",
"                                                                ",
"                                                                ",
"                XXXXX      XXXXX      XXXXX      XXXXX          ",
"               XXXXXXX    XXXXXXX    XXXXXXX    XXXXXXX         ",
"              XXXXXXXXX  XXXXXXXXX  XXXXXXXXX  XXXXXXXXX        ",
"              XXXXXXXXX  XXXXXXXXX  XXXXXXXXX  XXXXXXXXX        ",
"              XXXXXXXXX  XXXXXXXXX  XXXXXXXXX  XXXXXXXXX        ",
"              XoXXXXXoX..XoXXXXXoX..XoXXXXXoX..XoXXXXXoX.....   ",
"              XoooooooX  XoooooooX  XoooooooX  XoooooooX   ..   ",
"              XoooooooX  XoooooooX  XoooooooX  XoooooooX   ..   ",
"            XXXXXoooooXXXXXXoooooXXXXXXoooooXXXXXXoooooX  . .   ",
"           XXXXXXXooooXXXXXXXooooXXXXXXXooooXXXXXXXooooX  . .   ",
"          XXXXXXXXXooXXXXXXXXXooXXXXXXXXXooXXXXXXXXXooX   . .   ",
"          XXXXXXXXXXXXXXXXXXXXXXXXXXXXXXXXXXXXXXXXXXXX   .  .   ",
"          XXXXXXXXX  XXXXXXXXX  XXXXXXXXX  XXXXXXXXX     .  .   ",
"          XoXXXXXoX  XoXXXXXoX  XoXXXXXoX  XoXXXXXoX    .   .   ",
"          XoooooooX  XoooooooX  XoooooooX  XoooooooX    .   .   ",
"          XoooooooX  XoooooooX  XoooooooX  XoooooooX    .  .    ",
"          XoooooooX  XoooooooX  XoooooooX  XoooooooX   .   .    ",
"        XXXXXoooooXXXXXXoooooXXXXXXoooooXXXXXXoooooX   .   .    ",
"       XXXXXXXooooXXXXXXXooooXXXXXXXooooXXXXXXXoooX   .   .     ",
"      XXXXXXXXXXXXXXXXXXXXXXXXXXXXXXXXXXXXXXXXXXXX    .   .     ",
"     .XXXXXXXXX  XXXXXXXXX  XXXXXXXXX  XXXXXXXXX     .   .      ",
"     .XXXXXXXXX  XXXXXXXXX  XXXXXXXXX  XXXXXXXXX     .   .      ",
"     .XoXXXXXoX  XoXXXXXoX  XoXXXXXoX  XoXXXXXoX     .  .       ",
"    . XoooooooX  XoooooooX  XoooooooX  XoooooooX    .   .       ",
"    . XoooooooX  XoooooooX  XoooooooX  XoooooooX    .   .       ",
"    . XoooooooX  XoooooooX  XoooooooX  XoooooooX   .   .        ",
"   .  XoooooooX  XoooooooX  XoooooooX  XoooooooX   .   .        ",
"   .   XoooooX    XoooooX    XoooooX    XoooooX   .   .         ",
"   .    XXXXX      XXXXX      XXXXX      XXXXX    .   .         ",
"  .                                              .   .          ",
"  .                                              .   .          ",
"  ................................................   .          ",
"  .                                              .  .           ",
"  .                                              .  .           ",
"  .                                              . .            ",
"  .                                              . .            ",
"  .                                              ..             ",
"  .                                              ..             ",
"  ................................................              ",
"                                                                ",
"                                                                ",
"                                                                ",
"                                                                "};
