<?xml version="1.0" encoding="UTF-8" standalone="no"?>
<!-- Created with Inkscape (http://www.inkscape.org/) -->

<svg
   xmlns:dc="http://purl.org/dc/elements/1.1/"
   xmlns:cc="http://creativecommons.org/ns#"
   xmlns:rdf="http://www.w3.org/1999/02/22-rdf-syntax-ns#"
   xmlns:svg="http://www.w3.org/2000/svg"
   xmlns="http://www.w3.org/2000/svg"
   xmlns:sodipodi="http://sodipodi.sourceforge.net/DTD/sodipodi-0.dtd"
   xmlns:inkscape="http://www.inkscape.org/namespaces/inkscape"
   id="svg3004"
   version="1.1"
   inkscape:version="0.48.3.1 r9886"
   width="765"
   height="990"
   xml:space="preserve"
   sodipodi:docname="logo_plain.inkscape.svg"
   inkscape:export-filename="/scratch/RDKit_trunk/Docs/Images/logo.png"
   inkscape:export-xdpi="71.480003"
   inkscape:export-ydpi="71.480003"><metadata
     id="metadata3010"><rdf:RDF><cc:Work
         rdf:about=""><dc:format>image/svg+xml</dc:format><dc:type
           rdf:resource="http://purl.org/dc/dcmitype/StillImage" /><dc:title></dc:title></cc:Work></rdf:RDF></metadata><defs
     id="defs3008"><clipPath
       clipPathUnits="userSpaceOnUse"
       id="clipPath3018"><path
         d="M 0,792 612,792 612,0 0,0 0,792 z"
         id="path3020" /></clipPath></defs><sodipodi:namedview
     pagecolor="#ffffff"
     bordercolor="#666666"
     borderopacity="1"
     objecttolerance="10"
     gridtolerance="10"
     guidetolerance="10"
     inkscape:pageopacity="0"
     inkscape:pageshadow="2"
     inkscape:window-width="1170"
     inkscape:window-height="769"
     id="namedview3006"
     showgrid="false"
     inkscape:zoom="1.1919192"
     inkscape:cx="291.38395"
     inkscape:cy="596.25171"
     inkscape:window-x="56"
     inkscape:window-y="24"
     inkscape:window-maximized="0"
     inkscape:current-layer="g3012" /><g
     id="g3012"
     inkscape:groupmode="layer"
     inkscape:label="logo"
     transform="matrix(1.25,0,0,-1.25,0,990)"><g
       id="g3765"
       transform="matrix(0.32805,0,0,0.32805,195.50968,308.03092)"><polygon
         id="polygon3327"
         points="414.41,136.6 411.51,134.67 408.58,132.8 405.62,130.97 402.63,129.2 399.61,127.48 396.55,125.81 393.47,124.2 390.37,122.64 387.24,121.14 384.08,119.69 380.9,118.3 377.69,116.96 374.47,115.69 371.22,114.46 367.95,113.3 364.67,112.19 361.36,111.14 358.04,110.15 354.71,109.21 351.36,108.34 347.99,107.52 344.61,106.77 341.22,106.07 337.82,105.43 334.41,104.85 330.99,104.33 327.56,103.87 324.13,103.48 320.69,103.14 317.25,102.86 313.8,102.64 310.35,102.48 306.9,102.38 303.45,102.35 300,102.37 296.55,102.45 293.11,102.59 289.67,102.8 286.23,103.06 282.8,103.38 300,300 300,300 441.42,158.58 438.9,156.17 436.33,153.81 433.72,151.49 431.07,149.22 428.39,146.99 425.67,144.82 422.91,142.69 420.11,140.61 417.28,138.58 "
         style="fill:#3333ff;stroke:none"
         transform="matrix(0.8,0,0,-0.8,132.65804,626.70273)" /><polygon
         id="polygon3329"
         points="249.05,109.87 245.76,110.83 242.48,111.86 239.22,112.94 235.98,114.08 232.77,115.28 229.57,116.53 226.4,117.83 223.25,119.19 220.13,120.61 217.03,122.08 213.96,123.6 210.92,125.18 207.91,126.8 204.93,128.48 201.97,130.21 199.05,132 196.16,133.83 193.31,135.71 190.49,137.64 187.7,139.62 184.95,141.65 182.23,143.72 179.56,145.84 176.92,148.01 174.32,150.22 171.76,152.47 169.24,154.77 166.76,157.12 164.32,159.5 161.93,161.93 159.58,164.4 157.27,166.9 155.01,169.45 152.79,172.03 150.62,174.66 148.5,177.32 146.42,180.01 144.39,182.74 142.41,185.51 140.48,188.3 300,300 300,300 282.8,103.38 279.37,103.77 275.96,104.21 272.55,104.71 269.16,105.27 265.77,105.89 262.4,106.57 259.04,107.3 255.7,108.1 252.37,108.95 "
         style="fill:#3636ff;stroke:none"
         transform="matrix(0.8,0,0,-0.8,132.65804,626.70273)" /><polygon
         id="polygon3331"
         points="123.99,217.92 122.63,221.03 121.33,224.16 120.08,227.31 118.89,230.48 117.75,233.67 116.67,236.87 115.65,240.1 114.68,243.34 113.77,246.6 112.92,249.87 112.12,253.16 111.38,256.45 110.7,259.76 110.08,263.08 109.52,266.41 109.01,269.75 108.57,273.1 108.18,276.45 107.85,279.8 107.58,283.17 107.37,286.53 107.21,289.9 107.12,293.26 107.08,296.63 107.11,300 107.19,303.37 107.33,306.73 107.53,310.09 107.79,313.44 108.1,316.79 108.48,320.13 108.91,323.46 109.4,326.79 109.95,330.1 110.55,333.4 111.22,336.7 111.94,339.97 112.72,343.24 113.55,346.49 114.44,349.72 300,300 300,300 140.48,188.3 138.6,191.13 136.77,194 134.99,196.89 133.26,199.81 131.58,202.76 129.96,205.74 128.38,208.75 126.86,211.78 125.4,214.84 "
         style="fill:#3939ff;stroke:none"
         transform="matrix(0.8,0,0,-0.8,132.65804,626.70273)" /><polygon
         id="polygon3333"
         points="126.37,380.96 127.86,383.96 129.4,386.93 130.99,389.87 132.63,392.78 134.32,395.66 136.06,398.51 137.84,401.33 139.68,404.11 141.57,406.86 143.5,409.58 145.48,412.27 147.5,414.91 149.57,417.53 151.69,420.1 153.85,422.64 156.05,425.13 158.29,427.59 160.58,430.01 162.91,432.39 165.28,434.72 167.69,437.02 170.13,439.27 172.62,441.47 175.14,443.63 177.7,445.75 180.3,447.82 182.93,449.85 185.59,451.82 188.29,453.76 191.02,455.64 193.78,457.47 196.58,459.26 199.4,461 202.25,462.68 205.13,464.32 208.04,465.9 210.97,467.43 213.93,468.92 216.92,470.35 219.92,471.72 300,300 300,300 114.44,349.72 115.39,352.94 116.39,356.14 117.45,359.31 118.56,362.47 119.73,365.61 120.95,368.73 122.22,371.83 123.55,374.9 124.94,377.94 "
         style="fill:#3c3cff;stroke:none"
         transform="matrix(0.8,0,0,-0.8,132.65804,626.70273)" /><polygon
         id="polygon3335"
         points="251.1,482.51 254.3,483.28 257.52,484 260.75,484.66 263.99,485.27 267.24,485.82 270.49,486.31 273.75,486.74 277.02,487.12 280.3,487.44 283.58,487.7 286.86,487.91 290.14,488.06 293.43,488.15 296.72,488.18 300,488.16 303.28,488.08 306.56,487.94 309.84,487.74 313.11,487.49 316.38,487.18 319.63,486.81 322.89,486.39 326.13,485.91 329.36,485.37 332.58,484.78 335.79,484.13 338.99,483.43 342.17,482.67 345.34,481.85 348.49,480.98 351.63,480.06 354.75,479.08 357.85,478.05 360.93,476.96 363.99,475.82 367.03,474.63 370.05,473.38 373.05,472.09 376.02,470.74 378.96,469.34 300,300 300,300 219.92,471.72 222.96,473.04 226.01,474.31 229.08,475.53 232.17,476.69 235.29,477.8 238.42,478.85 241.56,479.85 244.73,480.79 247.9,481.68 "
         style="fill:#3f3fff;stroke:none"
         transform="matrix(0.8,0,0,-0.8,132.65804,626.70273)" /><polygon
         id="polygon3337"
         points="406.87,452.62 409.48,450.69 412.06,448.71 414.61,446.69 417.12,444.63 419.59,442.52 422.03,440.38 424.42,438.19 426.78,435.95 429.1,433.68 431.37,431.37 433.61,429.02 435.8,426.64 437.95,424.21 440.06,421.75 442.12,419.25 444.14,416.72 446.11,414.16 448.04,411.56 449.92,408.93 451.76,406.26 453.55,403.57 455.29,400.84 456.98,398.09 458.62,395.31 460.21,392.5 461.76,389.66 463.25,386.8 464.7,383.92 466.09,381.01 467.43,378.07 468.72,375.12 469.95,372.14 471.14,369.14 472.27,366.13 473.35,363.09 474.37,360.04 475.34,356.97 476.26,353.89 477.13,350.79 477.93,347.68 300,300 300,300 378.96,469.34 381.88,467.89 384.78,466.38 387.64,464.83 390.48,463.23 393.29,461.58 396.07,459.88 398.82,458.14 401.53,456.35 404.22,454.51 "
         style="fill:#4242ff;stroke:none"
         transform="matrix(0.8,0,0,-0.8,132.65804,626.70273)" /><polygon
         id="polygon3339"
         points="482.99,316.01 483.18,312.81 483.33,309.61 483.41,306.4 483.45,303.2 483.42,300 483.34,296.8 483.2,293.6 483.01,290.41 482.76,287.22 482.46,284.04 482.1,280.86 481.69,277.69 481.22,274.53 480.69,271.38 480.12,268.24 479.48,265.11 478.8,262 478.05,258.89 477.26,255.8 476.41,252.73 475.51,249.67 474.55,246.63 473.54,243.61 472.48,240.61 471.37,237.63 470.21,234.66 468.99,231.72 467.73,228.8 466.41,225.91 465.04,223.04 463.63,220.19 462.16,217.37 460.65,214.58 459.09,211.82 457.48,209.08 455.82,206.37 454.12,203.69 452.37,201.05 450.58,198.43 448.74,195.85 300,300 300,300 477.93,347.68 478.69,344.55 479.39,341.41 480.03,338.27 480.62,335.11 481.15,331.94 481.63,328.77 482.05,325.59 482.42,322.4 482.73,319.21 "
         style="fill:#4545ff;stroke:none"
         transform="matrix(0.8,0,0,-0.8,132.65804,626.70273)" /><polygon
         id="polygon3341"
         points="428.02,171.98 425.73,169.8 423.41,167.66 421.04,165.57 418.64,163.52 416.21,161.51 413.74,159.54 411.24,157.62 408.71,155.74 406.14,153.91 403.55,152.12 400.92,150.38 398.26,148.69 395.58,147.04 392.87,145.44 390.13,143.89 387.37,142.38 384.58,140.93 381.77,139.53 378.93,138.17 376.07,136.86 373.19,135.61 370.29,134.41 367.37,133.25 364.43,132.15 361.47,131.1 358.5,130.11 355.51,129.16 352.5,128.27 349.48,127.43 346.45,126.64 343.41,125.91 340.35,125.23 337.28,124.6 334.21,124.03 331.12,123.51 328.03,123.05 324.93,122.64 321.82,122.28 318.71,121.98 315.6,121.73 300,300 300,300 448.74,195.85 446.86,193.3 444.93,190.79 442.96,188.31 440.95,185.86 438.9,183.45 436.8,181.08 434.67,178.75 432.49,176.45 430.28,174.19 "
         style="fill:#4848ff;stroke:none"
         transform="matrix(0.8,0,0,-0.8,132.65804,626.70273)" /><polygon
         id="polygon3343"
         points="284.45,122.26 281.36,122.61 278.27,123.01 275.19,123.47 272.12,123.98 269.06,124.55 266.02,125.17 262.98,125.84 259.96,126.56 256.95,127.34 253.96,128.17 250.98,129.05 248.02,129.98 245.08,130.96 242.15,132 239.25,133.08 236.36,134.22 233.5,135.4 230.66,136.63 227.84,137.92 225.04,139.25 222.27,140.63 219.52,142.06 216.8,143.53 214.11,145.05 211.45,146.62 208.81,148.24 206.2,149.9 203.63,151.6 201.08,153.35 198.57,155.14 196.09,156.97 193.64,158.85 191.22,160.77 188.84,162.73 186.5,164.73 184.19,166.77 181.92,168.85 179.68,170.97 177.48,173.13 175.33,175.33 300,300 300,300 315.6,121.73 312.48,121.54 309.36,121.4 306.24,121.32 303.12,121.29 300,121.32 296.88,121.4 293.77,121.53 290.66,121.72 287.55,121.96 "
         style="fill:#4c4cff;stroke:none"
         transform="matrix(0.8,0,0,-0.8,132.65804,626.70273)" /><polygon
         id="polygon3345"
         points="156,199.17 154.31,201.73 152.66,204.32 151.06,206.93 149.5,209.57 147.99,212.24 146.53,214.93 145.11,217.64 143.75,220.38 142.43,223.15 141.16,225.93 139.94,228.74 138.77,231.56 137.65,234.4 136.57,237.27 135.55,240.15 134.58,243.04 133.67,245.95 132.8,248.88 131.98,251.82 131.22,254.77 130.5,257.74 129.84,260.72 129.24,263.7 128.68,266.7 128.18,269.7 127.73,272.71 127.33,275.73 126.98,278.76 126.69,281.78 126.45,284.82 126.27,287.85 126.13,290.89 126.05,293.93 126.03,296.96 126.05,300 126.13,303.03 126.26,306.07 126.45,309.1 126.69,312.12 126.98,315.14 300,300 300,300 175.33,175.33 173.21,177.56 171.13,179.82 169.09,182.13 167.09,184.46 165.14,186.84 163.22,189.24 161.35,191.68 159.52,194.14 157.74,196.64 "
         style="fill:#4f4fff;stroke:none"
         transform="matrix(0.8,0,0,-0.8,132.65804,626.70273)" /><polygon
         id="polygon3347"
         points="132.74,344.82 133.6,347.71 134.51,350.6 135.47,353.46 136.48,356.31 137.53,359.13 138.64,361.94 139.79,364.73 140.99,367.49 142.25,370.24 143.54,372.96 144.89,375.65 146.28,378.33 147.71,380.97 149.2,383.59 150.72,386.18 152.3,388.75 153.91,391.29 155.57,393.79 157.27,396.27 159.02,398.72 160.81,401.13 162.63,403.51 164.5,405.86 166.41,408.18 168.36,410.46 170.35,412.7 172.37,414.91 174.44,417.09 176.54,419.23 178.68,421.32 180.85,423.39 183.06,425.41 185.3,427.39 187.57,429.33 189.88,431.24 192.22,433.1 194.59,434.92 196.99,436.69 199.43,438.43 201.89,440.12 300,300 300,300 126.98,315.14 127.32,318.15 127.71,321.15 128.16,324.15 128.66,327.14 129.21,330.11 129.82,333.08 130.47,336.03 131.18,338.98 131.93,341.9 "
         style="fill:#5252ff;stroke:none"
         transform="matrix(0.8,0,0,-0.8,132.65804,626.70273)" /><polygon
         id="polygon3349"
         points="227.93,454.55 230.66,455.74 233.41,456.87 236.18,457.96 238.96,459 241.77,460 244.58,460.94 247.42,461.83 250.27,462.67 253.13,463.47 256,464.21 258.89,464.9 261.78,465.54 264.69,466.13 267.6,466.67 270.53,467.16 273.46,467.6 276.39,467.98 279.33,468.31 282.28,468.6 285.23,468.83 288.18,469.01 291.14,469.14 294.09,469.21 297.05,469.24 300,469.21 302.95,469.13 305.9,469 308.85,468.82 311.79,468.59 314.72,468.3 317.65,467.97 320.58,467.58 323.49,467.15 326.4,466.66 329.29,466.12 332.18,465.53 335.05,464.9 337.91,464.21 340.76,463.47 343.59,462.68 300,300 300,300 201.89,440.12 204.38,441.77 206.9,443.37 209.44,444.93 212.01,446.44 214.61,447.91 217.23,449.33 219.87,450.71 222.53,452.03 225.22,453.32 "
         style="fill:#5555ff;stroke:none"
         transform="matrix(0.8,0,0,-0.8,132.65804,626.70273)" /><polygon
         id="polygon3351"
         points="370.96,452.16 373.58,450.86 376.17,449.5 378.75,448.1 381.29,446.66 383.82,445.17 386.31,443.64 388.78,442.07 391.21,440.46 393.62,438.8 396,437.1 398.35,435.36 400.66,433.58 402.95,431.76 405.2,429.91 407.41,428.01 409.6,426.08 411.74,424.11 413.86,422.1 415.93,420.05 417.98,417.98 419.98,415.86 421.94,413.71 423.87,411.53 425.76,409.32 427.61,407.07 429.42,404.8 431.18,402.49 432.91,400.15 434.59,397.79 436.24,395.39 437.84,392.97 439.4,390.52 440.91,388.05 442.38,385.55 443.81,383.03 445.19,380.48 446.52,377.91 447.81,375.31 449.06,372.7 450.26,370.07 300,300 300,300 343.59,462.68 346.41,461.85 349.21,460.96 352,460.03 354.76,459.05 357.51,458.02 360.24,456.94 362.95,455.82 365.64,454.64 368.31,453.43 "
         style="fill:#5858ff;stroke:none"
         transform="matrix(0.8,0,0,-0.8,132.65804,626.70273)" /><polygon
         id="polygon3353"
         points="459.63,342.77 460.3,339.97 460.92,337.15 461.5,334.33 462.02,331.49 462.49,328.65 462.92,325.8 463.29,322.95 463.61,320.09 463.89,317.23 464.11,314.36 464.28,311.49 464.41,308.62 464.48,305.74 464.5,302.87 464.47,300 464.4,297.13 464.27,294.26 464.09,291.4 463.86,288.54 463.59,285.69 463.26,282.84 462.88,280 462.46,277.17 461.98,274.34 461.46,271.53 460.88,268.73 460.26,265.94 459.59,263.16 458.87,260.39 458.11,257.64 457.29,254.9 456.43,252.17 455.52,249.47 454.57,246.78 453.57,244.11 452.52,241.45 451.42,238.82 450.28,236.21 449.1,233.62 447.87,231.05 300,300 300,300 450.26,370.07 451.41,367.41 452.51,364.74 453.57,362.05 454.58,359.34 455.54,356.61 456.46,353.87 457.32,351.12 458.14,348.35 458.91,345.57 "
         style="fill:#5b5bff;stroke:none"
         transform="matrix(0.8,0,0,-0.8,132.65804,626.70273)" /><polygon
         id="polygon3355"
         points="433.22,206.72 431.53,204.44 429.8,202.19 428.03,199.97 426.22,197.79 424.38,195.63 422.5,193.51 420.59,191.42 418.63,189.37 416.65,187.36 414.63,185.37 412.57,183.43 410.48,181.52 408.36,179.65 406.21,177.82 404.03,176.02 401.82,174.27 399.58,172.55 397.3,170.87 395,169.24 392.68,167.64 390.32,166.09 387.94,164.58 385.54,163.11 383.11,161.68 380.66,160.3 378.18,158.96 375.68,157.66 373.16,156.41 370.62,155.2 368.06,154.04 365.48,152.92 362.89,151.85 360.27,150.82 357.64,149.84 354.99,148.91 352.33,148.02 349.65,147.18 346.96,146.39 344.26,145.64 341.55,144.94 300,300 300,300 447.87,231.05 446.6,228.5 445.28,225.98 443.92,223.48 442.52,221 441.07,218.55 439.58,216.13 438.05,213.73 436.48,211.37 434.87,209.03 "
         style="fill:#5e5eff;stroke:none"
         transform="matrix(0.8,0,0,-0.8,132.65804,626.70273)" /><polygon
         id="polygon3357"
         points="313.94,140.61 311.16,140.44 308.37,140.32 305.58,140.26 302.79,140.23 300,140.26 297.21,140.34 294.43,140.47 291.65,140.64 288.87,140.86 286.1,141.13 283.34,141.45 280.58,141.82 277.83,142.23 275.09,142.7 272.35,143.21 269.63,143.77 266.92,144.37 264.22,145.02 261.53,145.72 258.86,146.47 256.2,147.26 253.56,148.1 250.93,148.98 248.32,149.91 245.73,150.89 243.15,151.9 240.6,152.97 238.06,154.08 235.54,155.23 233.05,156.42 230.58,157.66 228.13,158.94 225.7,160.26 223.3,161.63 220.92,163.03 218.57,164.48 216.24,165.96 213.95,167.49 211.68,169.06 209.44,170.66 300,300 300,300 341.55,144.94 338.82,144.29 336.09,143.69 333.34,143.14 330.59,142.63 327.83,142.17 325.06,141.76 322.29,141.4 319.51,141.09 316.73,140.82 "
         style="fill:#6161ff;stroke:none"
         transform="matrix(0.8,0,0,-0.8,132.65804,626.70273)" /><polygon
         id="polygon3359"
         points="188.72,188.72 186.84,190.72 184.99,192.75 183.17,194.81 181.39,196.9 179.65,199.01 177.95,201.16 176.28,203.34 174.66,205.55 173.07,207.78 171.52,210.04 170.02,212.32 168.55,214.63 167.12,216.97 165.74,219.33 164.4,221.71 163.1,224.11 161.84,226.54 160.63,228.99 159.46,231.45 158.33,233.94 157.25,236.44 156.21,238.96 155.21,241.5 154.26,244.06 153.36,246.63 152.5,249.21 151.69,251.81 150.92,254.42 150.19,257.04 149.52,259.68 148.89,262.32 148.31,264.98 147.77,267.64 147.28,270.31 146.84,272.99 146.44,275.68 146.09,278.37 145.79,281.07 145.54,283.77 145.33,286.47 300,300 300,300 209.44,170.66 207.22,172.3 205.04,173.98 202.89,175.7 200.77,177.46 198.68,179.25 196.62,181.07 194.59,182.94 192.6,184.83 190.65,186.76 "
         style="fill:#6565ff;stroke:none"
         transform="matrix(0.8,0,0,-0.8,132.65804,626.70273)" /><polygon
         id="polygon3361"
         points="145.85,313.49 146.16,316.17 146.52,318.84 146.93,321.51 147.38,324.17 147.87,326.82 148.42,329.46 149,332.09 149.64,334.71 150.32,337.32 151.04,339.91 151.81,342.49 152.63,345.06 153.49,347.6 154.39,350.14 155.34,352.65 156.33,355.15 157.36,357.63 158.44,360.09 159.55,362.53 160.71,364.95 161.92,367.35 163.16,369.72 164.44,372.08 165.77,374.41 167.13,376.71 168.54,378.99 169.98,381.24 171.46,383.47 172.98,385.67 174.54,387.85 176.14,389.99 177.77,392.11 179.43,394.2 181.14,396.25 182.88,398.28 184.65,400.27 186.46,402.24 188.3,404.17 190.17,406.06 192.07,407.93 300,300 300,300 145.33,286.47 145.17,289.17 145.05,291.88 144.99,294.59 144.97,297.29 145,300 145.08,302.7 145.2,305.41 145.37,308.1 145.59,310.8 "
         style="fill:#6868ff;stroke:none"
         transform="matrix(0.8,0,0,-0.8,132.65804,626.70273)" /><polygon
         id="polygon3363"
         points="212.76,424.6 214.97,426.06 217.21,427.48 219.48,428.86 221.77,430.2 224.08,431.5 226.41,432.76 228.76,433.98 231.14,435.15 233.53,436.29 235.94,437.38 238.37,438.43 240.81,439.43 243.28,440.4 245.75,441.31 248.25,442.19 250.75,443.02 253.27,443.81 255.81,444.55 258.35,445.25 260.9,445.91 263.47,446.51 266.04,447.08 268.63,447.6 271.22,448.07 273.82,448.5 276.42,448.88 279.03,449.22 281.64,449.51 284.26,449.75 286.88,449.95 289.5,450.11 292.13,450.21 294.75,450.28 297.38,450.29 300,450.26 302.62,450.19 305.24,450.07 307.86,449.9 310.47,449.69 313.07,449.43 300,300 300,300 192.07,407.93 194.01,409.76 195.98,411.55 197.98,413.31 200,415.03 202.06,416.72 204.14,418.37 206.26,419.99 208.4,421.56 210.56,423.1 "
         style="fill:#6b6bff;stroke:none"
         transform="matrix(0.8,0,0,-0.8,132.65804,626.70273)" /><polygon
         id="polygon3365"
         points="338.69,444.38 341.19,443.63 343.67,442.84 346.14,442.01 348.6,441.13 351.03,440.21 353.45,439.25 355.86,438.25 358.24,437.2 360.6,436.12 362.95,434.99 365.27,433.83 367.57,432.62 369.85,431.37 372.11,430.09 374.34,428.76 376.55,427.4 378.73,426 380.89,424.56 383.03,423.09 385.13,421.58 387.21,420.03 389.26,418.45 391.28,416.83 393.27,415.18 395.23,413.5 397.17,411.78 399.07,410.02 400.94,408.24 402.77,406.42 404.58,404.58 406.35,402.7 408.09,400.79 409.79,398.86 411.46,396.89 413.09,394.9 414.69,392.87 416.25,390.83 417.78,388.75 419.27,386.65 420.72,384.53 300,300 300,300 313.07,449.43 315.67,449.13 318.27,448.78 320.85,448.38 323.43,447.95 326,447.46 328.56,446.93 331.11,446.36 333.65,445.75 336.17,445.08 "
         style="fill:#6e6eff;stroke:none"
         transform="matrix(0.8,0,0,-0.8,132.65804,626.70273)" /><polygon
         id="polygon3367"
         points="433.08,362.06 434.1,359.7 435.07,357.33 436,354.95 436.89,352.55 437.74,350.13 438.54,347.7 439.3,345.26 440.02,342.81 440.7,340.34 441.33,337.87 441.92,335.38 442.46,332.89 442.96,330.39 443.42,327.88 443.83,325.36 444.2,322.84 444.53,320.31 444.81,317.78 445.04,315.24 445.23,312.71 445.38,310.17 445.48,307.62 445.54,305.08 445.56,302.54 445.53,300 445.45,297.46 445.33,294.92 445.17,292.39 444.96,289.86 444.71,287.34 444.42,284.82 444.08,282.31 443.69,279.81 443.27,277.31 442.8,274.82 442.28,272.34 441.73,269.87 441.13,267.42 440.49,264.97 439.81,262.54 300,300 300,300 420.72,384.53 422.13,382.38 423.51,380.21 424.84,378.01 426.14,375.79 427.4,373.55 428.62,371.29 429.79,369.01 430.93,366.71 432.03,364.39 "
         style="fill:#7171ff;stroke:none"
         transform="matrix(0.8,0,0,-0.8,132.65804,626.70273)" /><polygon
         id="polygon3369"
         points="430.7,239.05 429.57,236.81 428.4,234.58 427.19,232.37 425.95,230.19 424.66,228.03 423.34,225.89 421.99,223.78 420.59,221.69 419.16,219.62 417.7,217.59 416.2,215.58 414.67,213.59 413.1,211.64 411.5,209.71 409.87,207.81 408.2,205.94 406.5,204.1 404.78,202.29 403.02,200.52 401.23,198.77 399.41,197.06 397.56,195.38 395.69,193.73 393.78,192.12 391.85,190.54 389.89,188.99 387.91,187.48 385.9,186.01 383.87,184.57 381.81,183.16 379.73,181.8 377.63,180.47 375.5,179.18 373.35,177.92 371.18,176.71 369,175.53 366.79,174.39 364.56,173.29 362.32,172.23 360.06,171.21 300,300 300,300 439.81,262.54 439.08,260.12 438.31,257.71 437.5,255.32 436.65,252.95 435.76,250.59 434.83,248.24 433.86,245.92 432.84,243.61 431.79,241.32 "
         style="fill:#7474ff;stroke:none"
         transform="matrix(0.8,0,0,-0.8,132.65804,626.70273)" /><polygon
         id="polygon3371"
         points="336.64,163.25 334.24,162.68 331.82,162.15 329.4,161.67 326.97,161.23 324.54,160.83 322.1,160.48 319.65,160.16 317.2,159.89 314.75,159.67 312.29,159.48 309.84,159.34 307.38,159.25 304.92,159.19 302.46,159.18 300,159.21 297.54,159.28 295.09,159.4 292.64,159.56 290.19,159.76 287.75,160.01 285.32,160.3 282.89,160.63 280.46,161 278.05,161.41 275.64,161.87 273.25,162.37 270.86,162.9 268.48,163.49 266.12,164.11 263.77,164.77 261.43,165.47 259.1,166.22 256.79,167 254.49,167.83 252.21,168.69 249.94,169.59 247.69,170.54 245.46,171.52 243.25,172.54 241.06,173.59 300,300 300,300 360.06,171.21 357.78,170.23 355.48,169.29 353.17,168.39 350.85,167.53 348.51,166.71 346.16,165.94 343.8,165.2 341.42,164.51 339.04,163.85 "
         style="fill:#7777ff;stroke:none"
         transform="matrix(0.8,0,0,-0.8,132.65804,626.70273)" /><polygon
         id="polygon3373"
         points="220.3,186.18 218.36,187.63 216.44,189.12 214.55,190.63 212.69,192.18 210.86,193.76 209.05,195.37 207.27,197.02 205.53,198.69 203.81,200.39 202.12,202.12 200.47,203.88 198.84,205.67 197.25,207.48 195.69,209.33 194.16,211.19 192.67,213.09 191.21,215.01 189.79,216.95 188.4,218.92 187.04,220.91 185.72,222.92 184.44,224.95 183.19,227.01 181.98,229.09 180.81,231.18 179.67,233.3 178.57,235.44 177.51,237.59 176.49,239.76 175.5,241.95 174.56,244.15 173.65,246.37 172.78,248.6 171.95,250.85 171.16,253.11 170.41,255.38 169.71,257.66 169.04,259.96 168.41,262.27 167.82,264.58 300,300 300,300 241.06,173.59 238.88,174.69 236.73,175.82 234.6,176.99 232.48,178.2 230.39,179.44 228.33,180.72 226.29,182.03 224.27,183.38 222.27,184.76 "
         style="fill:#7b7bff;stroke:none"
         transform="matrix(0.8,0,0,-0.8,132.65804,626.70273)" /><polygon
         id="polygon3375"
         points="164.2,288.12 164.07,290.49 163.98,292.87 163.93,295.25 163.92,297.62 163.95,300 164.02,302.37 164.14,304.74 164.29,307.11 164.49,309.48 164.73,311.83 165.01,314.19 165.33,316.54 165.69,318.88 166.09,321.21 166.53,323.53 167.02,325.85 167.54,328.16 168.1,330.45 168.7,332.74 169.35,335.01 170.03,337.27 170.75,339.52 171.51,341.75 172.31,343.97 173.14,346.17 174.02,348.36 174.93,350.53 175.88,352.69 176.86,354.82 177.89,356.94 178.95,359.04 180.04,361.12 181.17,363.18 182.34,365.22 183.54,367.24 184.78,369.23 186.05,371.2 187.35,373.15 188.69,375.08 190.06,376.98 300,300 300,300 167.82,264.58 167.27,266.91 166.77,269.24 166.3,271.58 165.88,273.93 165.5,276.28 165.15,278.64 164.85,281.01 164.6,283.37 164.38,285.75 "
         style="fill:#7e7eff;stroke:none"
         transform="matrix(0.8,0,0,-0.8,132.65804,626.70273)" /><polygon
         id="polygon3377"
         points="205.47,394.53 207.17,396.13 208.9,397.69 210.65,399.23 212.43,400.73 214.24,402.21 216.07,403.65 217.92,405.05 219.8,406.43 221.7,407.77 223.62,409.08 225.57,410.35 227.53,411.59 229.52,412.79 231.53,413.96 233.55,415.09 235.6,416.19 237.66,417.25 239.74,418.27 241.84,419.26 243.95,420.21 246.08,421.12 248.22,421.99 250.37,422.83 252.54,423.63 254.73,424.39 256.92,425.11 259.13,425.79 261.35,426.43 263.57,427.04 265.81,427.6 268.05,428.13 270.31,428.62 272.57,429.06 274.83,429.47 277.11,429.84 279.38,430.17 281.67,430.45 283.95,430.7 286.24,430.91 288.53,431.08 300,300 300,300 190.06,376.98 191.46,378.86 192.9,380.71 194.37,382.53 195.86,384.33 197.39,386.1 198.95,387.84 200.54,389.56 202.15,391.24 203.8,392.9 "
         style="fill:#8181ff;stroke:none"
         transform="matrix(0.8,0,0,-0.8,132.65804,626.70273)" /><polygon
         id="polygon3379"
         points="311.42,430.55 313.69,430.28 315.96,429.97 318.22,429.62 320.47,429.23 322.71,428.8 324.95,428.33 327.17,427.83 329.39,427.28 331.59,426.7 333.78,426.08 335.96,425.42 338.13,424.72 340.29,423.99 342.43,423.22 344.55,422.41 346.66,421.56 348.76,420.68 350.84,419.76 352.9,418.81 354.94,417.82 356.97,416.8 358.97,415.74 360.96,414.64 362.92,413.52 364.87,412.36 366.79,411.16 368.69,409.93 370.57,408.67 372.43,407.38 374.26,406.06 376.07,404.7 377.86,403.32 379.61,401.9 381.35,400.46 383.05,398.98 384.74,397.48 386.39,395.94 388.01,394.38 389.61,392.79 391.18,391.18 300,300 300,300 288.53,431.08 290.83,431.21 293.12,431.29 295.41,431.34 297.71,431.35 300,431.32 302.29,431.24 304.58,431.13 306.86,430.98 309.15,430.79 "
         style="fill:#8484ff;stroke:none"
         transform="matrix(0.8,0,0,-0.8,132.65804,626.70273)" /><polygon
         id="polygon3381"
         points="405.2,373.66 406.42,371.78 407.61,369.89 408.77,367.97 409.9,366.03 410.99,364.08 412.04,362.11 413.06,360.12 414.05,358.11 415,356.09 415.91,354.05 416.79,352 417.63,349.93 418.44,347.85 419.2,345.76 419.93,343.65 420.63,341.54 421.28,339.41 421.9,337.27 422.48,335.12 423.03,332.97 423.53,330.8 424,328.63 424.43,326.45 424.82,324.26 425.17,322.07 425.49,319.88 425.76,317.67 426,315.47 426.2,313.26 426.36,311.06 426.48,308.84 426.56,306.63 426.61,304.42 426.61,302.21 426.58,300 426.51,297.79 426.4,295.59 426.25,293.38 426.06,291.18 425.84,288.99 300,300 300,300 391.18,391.18 392.72,389.54 394.23,387.87 395.71,386.18 397.16,384.46 398.58,382.72 399.97,380.95 401.32,379.16 402.65,377.35 403.94,375.51 "
         style="fill:#8787ff;stroke:none"
         transform="matrix(0.8,0,0,-0.8,132.65804,626.70273)" /><polygon
         id="polygon3383"
         points="421.5,267.44 420.87,265.34 420.19,263.25 419.48,261.18 418.74,259.12 417.96,257.07 417.14,255.03 416.29,253.02 415.4,251.01 414.48,249.03 413.53,247.06 412.54,245.11 411.52,243.18 410.46,241.27 409.37,239.37 408.25,237.5 407.1,235.65 405.92,233.82 404.7,232.01 403.46,230.22 402.18,228.45 400.87,226.71 399.54,224.99 398.17,223.3 396.78,221.63 395.35,219.99 393.9,218.37 392.42,216.78 390.92,215.22 389.39,213.68 387.83,212.17 386.25,210.69 384.64,209.24 383.01,207.81 381.35,206.42 379.67,205.05 377.97,203.72 376.24,202.41 374.5,201.14 372.73,199.89 370.94,198.68 300,300 300,300 425.84,288.99 425.57,286.8 425.27,284.62 424.93,282.44 424.55,280.27 424.14,278.11 423.69,275.96 423.2,273.81 422.67,271.68 422.1,269.56 "
         style="fill:#8a8aff;stroke:none"
         transform="matrix(0.8,0,0,-0.8,132.65804,626.70273)" /><polygon
         id="polygon3385"
         points="352.05,188.38 350.07,187.54 348.08,186.73 346.08,185.96 344.06,185.22 342.03,184.52 339.99,183.85 337.94,183.22 335.88,182.63 333.82,182.07 331.74,181.55 329.65,181.06 327.56,180.61 325.46,180.2 323.36,179.83 321.25,179.49 319.13,179.19 317.02,178.93 314.89,178.7 312.77,178.51 310.64,178.36 308.51,178.24 306.38,178.17 304.26,178.13 302.13,178.12 300,178.16 297.87,178.23 295.75,178.34 293.63,178.48 291.52,178.66 289.4,178.88 287.3,179.14 285.2,179.43 283.1,179.76 281.01,180.13 278.93,180.53 276.86,180.96 274.8,181.44 272.75,181.95 270.7,182.49 268.67,183.07 300,300 300,300 370.94,198.68 369.13,197.5 367.31,196.36 365.46,195.24 363.59,194.16 361.71,193.11 359.81,192.1 357.89,191.12 355.96,190.17 354.01,189.26 "
         style="fill:#8d8dff;stroke:none"
         transform="matrix(0.8,0,0,-0.8,132.65804,626.70273)" /><polygon
         id="polygon3387"
         points="249.06,190.77 247.19,191.72 245.33,192.7 243.49,193.72 241.67,194.77 239.87,195.85 238.09,196.96 236.33,198.1 234.59,199.27 232.87,200.47 231.17,201.7 229.5,202.96 227.85,204.25 226.22,205.56 224.61,206.91 223.03,208.28 221.48,209.67 219.95,211.1 218.45,212.55 216.97,214.02 215.52,215.52 214.1,217.04 212.7,218.59 211.33,220.16 209.99,221.76 208.68,223.37 207.4,225.01 206.14,226.67 204.92,228.35 203.73,230.05 202.56,231.77 201.43,233.51 200.33,235.27 199.26,237.05 198.22,238.85 197.22,240.66 196.24,242.49 195.3,244.33 194.39,246.19 193.52,248.06 192.67,249.95 300,300 300,300 268.67,183.07 266.65,183.69 264.64,184.34 262.64,185.02 260.66,185.74 258.69,186.5 256.73,187.28 254.79,188.1 252.87,188.96 250.96,189.85 "
         style="fill:#9090ff;stroke:none"
         transform="matrix(0.8,0,0,-0.8,132.65804,626.70273)" /><polygon
         id="polygon3389"
         points="186.12,269.49 185.66,271.49 185.23,273.5 184.84,275.52 184.48,277.54 184.16,279.57 183.87,281.61 183.62,283.64 183.4,285.68 183.22,287.73 183.08,289.77 182.97,291.82 182.9,293.86 182.86,295.91 182.86,297.96 182.89,300 182.97,302.04 183.07,304.08 183.21,306.12 183.39,308.15 183.6,310.18 183.85,312.21 184.13,314.23 184.45,316.24 184.8,318.25 185.19,320.24 185.61,322.23 186.07,324.22 186.56,326.19 187.09,328.15 187.65,330.1 188.24,332.05 188.87,333.98 189.53,335.89 190.22,337.8 190.95,339.69 191.7,341.57 192.5,343.43 193.32,345.28 194.17,347.12 195.06,348.93 300,300 300,300 192.67,249.95 191.87,251.86 191.09,253.77 190.35,255.7 189.64,257.64 188.97,259.59 188.33,261.55 187.73,263.52 187.16,265.5 186.62,267.49 "
         style="fill:#9494ff;stroke:none"
         transform="matrix(0.8,0,0,-0.8,132.65804,626.70273)" /><polygon
         id="polygon3391"
         points="205.58,366.11 206.79,367.72 208.03,369.3 209.3,370.87 210.59,372.4 211.9,373.92 213.25,375.41 214.62,376.88 216.01,378.32 217.43,379.74 218.87,381.13 220.33,382.5 221.82,383.84 223.33,385.15 224.86,386.43 226.42,387.69 227.99,388.92 229.59,390.12 231.2,391.3 232.84,392.44 234.49,393.56 236.16,394.64 237.85,395.7 239.56,396.72 241.29,397.72 243.03,398.68 244.78,399.61 246.55,400.52 248.34,401.39 250.14,402.23 251.95,403.03 253.78,403.81 255.62,404.55 257.47,405.26 259.33,405.94 261.21,406.58 263.09,407.19 264.98,407.77 266.89,408.31 268.79,408.82 270.71,409.3 300,300 300,300 195.06,348.93 195.98,350.74 196.92,352.52 197.9,354.29 198.91,356.03 199.95,357.76 201.02,359.47 202.12,361.16 203.24,362.83 204.4,364.48 "
         style="fill:#9797ff;stroke:none"
         transform="matrix(0.8,0,0,-0.8,132.65804,626.70273)" /><polygon
         id="polygon3393"
         points="290.18,412.2 292.15,412.3 294.11,412.37 296.07,412.41 298.04,412.4 300,412.37 301.96,412.3 303.92,412.19 305.87,412.06 307.82,411.88 309.77,411.68 311.71,411.44 313.65,411.17 315.58,410.86 317.5,410.52 319.42,410.14 321.33,409.74 323.23,409.3 325.12,408.82 327.01,408.32 328.88,407.78 330.74,407.21 332.59,406.6 334.43,405.97 336.26,405.3 338.07,404.6 339.87,403.87 341.66,403.11 343.43,402.32 345.19,401.5 346.93,400.65 348.66,399.77 350.37,398.85 352.06,397.91 353.74,396.94 355.39,395.95 357.03,394.92 358.65,393.87 360.25,392.78 361.83,391.67 363.4,390.54 300,300 300,300 270.71,409.3 272.64,409.75 274.57,410.16 276.51,410.53 278.45,410.87 280.4,411.18 282.35,411.45 284.3,411.69 286.26,411.9 288.22,412.07 "
         style="fill:#9a9aff;stroke:none"
         transform="matrix(0.8,0,0,-0.8,132.65804,626.70273)" /><polygon
         id="polygon3395"
         points="377.78,377.78 379.09,376.38 380.37,374.95 381.63,373.5 382.86,372.03 384.06,370.54 385.24,369.03 386.39,367.5 387.51,365.95 388.61,364.38 389.68,362.79 390.71,361.19 391.72,359.57 392.71,357.93 393.66,356.27 394.58,354.61 395.47,352.92 396.33,351.22 397.17,349.51 397.97,347.78 398.74,346.04 399.48,344.29 400.19,342.53 400.87,340.75 401.51,338.97 402.13,337.17 402.71,335.37 403.26,333.55 403.78,331.73 404.27,329.9 404.73,328.06 405.15,326.22 405.54,324.37 405.9,322.51 406.22,320.65 406.51,318.78 406.77,316.91 407,315.04 407.19,313.16 407.36,311.28 407.48,309.4 300,300 300,300 363.4,390.54 364.93,389.38 366.45,388.19 367.95,386.97 369.42,385.73 370.88,384.47 372.3,383.18 373.71,381.86 375.09,380.53 376.45,379.17 "
         style="fill:#9d9dff;stroke:none"
         transform="matrix(0.8,0,0,-0.8,132.65804,626.70273)" /><polygon
         id="polygon3397"
         points="406.96,290.64 406.73,288.78 406.46,286.93 406.17,285.08 405.84,283.24 405.48,281.4 405.09,279.57 404.66,277.75 404.21,275.94 403.72,274.14 403.2,272.35 402.65,270.56 402.07,268.79 401.46,267.03 400.82,265.28 400.15,263.55 399.45,261.82 398.72,260.11 397.96,258.42 397.17,256.74 396.35,255.07 395.51,253.42 394.63,251.78 393.73,250.16 392.8,248.56 391.84,246.97 390.86,245.41 389.85,243.86 388.81,242.33 387.75,240.81 386.66,239.32 385.54,237.85 384.4,236.4 383.24,234.97 382.05,233.56 380.84,232.17 379.6,230.8 378.34,229.46 377.06,228.14 375.76,226.84 374.43,225.57 300,300 300,300 407.48,309.4 407.58,307.52 407.64,305.64 407.67,303.76 407.67,301.88 407.63,300 407.56,298.12 407.46,296.25 407.33,294.38 407.16,292.51 "
         style="fill:#a0a0ff;stroke:none"
         transform="matrix(0.8,0,0,-0.8,132.65804,626.70273)" /><polygon
         id="polygon3399"
         points="360.07,214.2 358.54,213.21 356.99,212.25 355.42,211.31 353.84,210.4 352.24,209.52 350.62,208.67 349,207.85 347.36,207.05 345.71,206.29 344.04,205.55 342.36,204.85 340.68,204.17 338.98,203.52 337.27,202.91 335.55,202.32 333.82,201.77 332.09,201.24 330.35,200.75 328.59,200.28 326.84,199.85 325.07,199.45 323.3,199.08 321.52,198.74 319.74,198.43 317.96,198.15 316.17,197.9 314.38,197.69 312.58,197.51 310.79,197.35 308.99,197.23 307.19,197.15 305.39,197.09 303.59,197.06 301.8,197.07 300,197.11 298.21,197.17 296.41,197.27 294.62,197.4 292.84,197.57 291.06,197.76 300,300 300,300 374.43,225.57 373.09,224.32 371.72,223.09 370.33,221.89 368.92,220.72 367.49,219.57 366.05,218.44 364.58,217.34 363.1,216.27 361.59,215.22 "
         style="fill:#a3a3ff;stroke:none"
         transform="matrix(0.8,0,0,-0.8,132.65804,626.70273)" /><polygon
         id="polygon3401"
         points="273.57,201.37 271.87,201.9 270.18,202.46 268.5,203.04 266.83,203.66 265.17,204.3 263.52,204.97 261.89,205.67 260.27,206.4 258.66,207.15 257.07,207.94 255.49,208.75 253.93,209.59 252.39,210.45 250.86,211.34 249.34,212.26 247.85,213.2 246.37,214.17 244.91,215.16 243.46,216.18 242.04,217.22 240.63,218.29 239.25,219.38 237.88,220.49 236.54,221.63 235.21,222.79 233.91,223.97 232.63,225.18 231.37,226.4 230.13,227.65 228.92,228.92 227.73,230.21 226.56,231.51 225.41,232.84 224.29,234.19 223.19,235.55 222.12,236.94 221.07,238.34 220.05,239.76 219.06,241.19 218.08,242.64 300,300 300,300 291.06,197.76 289.28,197.98 287.51,198.24 285.74,198.52 283.98,198.84 282.22,199.19 280.48,199.56 278.74,199.97 277.01,200.41 275.29,200.88 "
         style="fill:#a6a6ff;stroke:none"
         transform="matrix(0.8,0,0,-0.8,132.65804,626.70273)" /><polygon
         id="polygon3403"
         points="209.85,257.96 209.17,259.56 208.53,261.17 207.92,262.8 207.33,264.43 206.77,266.07 206.24,267.72 205.75,269.37 205.28,271.04 204.84,272.71 204.42,274.39 204.04,276.08 203.69,277.77 203.37,279.46 203.08,281.16 202.82,282.86 202.58,284.57 202.38,286.28 202.21,287.99 202.07,289.71 201.95,291.42 201.87,293.14 201.82,294.85 201.8,296.57 201.8,298.29 201.84,300 201.91,301.71 202.01,303.42 202.13,305.13 202.29,306.83 202.48,308.53 202.69,310.23 202.94,311.92 203.21,313.6 203.52,315.28 203.85,316.95 204.21,318.62 204.6,320.28 205.02,321.93 205.47,323.57 205.95,325.2 300,300 300,300 218.08,242.64 217.14,244.11 216.22,245.59 215.33,247.09 214.46,248.6 213.63,250.13 212.81,251.67 212.03,253.23 211.27,254.79 210.55,256.37 "
         style="fill:#aaaaff;stroke:none"
         transform="matrix(0.8,0,0,-0.8,132.65804,626.70273)" /><polygon
         id="polygon3405"
         points="212.23,340.93 213.01,342.43 213.81,343.92 214.63,345.39 215.48,346.85 216.36,348.29 217.26,349.71 218.19,351.12 219.13,352.51 220.11,353.89 221.1,355.24 222.12,356.58 223.16,357.9 224.23,359.2 225.31,360.48 226.42,361.74 227.55,362.98 228.7,364.2 229.87,365.4 231.06,366.58 232.27,367.73 233.5,368.87 234.74,369.98 236.01,371.07 237.29,372.13 238.6,373.18 239.92,374.2 241.25,375.19 242.61,376.16 243.97,377.11 245.36,378.04 246.76,378.93 248.17,379.81 249.6,380.65 251.04,381.48 252.5,382.27 253.97,383.04 255.45,383.79 256.94,384.5 258.45,385.2 259.96,385.86 300,300 300,300 205.95,325.2 206.45,326.82 206.99,328.44 207.55,330.04 208.14,331.63 208.75,333.21 209.39,334.78 210.06,336.34 210.76,337.88 211.48,339.41 "
         style="fill:#adadff;stroke:none"
         transform="matrix(0.8,0,0,-0.8,132.65804,626.70273)" /><polygon
         id="polygon3407"
         points="275.62,391 277.22,391.36 278.83,391.69 280.45,392 282.06,392.27 283.69,392.52 285.31,392.74 286.94,392.93 288.57,393.09 290.2,393.22 291.83,393.33 293.47,393.4 295.1,393.45 296.74,393.47 298.37,393.46 300,393.42 301.63,393.35 303.26,393.26 304.88,393.14 306.5,392.98 308.12,392.8 309.73,392.6 311.34,392.36 312.94,392.09 314.54,391.8 316.13,391.48 317.72,391.14 319.29,390.76 320.86,390.36 322.42,389.93 323.97,389.48 325.52,388.99 327.05,388.48 328.58,387.95 330.09,387.39 331.59,386.8 333.08,386.18 334.56,385.54 336.03,384.88 337.48,384.19 338.93,383.48 300,300 300,300 259.96,385.86 261.49,386.5 263.02,387.11 264.57,387.69 266.12,388.25 267.69,388.78 269.26,389.28 270.84,389.75 272.42,390.19 274.02,390.61 "
         style="fill:#b0b0ff;stroke:none"
         transform="matrix(0.8,0,0,-0.8,132.65804,626.70273)" /><polygon
         id="polygon3409"
         points="352.53,375.02 353.8,374.05 355.05,373.05 356.28,372.04 357.5,371.01 358.7,369.95 359.87,368.88 361.03,367.78 362.17,366.67 363.29,365.54 364.38,364.38 365.46,363.21 366.51,362.03 367.55,360.82 368.56,359.6 369.55,358.36 370.52,357.1 371.46,355.83 372.38,354.54 373.28,353.24 374.15,351.92 375.01,350.59 375.83,349.25 376.64,347.89 377.42,346.52 378.17,345.13 378.9,343.73 379.6,342.33 380.28,340.91 380.94,339.48 381.57,338.04 382.17,336.58 382.75,335.12 383.3,333.66 383.83,332.18 384.33,330.69 384.8,329.2 385.24,327.7 385.66,326.19 386.06,324.68 386.42,323.16 300,300 300,300 338.93,383.48 340.35,382.74 341.77,381.97 343.17,381.18 344.55,380.37 345.92,379.54 347.28,378.68 348.61,377.8 349.93,376.89 351.24,375.97 "
         style="fill:#b3b3ff;stroke:none"
         transform="matrix(0.8,0,0,-0.8,132.65804,626.70273)" /><polygon
         id="polygon3411"
         points="388.61,307.75 388.68,306.2 388.72,304.65 388.74,303.1 388.72,301.55 388.68,300 388.62,298.45 388.52,296.91 388.4,295.37 388.26,293.83 388.08,292.29 387.88,290.76 387.66,289.24 387.4,287.72 387.12,286.2 386.82,284.69 386.49,283.19 386.13,281.69 385.74,280.2 385.33,278.72 384.9,277.25 384.44,275.79 383.95,274.33 383.44,272.89 382.91,271.45 382.35,270.03 381.76,268.61 381.15,267.21 380.52,265.82 379.86,264.44 379.18,263.08 378.48,261.72 377.75,260.38 377,259.06 376.23,257.75 375.44,256.45 374.62,255.16 373.78,253.9 372.92,252.65 372.04,251.41 371.14,250.19 300,300 300,300 386.42,323.16 386.76,321.63 387.08,320.1 387.36,318.57 387.62,317.03 387.86,315.49 388.06,313.95 388.24,312.4 388.39,310.85 388.51,309.3 "
         style="fill:#b6b6ff;stroke:none"
         transform="matrix(0.8,0,0,-0.8,132.65804,626.70273)" /><polygon
         id="polygon3413"
         points="361.03,238.97 359.92,237.95 358.8,236.95 357.65,235.97 356.49,235.02 355.31,234.08 354.12,233.17 352.91,232.27 351.69,231.4 350.46,230.55 349.21,229.73 347.94,228.92 346.67,228.14 345.38,227.38 344.08,226.64 342.76,225.93 341.44,225.24 340.1,224.58 338.76,223.94 337.4,223.32 336.03,222.73 334.66,222.16 333.27,221.61 331.88,221.09 330.48,220.6 329.07,220.13 327.66,219.68 326.23,219.26 324.81,218.87 323.37,218.5 321.93,218.15 320.49,217.83 319.04,217.54 317.58,217.27 316.13,217.03 314.67,216.81 313.21,216.62 311.74,216.45 310.28,216.31 308.81,216.2 307.34,216.11 300,300 300,300 371.14,250.19 370.21,248.99 369.27,247.8 368.31,246.63 367.33,245.48 366.32,244.35 365.3,243.23 364.26,242.14 363.2,241.06 362.13,240 "
         style="fill:#b9b9ff;stroke:none"
         transform="matrix(0.8,0,0,-0.8,132.65804,626.70273)" /><polygon
         id="polygon3415"
         points="292.71,216.63 291.26,216.83 289.81,217.04 288.38,217.29 286.94,217.55 285.51,217.85 284.09,218.16 282.68,218.5 281.27,218.87 279.87,219.26 278.48,219.68 277.09,220.11 275.72,220.58 274.35,221.06 272.99,221.57 271.65,222.1 270.31,222.66 268.99,223.24 267.67,223.84 266.37,224.46 265.08,225.11 263.8,225.78 262.53,226.47 261.28,227.18 260.04,227.91 258.82,228.67 257.6,229.44 256.41,230.24 255.22,231.05 254.06,231.89 252.91,232.74 251.77,233.62 250.65,234.51 249.55,235.42 248.46,236.36 247.39,237.31 246.34,238.27 245.31,239.26 244.29,240.26 243.29,241.28 242.31,242.31 300,300 300,300 307.34,216.11 305.87,216.05 304.4,216.01 302.93,216 301.47,216.01 300,216.05 298.54,216.12 297.07,216.21 295.61,216.33 294.16,216.47 "
         style="fill:#bcbcff;stroke:none"
         transform="matrix(0.8,0,0,-0.8,132.65804,626.70273)" /><polygon
         id="polygon3417"
         points="233.61,253.51 232.85,254.71 232.11,255.91 231.4,257.13 230.7,258.36 230.03,259.61 229.39,260.86 228.76,262.12 228.16,263.39 227.58,264.68 227.02,265.97 226.48,267.27 225.97,268.58 225.48,269.89 225.02,271.22 224.58,272.55 224.16,273.89 223.77,275.23 223.39,276.58 223.05,277.93 222.73,279.29 222.43,280.66 222.15,282.03 221.9,283.4 221.68,284.78 221.47,286.15 221.3,287.53 221.14,288.92 221.01,290.3 220.91,291.69 220.83,293.07 220.77,294.46 220.74,295.85 220.73,297.23 220.75,298.62 220.79,300 220.85,301.38 220.94,302.76 221.06,304.14 221.19,305.51 221.35,306.88 300,300 300,300 242.31,242.31 241.35,243.37 240.41,244.44 239.49,245.52 238.59,246.62 237.71,247.73 236.85,248.86 236.01,250 235.18,251.16 234.38,252.33 "
         style="fill:#bfbfff;stroke:none"
         transform="matrix(0.8,0,0,-0.8,132.65804,626.70273)" /><polygon
         id="polygon3419"
         points="224.25,320.3 224.67,321.6 225.11,322.9 225.57,324.18 226.05,325.46 226.56,326.73 227.08,327.99 227.63,329.24 228.2,330.48 228.79,331.7 229.4,332.92 230.04,334.12 230.69,335.32 231.36,336.5 232.06,337.66 232.77,338.82 233.5,339.96 234.25,341.08 235.03,342.2 235.82,343.29 236.62,344.38 237.45,345.45 238.29,346.5 239.16,347.54 240.04,348.56 240.93,349.56 241.85,350.55 242.78,351.52 243.72,352.48 244.69,353.42 245.66,354.34 246.66,355.24 247.67,356.12 248.69,356.99 249.73,357.83 250.78,358.66 251.84,359.47 252.92,360.26 254.01,361.03 255.11,361.78 256.23,362.51 300,300 300,300 221.35,306.88 221.54,308.25 221.75,309.61 221.98,310.97 222.23,312.32 222.51,313.66 222.81,315 223.14,316.34 223.49,317.66 223.86,318.98 "
         style="fill:#c3c3ff;stroke:none"
         transform="matrix(0.8,0,0,-0.8,132.65804,626.70273)" /><polygon
         id="polygon3421"
         points="267.97,368.69 269.2,369.19 270.43,369.67 271.67,370.12 272.91,370.56 274.17,370.97 275.43,371.36 276.69,371.73 277.96,372.08 279.24,372.4 280.52,372.7 281.8,372.98 283.09,373.23 284.38,373.46 285.68,373.67 286.98,373.86 288.28,374.02 289.58,374.17 290.88,374.28 292.18,374.38 293.49,374.45 294.79,374.5 296.09,374.53 297.4,374.53 298.7,374.51 300,374.47 301.3,374.41 302.6,374.32 303.89,374.21 305.18,374.08 306.47,373.93 307.75,373.75 309.03,373.55 310.31,373.33 311.58,373.09 312.84,372.82 314.1,372.54 315.35,372.23 316.6,371.9 317.84,371.55 319.07,371.17 300,300 300,300 256.23,362.51 257.35,363.23 258.49,363.92 259.64,364.59 260.8,365.23 261.97,365.86 263.15,366.47 264.34,367.06 265.54,367.62 266.75,368.17 "
         style="fill:#c6c6ff;stroke:none"
         transform="matrix(0.8,0,0,-0.8,132.65804,626.70273)" /><polygon
         id="polygon3423"
         points="330.92,366.3 332.05,365.71 333.17,365.09 334.27,364.46 335.37,363.8 336.45,363.13 337.52,362.44 338.57,361.73 339.62,361 340.64,360.26 341.66,359.5 342.66,358.72 343.65,357.92 344.62,357.11 345.58,356.28 346.52,355.44 347.44,354.58 348.35,353.7 349.25,352.81 350.13,351.91 350.99,350.99 351.83,350.05 352.66,349.1 353.47,348.14 354.26,347.17 355.03,346.18 355.79,345.18 356.53,344.17 357.25,343.14 357.95,342.1 358.63,341.06 359.3,340 359.94,338.93 360.57,337.85 361.17,336.76 361.76,335.66 362.33,334.55 362.88,333.43 363.4,332.31 363.91,331.17 364.4,330.03 300,300 300,300 319.07,371.17 320.3,370.78 321.51,370.36 322.72,369.93 323.92,369.47 325.11,368.99 326.29,368.5 327.46,367.98 328.63,367.44 329.78,366.88 "
         style="fill:#c9c9ff;stroke:none"
         transform="matrix(0.8,0,0,-0.8,132.65804,626.70273)" /><polygon
         id="polygon3425"
         points="368.12,318.25 368.38,317.05 368.62,315.84 368.83,314.63 369.02,313.42 369.2,312.2 369.35,310.98 369.48,309.76 369.58,308.54 369.67,307.32 369.73,306.1 369.78,304.88 369.8,303.66 369.8,302.44 369.78,301.22 369.74,300 369.67,298.78 369.59,297.57 369.48,296.36 369.36,295.15 369.21,293.94 369.04,292.74 368.85,291.55 368.64,290.35 368.41,289.16 368.16,287.98 367.89,286.8 367.6,285.63 367.28,284.47 366.95,283.31 366.6,282.16 366.23,281.01 365.83,279.87 365.42,278.74 364.99,277.62 364.54,276.51 364.07,275.4 363.59,274.31 363.08,273.22 362.55,272.15 362.01,271.08 300,300 300,300 364.4,330.03 364.86,328.88 365.31,327.72 365.73,326.56 366.14,325.39 366.52,324.21 366.88,323.03 367.22,321.84 367.55,320.65 367.84,319.45 "
         style="fill:#ccccff;stroke:none"
         transform="matrix(0.8,0,0,-0.8,132.65804,626.70273)" /><polygon
         id="polygon3427"
         points="355.62,261.06 354.89,260.12 354.14,259.2 353.38,258.3 352.6,257.4 351.81,256.53 351,255.66 350.18,254.82 349.35,253.98 348.5,253.17 347.64,252.36 346.76,251.58 345.87,250.81 344.97,250.05 344.06,249.32 343.13,248.59 342.2,247.89 341.25,247.2 340.29,246.53 339.32,245.88 338.34,245.25 337.35,244.63 336.35,244.03 335.34,243.45 334.32,242.89 333.29,242.34 332.25,241.81 331.21,241.31 330.15,240.82 329.09,240.35 328.03,239.9 326.95,239.47 325.87,239.05 324.78,238.66 323.69,238.29 322.59,237.93 321.49,237.6 320.38,237.28 319.27,236.98 318.15,236.71 317.03,236.45 300,300 300,300 362.01,271.08 361.45,270.03 360.87,268.99 360.27,267.95 359.66,266.93 359.03,265.92 358.38,264.92 357.71,263.94 357.03,262.96 356.33,262 "
         style="fill:#cfcfff;stroke:none"
         transform="matrix(0.8,0,0,-0.8,132.65804,626.70273)" /><polygon
         id="polygon3429"
         points="305.69,234.99 304.55,234.95 303.41,234.93 302.27,234.93 301.14,234.96 300,235 298.87,235.06 297.74,235.14 296.61,235.25 295.48,235.37 294.36,235.51 293.24,235.67 292.12,235.85 291.01,236.05 289.91,236.27 288.8,236.51 287.71,236.76 286.62,237.04 285.53,237.33 284.45,237.65 283.38,237.98 282.32,238.33 281.26,238.7 280.21,239.08 279.16,239.49 278.13,239.91 277.1,240.35 276.08,240.81 275.08,241.28 274.08,241.77 273.09,242.28 272.11,242.81 271.14,243.35 270.18,243.91 269.23,244.48 268.29,245.08 267.36,245.68 266.45,246.31 265.54,246.94 264.65,247.6 263.77,248.26 300,300 300,300 317.03,236.45 315.9,236.22 314.78,236 313.65,235.8 312.51,235.63 311.38,235.47 310.24,235.33 309.1,235.22 307.97,235.12 306.83,235.04 "
         style="fill:#d2d2ff;stroke:none"
         transform="matrix(0.8,0,0,-0.8,132.65804,626.70273)" /><polygon
         id="polygon3431"
         points="255.71,255.71 254.98,256.53 254.27,257.36 253.57,258.2 252.89,259.05 252.22,259.91 251.57,260.78 250.94,261.67 250.32,262.56 249.71,263.46 249.13,264.38 248.56,265.3 248,266.23 247.47,267.17 246.95,268.12 246.44,269.08 245.96,270.04 245.49,271.02 245.04,272 244.61,272.98 244.19,273.98 243.79,274.97 243.41,275.98 243.05,276.99 242.71,278.01 242.38,279.03 242.07,280.05 241.79,281.08 241.51,282.12 241.26,283.16 241.03,284.2 240.81,285.24 240.61,286.29 240.44,287.34 240.28,288.39 240.13,289.44 240.01,290.5 239.91,291.55 239.82,292.61 239.75,293.67 239.7,294.72 300,300 300,300 263.77,248.26 262.91,248.95 262.05,249.64 261.21,250.36 260.39,251.08 259.57,251.82 258.77,252.57 257.99,253.34 257.21,254.12 256.46,254.91 "
         style="fill:#d5d5ff;stroke:none"
         transform="matrix(0.8,0,0,-0.8,132.65804,626.70273)" /><polygon
         id="polygon3433"
         points="240.23,305.23 240.38,306.27 240.55,307.3 240.74,308.33 240.95,309.35 241.17,310.37 241.41,311.39 241.67,312.4 241.95,313.4 242.24,314.4 242.55,315.39 242.88,316.38 243.23,317.36 243.59,318.33 243.97,319.29 244.36,320.25 244.77,321.2 245.2,322.14 245.64,323.07 246.1,324 246.58,324.91 247.07,325.82 247.57,326.71 248.09,327.6 248.63,328.48 249.18,329.34 249.74,330.2 250.32,331.04 250.92,331.88 251.52,332.7 252.14,333.51 252.78,334.31 253.43,335.1 254.09,335.87 254.76,336.63 255.45,337.38 256.15,338.12 256.86,338.84 257.58,339.56 258.32,340.25 259.06,340.94 300,300 300,300 239.7,294.72 239.67,295.78 239.66,296.84 239.67,297.89 239.69,298.95 239.74,300 239.8,301.05 239.88,302.1 239.98,303.15 240.09,304.19 "
         style="fill:#d8d8ff;stroke:none"
         transform="matrix(0.8,0,0,-0.8,132.65804,626.70273)" /><polygon
         id="polygon3435"
         points="267.09,346.99 267.95,347.52 268.81,348.02 269.68,348.52 270.56,348.99 271.45,349.45 272.34,349.9 273.24,350.33 274.15,350.74 275.06,351.14 275.98,351.52 276.9,351.88 277.83,352.23 278.77,352.56 279.71,352.87 280.65,353.17 281.6,353.45 282.55,353.71 283.5,353.96 284.46,354.18 285.42,354.4 286.39,354.59 287.36,354.77 288.32,354.93 289.29,355.07 290.27,355.2 291.24,355.31 292.21,355.4 293.19,355.48 294.16,355.54 295.14,355.58 296.11,355.6 297.09,355.61 298.06,355.6 299.03,355.57 300,355.53 300.97,355.47 301.93,355.39 302.9,355.29 303.86,355.18 304.82,355.05 300,300 300,300 259.06,340.94 259.82,341.61 260.59,342.26 261.37,342.91 262.16,343.53 262.96,344.15 263.76,344.75 264.58,345.33 265.41,345.9 266.25,346.45 "
         style="fill:#dcdcff;stroke:none"
         transform="matrix(0.8,0,0,-0.8,132.65804,626.70273)" /><polygon
         id="polygon3437"
         points="314.17,352.87 315.07,352.57 315.97,352.24 316.87,351.91 317.75,351.56 318.63,351.19 319.5,350.81 320.37,350.41 321.22,350 322.07,349.57 322.91,349.13 323.74,348.68 324.56,348.21 325.38,347.73 326.18,347.23 326.97,346.72 327.76,346.2 328.53,345.66 329.3,345.11 330.05,344.55 330.79,343.98 331.52,343.39 332.24,342.79 332.95,342.18 333.65,341.56 334.34,340.92 335.01,340.28 335.68,339.62 336.33,338.95 336.96,338.28 337.59,337.59 338.2,336.89 338.8,336.18 339.39,335.46 339.96,334.74 340.52,334 341.07,333.25 341.6,332.5 342.12,331.74 342.62,330.97 343.11,330.19 300,300 300,300 304.82,355.05 305.77,354.91 306.72,354.75 307.67,354.57 308.61,354.37 309.55,354.16 310.48,353.94 311.41,353.7 312.34,353.44 313.25,353.16 "
         style="fill:#dfdfff;stroke:none"
         transform="matrix(0.8,0,0,-0.8,132.65804,626.70273)" /><polygon
         id="polygon3439"
         points="347.22,322.02 347.55,321.17 347.87,320.32 348.16,319.46 348.45,318.6 348.72,317.73 348.97,316.86 349.2,315.99 349.43,315.11 349.63,314.23 349.82,313.35 350,312.47 350.15,311.58 350.3,310.69 350.42,309.8 350.54,308.91 350.63,308.02 350.71,307.13 350.78,306.23 350.83,305.34 350.86,304.45 350.88,303.56 350.88,302.67 350.86,301.78 350.83,300.89 350.79,300 350.73,299.11 350.65,298.23 350.56,297.35 350.46,296.47 350.33,295.6 350.2,294.72 350.05,293.86 349.88,292.99 349.7,292.13 349.5,291.27 349.29,290.42 349.06,289.57 348.82,288.73 348.57,287.89 348.3,287.06 300,300 300,300 343.11,330.19 343.59,329.4 344.05,328.61 344.5,327.81 344.93,327 345.35,326.18 345.76,325.36 346.15,324.54 346.52,323.7 346.88,322.86 "
         style="fill:#e2e2ff;stroke:none"
         transform="matrix(0.8,0,0,-0.8,132.65804,626.70273)" /></g><g
       id="g3637"
       transform="translate(-0.83286657,36.448332)"><path
         inkscape:connector-curvature="0"
         id="path3118"
         style="fill:#000000;fill-opacity:1;fill-rule:evenodd;stroke:none"
         d="m 306.455,409.625 2.462,-2.24 0,1.409 c 1.809,0 3.142,-0.735 3.996,-2.207 0.852,-1.471 1.279,-3.603 1.279,-6.399 0,-3.205 -0.412,-5.614 -1.234,-7.227 -0.823,-1.613 -2.17,-2.419 -4.041,-2.419 l -2.87,0 0,17.803 0,0.449 0.037,1.848 -2.128,0 0,-21.948 4.967,0 c 1.523,0 2.868,0.43 4.037,1.289 1.168,0.861 2.032,2.15 2.593,3.872 0.561,1.717 0.842,3.596 0.842,5.631 0,3.629 -0.62,6.397 -1.854,8.299 -1.236,1.905 -3.106,2.857 -5.618,2.857 l 0,1.399 -2.468,-2.416 z" /><g
         id="g3630"><path
   d="m 306.455,409.625 2.462,-2.24 0,1.409 c 1.809,0 3.142,-0.735 3.996,-2.207 0.852,-1.471 1.279,-3.603 1.279,-6.399 0,-3.205 -0.412,-5.614 -1.234,-7.227 -0.823,-1.613 -2.17,-2.419 -4.041,-2.419 l -2.87,0 0,17.803 0,0.449 0.037,1.848 -2.128,0 0,-21.948 4.967,0 c 1.523,0 2.868,0.43 4.037,1.289 1.168,0.861 2.032,2.15 2.593,3.872 0.561,1.717 0.842,3.596 0.842,5.631 0,3.629 -0.62,6.397 -1.854,8.299 -1.236,1.905 -3.106,2.857 -5.618,2.857 l 0,1.399 -2.468,-2.416 z"
   style="fill:none;stroke:#000000;stroke-width:0.5;stroke-linecap:butt;stroke-linejoin:miter;stroke-miterlimit:4;stroke-opacity:1;stroke-dasharray:none"
   id="path3120"
   inkscape:connector-curvature="0" /><text
   transform="scale(0.99143541,-1.0086386)"
   id="text3122"
   x="287.57819"
   y="-385.12616"
   style="font-size:11.89722538px"><tspan
     style="font-size:32.29640579px;font-variant:normal;font-weight:normal;font-stretch:condensed;writing-mode:lr-tb;fill:#000000;fill-opacity:1;fill-rule:nonzero;stroke:none;font-family:Myriad Pro;-inkscape-font-specification:AbadiMT-CondensedLight"
     x="287.57819"
     y="-385.12616"
     id="tspan3124">R</tspan></text>

<text
   transform="scale(0.99143541,-1.0086386)"
   id="text3126"
   x="319.00363"
   y="-385.12616"
   style="font-size:11.89722538px"><tspan
     style="font-size:32.29640579px;font-variant:normal;font-weight:normal;font-stretch:condensed;writing-mode:lr-tb;fill:#000000;fill-opacity:1;fill-rule:nonzero;stroke:none;font-family:Myriad Pro;-inkscape-font-specification:AbadiMT-CondensedLight"
     x="319.00363 336.83124 344.38861"
     y="-385.12616"
     sodipodi:role="line"
     id="tspan3128">Kit</tspan></text>

</g></g></g></svg>