<?xml version="1.0" encoding="UTF-8" standalone="no"?>
<!-- Created with Inkscape (http://www.inkscape.org/) -->

<svg
   xmlns:dc="http://purl.org/dc/elements/1.1/"
   xmlns:cc="http://creativecommons.org/ns#"
   xmlns:rdf="http://www.w3.org/1999/02/22-rdf-syntax-ns#"
   xmlns:svg="http://www.w3.org/2000/svg"
   xmlns="http://www.w3.org/2000/svg"
   xmlns:sodipodi="http://sodipodi.sourceforge.net/DTD/sodipodi-0.dtd"
   xmlns:inkscape="http://www.inkscape.org/namespaces/inkscape"
   id="svg3004"
   version="1.1"
   inkscape:version="0.48.4 r9939"
   width="765"
   height="990"
   xml:space="preserve"
   sodipodi:docname="logo.inkscape.svg"
   inkscape:export-filename="/scratch/RDKit_trunk/Docs/Images/logo.png"
   inkscape:export-xdpi="114.37"
   inkscape:export-ydpi="114.37"><metadata
     id="metadata3010"><rdf:RDF><cc:Work
         rdf:about=""><dc:format>image/svg+xml</dc:format><dc:type
           rdf:resource="http://purl.org/dc/dcmitype/StillImage" /><dc:title></dc:title></cc:Work></rdf:RDF></metadata><defs
     id="defs3008"><clipPath
       clipPathUnits="userSpaceOnUse"
       id="clipPath3018"><path
         d="M 0,792 612,792 612,0 0,0 0,792 z"
         id="path3020" /></clipPath></defs><sodipodi:namedview
     pagecolor="#ffffff"
     bordercolor="#666666"
     borderopacity="1"
     objecttolerance="10"
     gridtolerance="10"
     guidetolerance="10"
     inkscape:pageopacity="0"
     inkscape:pageshadow="2"
     inkscape:window-width="1170"
     inkscape:window-height="769"
     id="namedview3006"
     showgrid="false"
     inkscape:zoom="1.1919192"
     inkscape:cx="191.54497"
     inkscape:cy="596.25171"
     inkscape:window-x="56"
     inkscape:window-y="24"
     inkscape:window-maximized="0"
     inkscape:current-layer="g3012" /><g
     id="g3012"
     inkscape:groupmode="layer"
     inkscape:label="logo"
     transform="matrix(1.25,0,0,-1.25,0,990)"><g
       id="g3824"
       transform="translate(-13.652932,33.6)"><text
         style="font-size:11.89719963px"
         y="-336.43091"
         x="257.92508"
         id="text3110"
         transform="scale(0.99143331,-1.0086407)"><tspan
           id="tspan3112"
           sodipodi:role="line"
           y="-336.43091"
           x="257.92508 264.75604 270.39731 275.36438 280.86682 283.91052 288.85779 294.30075 299.76355 302.9064 307.28854 312.25562 314.35745 320.10776 325.6102 330.5773 338.84586 341.1658 346.66827 349.43436 354.87732 358.15897 366.42752 371.16656 374.44821 376.76819 381.20981"
           style="font-size:9.91433334px;font-variant:normal;font-weight:normal;font-stretch:condensed;writing-mode:lr-tb;fill:#000000;fill-opacity:1;fill-rule:nonzero;stroke:none;font-family:Myriad Pro;-inkscape-font-specification:AbadiMT-CondensedLight">Open-Source Cheminformatics</tspan></text>
<text
         style="font-size:11.89719963px"
         y="-324.53369"
         x="275.50314"
         id="text3114"
         transform="scale(0.99143331,-1.0086407)"><tspan
           id="tspan3116"
           sodipodi:role="line"
           y="-324.53369"
           x="275.50314 280.28186 285.7843 291.37601 293.47784 301.50845 306.28714 310.72879 316.23123 318.55118 324.05365 329.02072 331.12256 335.66333 340.6304 345.40912 348.69077 354.19321 356.51315 362.01562"
           style="font-size:9.91433334px;font-variant:normal;font-weight:normal;font-stretch:condensed;writing-mode:lr-tb;fill:#000000;fill-opacity:1;fill-rule:nonzero;stroke:none;font-family:Myriad Pro;-inkscape-font-specification:AbadiMT-CondensedLight">and Machine Learning</tspan></text>
</g><g
       id="g9038"
       transform="translate(24.211839,51.2)"><g
         id="g6960"
         transform="matrix(0,-0.28,-0.28,0,366.75,471.4099)"><polygon
           points="142.69,177.09 140.61,179.89 138.58,182.72 136.6,185.58 134.67,188.48 300,300 300,300 158.58,158.58 156.17,161.1 153.81,163.67 151.49,166.28 149.22,168.93 146.99,171.61 144.81,174.33 "
           id="polygon6432"
           style="fill:#3333ff;stroke:none" /><polygon
           points="124.24,206.55 122.68,209.65 121.18,212.78 119.73,215.94 118.34,219.12 300,300 300,300 136.64,185.61 134.71,188.51 132.84,191.44 131.01,194.4 129.24,197.4 127.52,200.42 125.85,203.47 "
           id="polygon6434"
           style="fill:#3333ff;stroke:none" /><polygon
           points="111.23,238.66 110.24,241.98 109.3,245.32 108.43,248.67 107.61,252.03 300,300 300,300 119.78,215.96 118.39,219.14 117.05,222.34 115.77,225.57 114.55,228.81 113.39,232.08 112.28,235.36 "
           id="polygon6436"
           style="fill:#3434ff;stroke:none" /><polygon
           points="104.02,272.46 103.62,275.89 103.28,279.32 103,282.76 102.78,286.21 300,300 300,300 108.48,248.68 107.66,252.05 106.91,255.42 106.21,258.81 105.57,262.21 104.99,265.62 104.47,269.03 "
           id="polygon6438"
           style="fill:#3535ff;stroke:none" /><polygon
           points="102.78,306.89 102.99,310.33 103.25,313.76 103.57,317.19 103.95,320.61 300,300 300,300 103.05,282.77 102.83,286.21 102.67,289.66 102.58,293.11 102.54,296.55 102.56,300 102.64,303.44 "
           id="polygon6440"
           style="fill:#3535ff;stroke:none" /><polygon
           points="107.54,340.91 108.33,344.25 109.19,347.58 110.1,350.88 111.06,354.18 300,300 300,300 103.62,317.18 104.01,320.6 104.45,324.01 104.95,327.41 105.51,330.8 106.13,334.19 106.8,337.55 "
           id="polygon6442"
           style="fill:#3636ff;stroke:none" /><polygon
           points="118.1,373.49 119.46,376.64 120.87,379.75 122.34,382.85 123.86,385.91 300,300 300,300 110.15,350.87 111.11,354.16 112.14,357.44 113.22,360.69 114.35,363.92 115.55,367.14 116.8,370.33 "
           id="polygon6444"
           style="fill:#3737ff;stroke:none" /><polygon
           points="134.11,403.66 135.99,406.51 137.92,409.33 139.89,412.11 141.92,414.85 300,300 300,300 122.38,382.82 123.9,385.89 125.48,388.92 127.1,391.93 128.78,394.91 130.51,397.86 132.28,400.77 "
           id="polygon6446"
           style="fill:#3737ff;stroke:none" /><polygon
           points="155.06,430.5 157.4,432.98 159.78,435.41 162.2,437.8 164.66,440.15 300,300 300,300 139.94,412.08 141.96,414.82 144.03,417.53 146.14,420.21 148.31,422.84 150.51,425.43 152.76,427.99 "
           id="polygon6448"
           style="fill:#3838ff;stroke:none" /><polygon
           points="180.28,453.24 183,455.26 185.76,457.24 188.55,459.17 191.38,461.04 300,300 300,300 162.24,437.76 164.7,440.11 167.2,442.41 169.74,444.67 172.32,446.88 174.94,449.05 177.59,451.17 "
           id="polygon6450"
           style="fill:#3939ff;stroke:none" /><polygon
           points="208.98,471.19 212,472.71 215.05,474.17 218.13,475.58 221.22,476.93 300,300 300,300 188.58,459.12 191.4,461 194.26,462.83 197.14,464.6 200.06,466.33 203,468 205.98,469.62 "
           id="polygon6452"
           style="fill:#3939ff;stroke:none" /><polygon
           points="240.26,483.85 243.5,484.82 246.74,485.72 250.01,486.57 253.28,487.37 300,300 300,300 218.15,475.53 221.25,476.89 224.36,478.19 227.51,479.43 230.67,480.62 233.85,481.75 237.05,482.83 "
           id="polygon6454"
           style="fill:#3a3aff;stroke:none" /><polygon
           points="273.18,490.86 276.52,491.25 279.86,491.58 283.22,491.85 286.57,492.06 300,300 300,300 250.02,486.52 253.3,487.32 256.58,488.05 259.88,488.73 263.19,489.35 266.51,489.91 269.84,490.42 "
           id="polygon6456"
           style="fill:#3b3bff;stroke:none" /><polygon
           points="306.71,492.05 310.05,491.85 313.4,491.59 316.73,491.28 320.06,490.9 300,300 300,300 283.22,491.8 286.57,492.01 289.93,492.16 293.29,492.25 296.64,492.29 300,492.27 303.35,492.19 "
           id="polygon6458"
           style="fill:#3b3bff;stroke:none" /><polygon
           points="339.83,487.4 343.09,486.63 346.32,485.8 349.55,484.91 352.75,483.97 300,300 300,300 316.73,491.22 320.06,490.85 323.38,490.42 326.69,489.93 330,489.38 333.29,488.78 336.57,488.12 "
           id="polygon6460"
           style="fill:#3c3cff;stroke:none" /><polygon
           points="371.55,477.1 374.61,475.78 377.65,474.4 380.66,472.98 383.64,471.49 300,300 300,300 349.53,484.86 352.74,483.92 355.92,482.92 359.09,481.86 362.24,480.76 365.37,479.59 368.47,478.38 "
           id="polygon6462"
           style="fill:#3d3dff;stroke:none" /><polygon
           points="400.92,461.5 403.69,459.67 406.43,457.79 409.14,455.87 411.81,453.9 300,300 300,300 380.64,472.93 383.62,471.45 386.58,469.92 389.5,468.33 392.4,466.7 395.27,465.02 398.11,463.28 "
           id="polygon6464"
           style="fill:#3d3dff;stroke:none" /><polygon
           points="427.04,441.1 429.45,438.82 431.82,436.5 434.14,434.14 436.43,431.75 300,300 300,300 409.11,455.83 411.78,453.86 414.42,451.84 417.02,449.78 419.58,447.67 422.11,445.52 424.6,443.33 "
           id="polygon6466"
           style="fill:#3e3eff;stroke:none" /><polygon
           points="449.16,416.54 451.13,413.89 453.05,411.2 454.93,408.48 456.75,405.73 300,300 300,300 434.11,434.11 436.39,431.71 438.63,429.27 440.82,426.8 442.98,424.29 445.08,421.74 447.15,419.16 "
           id="polygon6468"
           style="fill:#3f3fff;stroke:none" /><polygon
           points="466.63,388.6 468.1,385.65 469.52,382.68 470.89,379.69 472.21,376.67 300,300 300,300 454.89,408.45 456.71,405.7 458.49,402.92 460.22,400.11 461.89,397.28 463.52,394.41 465.1,391.52 "
           id="polygon6470"
           style="fill:#3f3fff;stroke:none" /><polygon
           points="478.93,358.14 479.87,354.99 480.75,351.83 481.58,348.65 482.35,345.46 300,300 300,300 470.84,379.67 472.16,376.65 473.42,373.61 474.63,370.56 475.79,367.48 476.89,364.38 477.94,361.27 "
           id="polygon6472"
           style="fill:#4040ff;stroke:none" /><polygon
           points="485.74,326.1 486.12,322.85 486.43,319.59 486.7,316.33 486.9,313.07 300,300 300,300 481.53,348.64 482.3,345.45 483.01,342.25 483.67,339.04 484.27,335.82 484.82,332.59 485.31,329.35 "
           id="polygon6474"
           style="fill:#4141ff;stroke:none" /><polygon
           points="486.88,293.47 486.68,290.22 486.43,286.96 486.12,283.72 485.76,280.48 300,300 300,300 486.64,316.33 486.85,313.07 487,309.8 487.09,306.53 487.12,303.27 487.1,300 487.01,296.74 "
           id="polygon6476"
           style="fill:#4242ff;stroke:none" /><polygon
           points="482.34,261.24 481.59,258.08 480.78,254.93 479.91,251.79 478.99,248.67 300,300 300,300 486.07,283.72 485.71,280.48 485.29,277.25 484.81,274.03 484.28,270.81 483.69,267.61 483.04,264.42 "
           id="polygon6478"
           style="fill:#4242ff;stroke:none" /><polygon
           points="472.31,230.38 471.02,227.41 469.68,224.45 468.29,221.53 466.85,218.62 300,300 300,300 479.86,251.81 478.94,248.69 477.97,245.59 476.94,242.51 475.86,239.45 474.73,236.4 473.55,233.38 "
           id="polygon6480"
           style="fill:#4343ff;stroke:none" /><polygon
           points="457.11,201.82 455.33,199.13 453.51,196.46 451.63,193.83 449.71,191.23 300,300 300,300 468.24,221.55 466.8,218.65 465.31,215.77 463.77,212.92 462.17,210.11 460.54,207.31 458.85,204.55 "
           id="polygon6482"
           style="fill:#4444ff;stroke:none" /><polygon
           points="437.25,176.42 435.04,174.08 432.78,171.77 430.49,169.51 428.15,167.29 300,300 300,300 451.59,193.86 449.67,191.26 447.71,188.69 445.7,186.16 443.65,183.67 441.56,181.22 439.43,178.8 "
           id="polygon6484"
           style="fill:#4444ff;stroke:none" /><polygon
           points="413.35,154.91 410.77,153 408.16,151.13 405.52,149.31 402.84,147.53 300,300 300,300 430.45,169.55 428.12,167.33 425.75,165.15 423.34,163.02 420.89,160.93 418.42,158.88 415.9,156.87 "
           id="polygon6486"
           style="fill:#4545ff;stroke:none" /><polygon
           points="386.17,137.94 383.3,136.51 380.41,135.13 377.5,133.8 374.57,132.52 300,300 300,300 405.49,149.35 402.81,147.58 400.11,145.85 397.37,144.17 394.61,142.54 391.82,140.96 389.01,139.42 "
           id="polygon6488"
           style="fill:#4646ff;stroke:none" /><polygon
           points="356.54,125.99 353.48,125.08 350.4,124.22 347.31,123.42 344.21,122.67 300,300 300,300 377.48,133.84 374.55,132.56 371.59,131.34 368.62,130.16 365.63,129.04 362.61,127.97 359.59,126.95 "
           id="polygon6490"
           style="fill:#4646ff;stroke:none" /><polygon
           points="325.38,119.38 322.22,119.02 319.05,118.71 315.88,118.46 312.71,118.26 300,300 300,300 347.3,123.47 344.2,122.72 341.09,122.03 337.97,121.39 334.83,120.8 331.69,120.28 328.54,119.8 "
           id="polygon6492"
           style="fill:#4747ff;stroke:none" /><polygon
           points="293.65,118.29 290.49,118.48 287.32,118.73 284.17,119.03 281.02,119.39 300,300 300,300 315.88,118.51 312.7,118.31 309.53,118.17 306.35,118.08 303.18,118.05 300,118.08 296.83,118.16 "
           id="polygon6494"
           style="fill:#4848ff;stroke:none" /><polygon
           points="262.32,122.72 259.24,123.45 256.18,124.24 253.13,125.08 250.1,125.98 300,300 300,300 284.17,119.08 281.02,119.44 277.88,119.85 274.75,120.31 271.62,120.83 268.51,121.41 265.41,122.04 "
           id="polygon6496"
           style="fill:#4848ff;stroke:none" /><polygon
           points="232.32,132.49 229.43,133.74 226.56,135.05 223.71,136.4 220.89,137.8 300,300 300,300 253.14,125.13 250.11,126.03 247.1,126.98 244.11,127.98 241.13,129.03 238.17,130.13 235.24,131.28 "
           id="polygon6498"
           style="fill:#4949ff;stroke:none" /><polygon
           points="204.56,147.27 201.94,149 199.35,150.78 196.79,152.6 194.27,154.47 300,300 300,300 223.73,136.45 220.91,137.85 218.12,139.3 215.35,140.8 212.61,142.35 209.9,143.94 207.22,145.58 "
           id="polygon6500"
           style="fill:#4a4aff;stroke:none" /><polygon
           points="179.88,166.59 177.6,168.75 175.37,170.94 173.17,173.17 171.01,175.44 300,300 300,300 196.82,152.65 194.3,154.51 191.81,156.42 189.35,158.37 186.93,160.37 184.54,162.4 182.19,164.48 "
           id="polygon6502"
           style="fill:#4a4aff;stroke:none" /><polygon
           points="158.99,189.83 157.13,192.34 155.32,194.88 153.55,197.45 151.82,200.05 300,300 300,300 173.21,173.21 171.05,175.48 168.94,177.78 166.86,180.12 164.83,182.5 162.84,184.91 160.89,187.35 "
           id="polygon6504"
           style="fill:#4b4bff;stroke:none" /><polygon
           points="142.51,216.26 141.12,219.05 139.78,221.85 138.48,224.68 137.24,227.54 300,300 300,300 153.59,197.48 151.86,200.08 150.19,202.71 148.56,205.37 146.97,208.05 145.44,210.76 143.95,213.5 "
           id="polygon6506"
           style="fill:#4c4cff;stroke:none" /><polygon
           points="130.91,245.06 130.02,248.03 129.19,251.02 128.41,254.02 127.69,257.04 300,300 300,300 138.53,224.71 137.29,227.56 136.1,230.43 134.96,233.32 133.87,236.23 132.83,239.15 131.84,242.1 "
           id="polygon6508"
           style="fill:#4c4cff;stroke:none" /><polygon
           points="124.5,275.34 124.15,278.41 123.85,281.49 123.61,284.57 123.42,287.65 300,300 300,300 128.46,254.04 127.74,257.05 127.07,260.08 126.45,263.11 125.88,266.15 125.37,269.21 124.91,272.27 "
           id="polygon6510"
           style="fill:#4d4dff;stroke:none" /><polygon
           points="123.46,306.16 123.65,309.24 123.89,312.31 124.18,315.38 124.53,318.44 300,300 300,300 123.66,284.57 123.47,287.66 123.34,290.74 123.25,293.83 123.22,296.91 123.25,300 123.33,303.08 "
           id="polygon6512"
           style="fill:#4e4eff;stroke:none" /><polygon
           points="127.78,336.61 128.49,339.6 129.26,342.57 130.08,345.53 130.95,348.47 300,300 300,300 124.23,315.38 124.58,318.44 124.98,321.49 125.44,324.53 125.94,327.57 126.5,330.59 127.11,333.61 "
           id="polygon6514"
           style="fill:#4f4fff;stroke:none" /><polygon
           points="137.28,365.74 138.5,368.55 139.77,371.34 141.09,374.1 142.45,376.84 300,300 300,300 130.13,345.52 131,348.46 131.92,351.39 132.89,354.3 133.92,357.19 134.99,360.06 136.11,362.91 "
           id="polygon6516"
           style="fill:#4f4fff;stroke:none" /><polygon
           points="151.66,392.69 153.34,395.24 155.07,397.76 156.84,400.24 158.65,402.69 300,300 300,300 141.14,374.08 142.5,376.82 143.91,379.53 145.37,382.22 146.87,384.88 148.42,387.51 150.02,390.12 "
           id="polygon6518"
           style="fill:#5050ff;stroke:none" /><polygon
           points="170.43,416.66 172.53,418.87 174.66,421.04 176.83,423.17 179.03,425.26 300,300 300,300 156.88,400.21 158.7,402.66 160.55,405.08 162.45,407.47 164.39,409.82 166.36,412.14 168.38,414.42 "
           id="polygon6520"
           style="fill:#5151ff;stroke:none" /><polygon
           points="193.02,436.93 195.45,438.74 197.92,440.5 200.42,442.22 202.94,443.89 300,300 300,300 176.87,423.13 179.07,425.23 181.31,427.28 183.58,429.29 185.89,431.27 188.23,433.2 190.61,435.09 "
           id="polygon6522"
           style="fill:#5151ff;stroke:none" /><polygon
           points="218.69,452.92 221.39,454.27 224.12,455.57 226.87,456.83 229.64,458.03 300,300 300,300 200.45,442.17 202.97,443.85 205.53,445.47 208.11,447.06 210.72,448.59 213.35,450.08 216.01,451.53 "
           id="polygon6524"
           style="fill:#5252ff;stroke:none" /><polygon
           points="246.66,464.17 249.55,465.03 252.45,465.84 255.36,466.59 258.29,467.29 300,300 300,300 226.89,456.78 229.66,457.99 232.45,459.14 235.26,460.25 238.08,461.3 240.92,462.31 243.78,463.27 "
           id="polygon6526"
           style="fill:#5353ff;stroke:none" /><polygon
           points="276.06,470.37 279.04,470.71 282.03,471 285.02,471.24 288.01,471.42 300,300 300,300 255.38,466.54 258.3,467.24 261.24,467.89 264.19,468.49 267.14,469.04 270.11,469.54 273.08,469.98 "
           id="polygon6528"
           style="fill:#5353ff;stroke:none" /><polygon
           points="305.98,471.37 308.97,471.19 311.95,470.95 314.93,470.66 317.9,470.33 300,300 300,300 285.02,471.19 288.02,471.37 291.01,471.5 294.01,471.58 297,471.6 300,471.58 302.99,471.5 "
           id="polygon6530"
           style="fill:#5454ff;stroke:none" /><polygon
           points="335.53,467.16 338.43,466.47 341.32,465.72 344.19,464.92 347.05,464.08 300,300 300,300 314.93,470.61 317.9,470.27 320.86,469.88 323.81,469.44 326.76,468.95 329.69,468.41 332.62,467.81 "
           id="polygon6532"
           style="fill:#5555ff;stroke:none" /><polygon
           points="363.8,457.92 366.53,456.74 369.23,455.5 371.92,454.22 374.57,452.9 300,300 300,300 344.18,464.87 347.03,464.03 349.87,463.13 352.7,462.19 355.5,461.19 358.29,460.15 361.06,459.06 "
           id="polygon6534"
           style="fill:#5555ff;stroke:none" /><polygon
           points="389.95,443.96 392.42,442.32 394.86,440.64 397.27,438.92 399.65,437.16 300,300 300,300 371.89,454.18 374.55,452.85 377.18,451.48 379.79,450.06 382.37,448.6 384.93,447.1 387.45,445.55 "
           id="polygon6536"
           style="fill:#5656ff;stroke:none" /><polygon
           points="413.2,425.72 415.34,423.69 417.45,421.62 419.51,419.51 421.54,417.37 300,300 300,300 397.24,438.88 399.62,437.12 401.97,435.32 404.28,433.48 406.56,431.6 408.81,429.68 411.02,427.72 "
           id="polygon6538"
           style="fill:#5757ff;stroke:none" /><polygon
           points="432.86,403.8 434.61,401.43 436.32,399.04 437.98,396.61 439.6,394.16 300,300 300,300 419.48,419.48 421.51,417.34 423.5,415.16 425.45,412.96 427.36,410.71 429.23,408.44 431.07,406.14 "
           id="polygon6540"
           style="fill:#5757ff;stroke:none" /><polygon
           points="448.36,378.88 449.66,376.26 450.93,373.61 452.14,370.94 453.31,368.26 300,300 300,300 437.94,396.58 439.56,394.13 441.14,391.66 442.67,389.15 444.16,386.62 445.6,384.06 447,381.49 "
           id="polygon6542"
           style="fill:#5858ff;stroke:none" /><polygon
           points="459.25,351.75 460.08,348.94 460.86,346.13 461.59,343.3 462.27,340.46 300,300 300,300 452.09,370.92 453.26,368.24 454.38,365.53 455.45,362.81 456.47,360.07 457.45,357.31 458.38,354.53 "
           id="polygon6544"
           style="fill:#5959ff;stroke:none" /><polygon
           points="465.25,323.22 465.58,320.33 465.86,317.43 466.08,314.53 466.26,311.63 300,300 300,300 461.54,343.29 462.22,340.45 462.85,337.6 463.43,334.74 463.96,331.87 464.44,329 464.87,326.11 "
           id="polygon6546"
           style="fill:#5959ff;stroke:none" /><polygon
           points="466.2,294.2 466.02,291.3 465.79,288.41 465.51,285.52 465.18,282.64 300,300 300,300 466.03,314.53 466.21,311.62 466.33,308.72 466.41,305.81 466.43,302.91 466.41,300 466.33,297.1 "
           id="polygon6548"
           style="fill:#5a5aff;stroke:none" /><polygon
           points="462.1,265.54 461.43,262.73 460.7,259.93 459.93,257.15 459.11,254.38 300,300 300,300 465.46,285.52 465.13,282.64 464.75,279.77 464.32,276.91 463.84,274.05 463.31,271.2 462.73,268.37 "
           id="polygon6550"
           style="fill:#5b5bff;stroke:none" /><polygon
           points="453.13,238.13 451.97,235.49 450.78,232.87 449.54,230.27 448.25,227.69 300,300 300,300 459.88,257.16 459.06,254.39 458.18,251.64 457.27,248.9 456.3,246.18 455.29,243.48 454.23,240.8 "
           id="polygon6552"
           style="fill:#5c5cff;stroke:none" /><polygon
           points="439.57,212.79 437.98,210.39 436.35,208.03 434.69,205.69 432.98,203.39 300,300 300,300 449.49,230.29 448.2,227.72 446.87,225.17 445.5,222.64 444.08,220.14 442.62,217.66 441.11,215.21 "
           id="polygon6554"
           style="fill:#5c5cff;stroke:none" /><polygon
           points="421.88,190.26 419.91,188.19 417.9,186.15 415.86,184.14 413.78,182.18 300,300 300,300 434.64,205.72 432.93,203.42 431.19,201.14 429.4,198.9 427.58,196.69 425.71,194.51 423.81,192.37 "
           id="polygon6556"
           style="fill:#5d5dff;stroke:none" /><polygon
           points="400.62,171.22 398.32,169.52 396,167.87 393.65,166.26 391.27,164.69 300,300 300,300 415.82,184.18 413.74,182.21 411.64,180.29 409.49,178.39 407.32,176.54 405.12,174.73 402.88,172.95 "
           id="polygon6558"
           style="fill:#5e5eff;stroke:none" /><polygon
           points="376.45,156.21 373.91,154.94 371.34,153.72 368.76,152.55 366.15,151.42 300,300 300,300 393.62,166.3 391.24,164.73 388.84,163.2 386.41,161.72 383.96,160.27 381.48,158.87 378.98,157.52 "
           id="polygon6560"
           style="fill:#5e5eff;stroke:none" /><polygon
           points="350.15,145.66 347.43,144.86 344.7,144.11 341.96,143.4 339.21,142.75 300,300 300,300 368.74,152.59 366.13,151.47 363.51,150.38 360.87,149.34 358.21,148.35 355.54,147.41 352.85,146.51 "
           id="polygon6562"
           style="fill:#5f5fff;stroke:none" /><polygon
           points="322.5,139.87 319.7,139.55 316.89,139.29 314.08,139.07 311.27,138.9 300,300 300,300 341.95,143.45 339.2,142.8 336.43,142.19 333.66,141.63 330.88,141.11 328.1,140.65 325.3,140.24 "
           id="polygon6564"
           style="fill:#6060ff;stroke:none" /><polygon
           points="294.38,138.97 291.57,139.14 288.77,139.37 285.97,139.64 283.18,139.96 300,300 300,300 314.08,139.12 311.26,138.95 308.45,138.83 305.63,138.76 302.81,138.74 300,138.77 297.19,138.84 "
           id="polygon6566"
           style="fill:#6060ff;stroke:none" /><polygon
           points="266.62,142.95 263.9,143.61 261.18,144.32 258.49,145.07 255.8,145.87 300,300 300,300 285.97,139.69 283.18,140.01 280.4,140.38 277.63,140.8 274.86,141.27 272.1,141.78 269.35,142.34 "
           id="polygon6568"
           style="fill:#6161ff;stroke:none" /><polygon
           points="240.07,151.67 237.51,152.79 234.97,153.95 232.46,155.15 229.96,156.4 300,300 300,300 258.5,145.12 255.82,145.92 253.15,146.76 250.5,147.65 247.86,148.59 245.25,149.57 242.65,150.6 "
           id="polygon6570"
           style="fill:#6262ff;stroke:none" /><polygon
           points="215.53,164.82 213.21,166.36 210.92,167.93 208.66,169.55 206.43,171.21 300,300 300,300 232.48,155.2 229.98,156.45 227.51,157.74 225.07,159.07 222.64,160.44 220.25,161.86 217.87,163.32 "
           id="polygon6572"
           style="fill:#6262ff;stroke:none" /><polygon
           points="193.72,181.97 191.71,183.88 189.74,185.82 187.8,187.8 185.9,189.81 300,300 300,300 208.69,169.59 206.46,171.25 204.26,172.94 202.09,174.68 199.95,176.44 197.84,178.25 195.76,180.09 "
           id="polygon6574"
           style="fill:#6363ff;stroke:none" /><polygon
           points="175.29,202.57 173.65,204.79 172.05,207.04 170.49,209.32 168.97,211.62 300,300 300,300 187.84,187.84 185.94,189.85 184.07,191.89 182.24,193.97 180.45,196.07 178.69,198.21 176.97,200.37 "
           id="polygon6576"
           style="fill:#6464ff;stroke:none" /><polygon
           points="160.78,225.97 159.55,228.44 158.37,230.92 157.24,233.43 156.14,235.95 300,300 300,300 170.54,209.35 169.02,211.65 167.54,213.98 166.1,216.33 164.71,218.71 163.35,221.11 162.04,223.53 "
           id="polygon6578"
           style="fill:#6464ff;stroke:none" /><polygon
           points="150.58,251.45 149.81,254.08 149.08,256.72 148.4,259.38 147.76,262.04 300,300 300,300 157.28,233.45 156.19,235.97 155.14,238.51 154.14,241.07 153.18,243.64 152.27,246.23 151.4,248.83 "
           id="polygon6580"
           style="fill:#6565ff;stroke:none" /><polygon
           points="144.99,278.22 144.69,280.93 144.43,283.65 144.22,286.37 144.06,289.1 300,300 300,300 148.45,259.39 147.81,262.06 147.23,264.73 146.69,267.41 146.19,270.1 145.74,272.8 145.34,275.51 "
           id="polygon6582"
           style="fill:#6666ff;stroke:none" /><polygon
           points="144.14,305.44 144.31,308.16 144.53,310.87 144.79,313.58 145.11,316.28 300,300 300,300 144.27,286.38 144.11,289.1 144,291.82 143.93,294.55 143.91,297.28 143.94,300 144.02,302.72 "
           id="polygon6584"
           style="fill:#6666ff;stroke:none" /><polygon
           points="148.01,332.31 148.65,334.94 149.34,337.56 150.06,340.18 150.84,342.77 300,300 300,300 144.85,313.57 145.16,316.27 145.52,318.97 145.92,321.65 146.38,324.33 146.88,327 147.42,329.66 "
           id="polygon6586"
           style="fill:#6767ff;stroke:none" /><polygon
           points="156.47,357.99 157.55,360.47 158.67,362.92 159.84,365.36 161.05,367.77 300,300 300,300 150.11,340.16 150.89,342.76 151.71,345.34 152.57,347.9 153.48,350.45 154.43,352.98 155.43,355.5 "
           id="polygon6588"
           style="fill:#6868ff;stroke:none" /><polygon
           points="169.2,381.73 170.69,383.97 172.22,386.19 173.79,388.37 175.39,390.53 300,300 300,300 159.89,365.34 161.1,367.75 162.35,370.14 163.64,372.51 164.97,374.85 166.34,377.17 167.75,379.46 "
           id="polygon6590"
           style="fill:#6969ff;stroke:none" /><polygon
           points="185.81,402.82 187.66,404.76 189.54,406.67 191.46,408.54 193.41,410.38 300,300 300,300 173.83,388.34 175.44,390.5 177.08,392.63 178.75,394.73 180.46,396.8 182.21,398.84 183.99,400.84 "
           id="polygon6592"
           style="fill:#6969ff;stroke:none" /><polygon
           points="205.75,420.63 207.9,422.22 210.08,423.76 212.29,425.27 214.51,426.74 300,300 300,300 191.5,408.5 193.44,410.34 195.42,412.15 197.43,413.92 199.47,415.65 201.53,417.35 203.63,419.01 "
           id="polygon6594"
           style="fill:#6a6aff;stroke:none" /><polygon
           points="228.4,434.66 230.79,435.84 233.19,436.98 235.61,438.08 238.05,439.13 300,300 300,300 212.32,425.23 214.54,426.69 216.8,428.12 219.07,429.51 221.37,430.86 223.69,432.17 226.04,433.43 "
           id="polygon6596"
           style="fill:#6b6bff;stroke:none" /><polygon
           points="253.05,444.5 255.59,445.24 258.15,445.95 260.72,446.6 263.29,447.22 300,300 300,300 235.64,438.03 238.08,439.08 240.53,440.1 243.01,441.06 245.5,441.99 248,442.87 250.52,443.7 "
           id="polygon6598"
           style="fill:#6b6bff;stroke:none" /><polygon
           points="278.93,449.89 281.56,450.18 284.19,450.43 286.82,450.63 289.46,450.78 300,300 300,300 260.73,446.55 263.31,447.17 265.89,447.73 268.49,448.26 271.09,448.73 273.7,449.16 276.31,449.55 "
           id="polygon6600"
           style="fill:#6c6cff;stroke:none" /><polygon
           points="305.26,450.69 307.89,450.52 310.51,450.31 313.13,450.05 315.74,449.75 300,300 300,300 286.83,450.57 289.46,450.73 292.09,450.84 294.73,450.9 297.37,450.92 300,450.89 302.63,450.81 "
           id="polygon6602"
           style="fill:#6d6dff;stroke:none" /><polygon
           points="331.23,446.93 333.78,446.31 336.31,445.65 338.84,444.94 341.35,444.19 300,300 300,300 313.12,450 315.73,449.7 318.34,449.35 320.93,448.95 323.52,448.51 326.1,448.03 328.67,447.5 "
           id="polygon6604"
           style="fill:#6d6dff;stroke:none" /><polygon
           points="356.05,438.74 358.45,437.69 360.82,436.6 363.17,435.47 365.5,434.3 300,300 300,300 338.82,444.89 341.33,444.14 343.83,443.35 346.3,442.51 348.77,441.63 351.21,440.71 353.64,439.74 "
           id="polygon6606"
           style="fill:#6e6eff;stroke:none" /><polygon
           points="378.99,426.41 381.16,424.97 383.29,423.49 385.41,421.97 387.49,420.42 300,300 300,300 363.15,435.43 365.48,434.26 367.79,433.05 370.08,431.8 372.34,430.51 374.58,429.18 376.8,427.81 "
           id="polygon6608"
           style="fill:#6f6fff;stroke:none" /><polygon
           points="399.36,410.35 401.23,408.56 403.07,406.74 404.88,404.88 406.66,403 300,300 300,300 385.38,421.93 387.46,420.38 389.52,418.79 391.55,417.17 393.54,415.52 395.51,413.83 397.45,412.1 "
           id="polygon6610"
           style="fill:#6f6fff;stroke:none" /><polygon
           points="416.55,391.06 418.08,388.98 419.58,386.88 421.03,384.75 422.45,382.59 300,300 300,300 404.85,404.85 406.62,402.96 408.37,401.05 410.07,399.11 411.75,397.14 413.39,395.14 414.99,393.12 "
           id="polygon6612"
           style="fill:#7070ff;stroke:none" /><polygon
           points="430.09,369.17 431.23,366.87 432.33,364.54 433.39,362.2 434.41,359.84 300,300 300,300 420.99,384.72 422.41,382.56 423.78,380.39 425.12,378.19 426.43,375.96 427.69,373.72 428.91,371.45 "
           id="polygon6614"
           style="fill:#7171ff;stroke:none" /><polygon
           points="439.58,345.35 440.3,342.89 440.98,340.42 441.61,337.94 442.2,335.45 300,300 300,300 433.34,362.18 434.36,359.82 435.33,357.45 436.27,355.06 437.16,352.65 438.01,350.23 438.81,347.8 "
           id="polygon6616"
           style="fill:#7171ff;stroke:none" /><polygon
           points="444.76,320.35 445.04,317.81 445.28,315.27 445.47,312.73 445.62,310.18 300,300 300,300 441.56,337.93 442.15,335.44 442.69,332.94 443.2,330.44 443.65,327.92 444.07,325.4 444.44,322.88 "
           id="polygon6618"
           style="fill:#7272ff;stroke:none" /><polygon
           points="445.52,294.92 445.36,292.38 445.15,289.85 444.9,287.32 444.61,284.8 300,300 300,300 445.42,312.72 445.57,310.18 445.67,307.63 445.73,305.09 445.75,302.54 445.72,300 445.64,297.46 "
           id="polygon6620"
           style="fill:#7373ff;stroke:none" /><polygon
           points="441.87,269.85 441.27,267.39 440.63,264.94 439.94,262.5 439.22,260.08 300,300 300,300 444.85,287.33 444.55,284.81 444.21,282.29 443.83,279.79 443.41,277.29 442.94,274.8 442.42,272.32 "
           id="polygon6622"
           style="fill:#7373ff;stroke:none" /><polygon
           points="433.94,245.88 432.93,243.57 431.88,241.28 430.78,239.01 429.65,236.76 300,300 300,300 439.89,262.52 439.17,260.09 438.4,257.69 437.59,255.29 436.74,252.92 435.85,250.56 434.92,248.21 "
           id="polygon6624"
           style="fill:#7474ff;stroke:none" /><polygon
           points="422.02,223.75 420.63,221.66 419.2,219.6 417.74,217.56 416.24,215.55 300,300 300,300 430.74,239.04 429.61,236.79 428.44,234.56 427.23,232.35 425.98,230.17 424.7,228 423.38,225.87 "
           id="polygon6626"
           style="fill:#7575ff;stroke:none" /><polygon
           points="406.5,204.11 404.77,202.3 403.02,200.52 401.23,198.77 399.41,197.06 300,300 300,300 417.69,217.59 416.2,215.58 414.66,213.6 413.1,211.64 411.5,209.71 409.86,207.81 408.2,205.94 "
           id="polygon6628"
           style="fill:#7676ff;stroke:none" /><polygon
           points="387.88,187.52 385.87,186.05 383.84,184.61 381.78,183.2 379.7,181.84 300,300 300,300 401.19,198.81 399.37,197.1 397.53,195.42 395.65,193.77 393.75,192.16 391.82,190.58 389.86,189.03 "
           id="polygon6630"
           style="fill:#7676ff;stroke:none" /><polygon
           points="366.74,174.48 364.52,173.38 362.27,172.32 360.01,171.3 357.74,170.32 300,300 300,300 381.75,183.25 379.67,181.88 377.57,180.55 375.45,179.26 373.3,178.01 371.13,176.79 368.95,175.62 "
           id="polygon6632"
           style="fill:#7777ff;stroke:none" /><polygon
           points="343.75,165.34 341.38,164.65 339,164 336.61,163.39 334.2,162.82 300,300 300,300 359.99,171.35 357.72,170.37 355.43,169.43 353.12,168.53 350.8,167.67 348.46,166.85 346.11,166.08 "
           id="polygon6634"
           style="fill:#7878ff;stroke:none" /><polygon
           points="319.63,160.36 317.18,160.09 314.73,159.86 312.28,159.68 309.82,159.54 300,300 300,300 336.59,163.44 334.19,162.87 331.78,162.35 329.36,161.86 326.94,161.42 324.5,161.03 322.07,160.67 "
           id="polygon6636"
           style="fill:#7878ff;stroke:none" /><polygon
           points="295.1,159.65 292.65,159.81 290.21,160.01 287.77,160.25 285.34,160.54 300,300 300,300 312.27,159.73 309.82,159.59 307.36,159.49 304.91,159.44 302.45,159.43 300,159.46 297.55,159.53 "
           id="polygon6638"
           style="fill:#7979ff;stroke:none" /><polygon
           points="270.92,163.19 268.55,163.77 266.19,164.39 263.84,165.05 261.51,165.75 300,300 300,300 287.78,160.3 285.35,160.59 282.92,160.92 280.51,161.29 278.1,161.7 275.69,162.16 273.3,162.65 "
           id="polygon6640"
           style="fill:#7a7aff;stroke:none" /><polygon
           points="247.82,170.85 245.6,171.83 243.39,172.85 241.2,173.9 239.03,175 300,300 300,300 263.85,165.1 261.52,165.81 259.2,166.55 256.89,167.33 254.6,168.15 252.32,169.01 250.06,169.91 "
           id="polygon6642"
           style="fill:#7a7aff;stroke:none" /><polygon
           points="226.49,182.36 224.48,183.71 222.49,185.09 220.53,186.5 218.59,187.95 300,300 300,300 241.22,173.95 239.05,175.04 236.91,176.17 234.78,177.34 232.67,178.54 230.59,179.78 228.53,181.05 "
           id="polygon6644"
           style="fill:#7b7bff;stroke:none" /><polygon
           points="207.57,197.34 205.82,199.01 204.11,200.71 202.43,202.43 200.78,204.19 300,300 300,300 220.56,186.54 218.62,187.99 216.71,189.47 214.82,190.98 212.97,192.52 211.14,194.1 209.34,195.7 "
           id="polygon6646"
           style="fill:#7c7cff;stroke:none" /><polygon
           points="191.6,215.31 190.18,217.24 188.79,219.2 187.44,221.19 186.13,223.19 300,300 300,300 202.47,202.47 200.82,204.22 199.2,206 197.61,207.81 196.06,209.65 194.54,211.51 193.05,213.39 "
           id="polygon6648"
           style="fill:#7c7cff;stroke:none" /><polygon
           points="179.04,235.69 177.99,237.83 176.97,239.99 175.99,242.17 175.04,244.37 300,300 300,300 187.48,221.22 186.17,223.22 184.89,225.25 183.65,227.3 182.44,229.36 181.27,231.45 180.14,233.56 "
           id="polygon6650"
           style="fill:#7d7dff;stroke:none" /><polygon
           points="170.26,257.85 169.59,260.13 168.97,262.43 168.38,264.73 167.84,267.05 300,300 300,300 176.03,242.19 175.09,244.39 174.19,246.6 173.32,248.82 172.5,251.06 171.71,253.31 170.97,255.57 "
           id="polygon6652"
           style="fill:#7e7eff;stroke:none" /><polygon
           points="165.48,281.09 165.22,283.45 165.01,285.81 164.83,288.17 164.7,290.54 300,300 300,300 168.43,264.75 167.89,267.06 167.39,269.38 166.92,271.71 166.5,274.05 166.12,276.39 165.78,278.74 "
           id="polygon6654"
           style="fill:#7e7eff;stroke:none" /><polygon
           points="164.82,304.72 164.97,307.08 165.17,309.43 165.4,311.78 165.68,314.12 300,300 300,300 164.88,288.18 164.75,290.54 164.66,292.91 164.61,295.27 164.6,297.64 164.63,300 164.7,302.36 "
           id="polygon6656"
           style="fill:#7f7fff;stroke:none" /><polygon
           points="168.25,328 168.81,330.29 169.41,332.56 170.05,334.82 170.73,337.07 300,300 300,300 165.46,311.77 165.73,314.11 166.05,316.45 166.41,318.77 166.81,321.09 167.25,323.41 167.73,325.71 "
           id="polygon6658"
           style="fill:#8080ff;stroke:none" /><polygon
           points="175.65,350.24 176.59,352.38 177.57,354.51 178.59,356.61 179.64,358.7 300,300 300,300 170.1,334.81 170.78,337.05 171.49,339.29 172.25,341.51 173.04,343.72 173.87,345.91 174.74,348.08 "
           id="polygon6660"
           style="fill:#8080ff;stroke:none" /><polygon
           points="186.75,370.77 188.05,372.7 189.38,374.62 190.74,376.51 192.13,378.37 300,300 300,300 178.64,356.59 179.69,358.68 180.78,360.75 181.9,362.79 183.06,364.82 184.26,366.82 185.49,368.81 "
           id="polygon6662"
           style="fill:#8181ff;stroke:none" /><polygon
           points="201.19,388.97 202.79,390.65 204.43,392.29 206.09,393.91 207.78,395.5 300,300 300,300 190.78,376.48 192.17,378.34 193.6,380.18 195.06,381.99 196.54,383.78 198.06,385.54 199.61,387.27 "
           id="polygon6664"
           style="fill:#8282ff;stroke:none" /><polygon
           points="218.49,404.33 220.36,405.69 222.24,407.02 224.15,408.32 226.08,409.59 300,300 300,300 206.13,393.87 207.81,395.46 209.53,397.02 211.27,398.54 213.04,400.04 214.83,401.5 216.65,402.93 "
           id="polygon6666"
           style="fill:#8383ff;stroke:none" /><polygon
           points="238.12,416.39 240.18,417.4 242.26,418.38 244.36,419.33 246.47,420.23 300,300 300,300 224.18,408.28 226.11,409.54 228.06,410.77 230.04,411.97 232.03,413.12 234.04,414.25 236.07,415.34 "
           id="polygon6668"
           style="fill:#8383ff;stroke:none" /><polygon
           points="259.44,424.82 261.64,425.46 263.85,426.06 266.07,426.62 268.3,427.14 300,300 300,300 244.38,419.28 246.49,420.18 248.62,421.05 250.76,421.88 252.91,422.67 255.08,423.43 257.25,424.14 "
           id="polygon6670"
           style="fill:#8484ff;stroke:none" /><polygon
           points="281.81,429.4 284.08,429.64 286.35,429.85 288.63,430.02 290.9,430.14 300,300 300,300 266.09,426.57 268.31,427.09 270.55,427.57 272.79,428.02 275.04,428.42 277.29,428.79 279.55,429.11 "
           id="polygon6672"
           style="fill:#8585ff;stroke:none" /><polygon
           points="304.54,430.01 306.81,429.86 309.07,429.67 311.32,429.44 313.58,429.17 300,300 300,300 288.63,429.96 290.9,430.09 293.18,430.18 295.45,430.22 297.73,430.23 300,430.2 302.27,430.13 "
           id="polygon6674"
           style="fill:#8585ff;stroke:none" /><polygon
           points="326.93,426.69 329.12,426.15 331.31,425.57 333.48,424.95 335.64,424.3 300,300 300,300 311.32,429.39 313.57,429.12 315.82,428.81 318.05,428.47 320.29,428.08 322.51,427.65 324.72,427.19 "
           id="polygon6676"
           style="fill:#8686ff;stroke:none" /><polygon
           points="348.3,419.56 350.36,418.65 352.4,417.7 354.43,416.72 356.43,415.71 300,300 300,300 333.47,424.9 335.63,424.25 337.78,423.56 339.91,422.83 342.03,422.07 344.14,421.27 346.23,420.43 "
           id="polygon6678"
           style="fill:#8787ff;stroke:none" /><polygon
           points="368.03,408.86 369.89,407.62 371.73,406.34 373.54,405.03 375.33,403.68 300,300 300,300 354.41,416.67 356.41,415.66 358.4,414.61 360.36,413.53 362.31,412.41 364.24,411.26 366.14,410.08 "
           id="polygon6680"
           style="fill:#8787ff;stroke:none" /><polygon
           points="385.51,394.97 387.12,393.43 388.7,391.85 390.25,390.25 391.78,388.63 300,300 300,300 373.51,404.98 375.3,403.64 377.07,402.27 378.81,400.87 380.52,399.44 382.21,397.98 383.88,396.49 "
           id="polygon6682"
           style="fill:#8888ff;stroke:none" /><polygon
           points="400.25,378.32 401.56,376.53 402.84,374.72 404.08,372.88 405.3,371.02 300,300 300,300 390.22,390.22 391.74,388.59 393.23,386.94 394.7,385.27 396.13,383.57 397.54,381.84 398.91,380.1 "
           id="polygon6684"
           style="fill:#8989ff;stroke:none" /><polygon
           points="411.82,359.46 412.8,357.47 413.73,355.47 414.64,353.46 415.51,351.43 300,300 300,300 404.04,372.85 405.25,370.99 406.43,369.12 407.58,367.22 408.69,365.31 409.77,363.38 410.81,361.42 "
           id="polygon6686"
           style="fill:#8989ff;stroke:none" /><polygon
           points="419.9,338.96 420.51,336.84 421.09,334.72 421.62,332.59 422.12,330.45 300,300 300,300 414.59,353.43 415.46,351.41 416.29,349.36 417.08,347.31 417.84,345.24 418.57,343.15 419.25,341.06 "
           id="polygon6688"
           style="fill:#8a8aff;stroke:none" /><polygon
           points="424.28,317.47 424.51,315.29 424.7,313.11 424.86,310.92 424.98,308.74 300,300 300,300 421.57,332.58 422.07,330.44 422.53,328.29 422.96,326.14 423.34,323.98 423.69,321.81 424,319.64 "
           id="polygon6690"
           style="fill:#8b8bff;stroke:none" /><polygon
           points="424.85,295.64 424.7,293.46 424.51,291.29 424.29,289.13 424.03,286.96 300,300 300,300 424.81,310.92 424.93,308.74 425.01,306.55 425.05,304.37 425.06,302.18 425.03,300 424.95,297.82 "
           id="polygon6692"
           style="fill:#8b8bff;stroke:none" /><polygon
           points="421.63,274.15 421.11,272.04 420.55,269.94 419.96,267.86 419.33,265.78 300,300 300,300 424.24,289.13 423.98,286.97 423.68,284.81 423.34,282.67 422.97,280.52 422.56,278.39 422.11,276.26 "
           id="polygon6694"
           style="fill:#8c8cff;stroke:none" /><polygon
           points="414.76,253.63 413.88,251.66 412.98,249.7 412.03,247.76 411.06,245.83 300,300 300,300 419.91,267.87 419.28,265.8 418.61,263.74 417.91,261.69 417.18,259.65 416.41,257.63 415.6,255.63 "
           id="polygon6696"
           style="fill:#8d8dff;stroke:none" /><polygon
           points="404.48,234.72 403.28,232.93 402.05,231.17 400.79,229.43 399.5,227.71 300,300 300,300 411.99,247.78 411.01,245.86 410,243.95 408.96,242.06 407.89,240.2 406.78,238.35 405.65,236.52 "
           id="polygon6698"
           style="fill:#8d8dff;stroke:none" /><polygon
           points="391.13,217.95 389.64,216.41 388.13,214.89 386.6,213.4 385.04,211.94 300,300 300,300 400.75,229.46 399.46,227.74 398.14,226.05 396.79,224.38 395.42,222.73 394.01,221.11 392.58,219.52 "
           id="polygon6700"
           style="fill:#8e8eff;stroke:none" /><polygon
           points="375.14,203.82 373.42,202.57 371.68,201.35 369.91,200.15 368.13,198.99 300,300 300,300 386.56,213.44 385,211.98 383.41,210.55 381.81,209.15 380.17,207.77 378.52,206.43 376.84,205.11 "
           id="polygon6702"
           style="fill:#8f8fff;stroke:none" /><polygon
           points="357.03,192.75 355.12,191.81 353.2,190.91 351.27,190.05 349.32,189.22 300,300 300,300 369.88,200.2 368.1,199.03 366.3,197.9 364.48,196.81 362.64,195.74 360.79,194.71 358.92,193.71 "
           id="polygon6704"
           style="fill:#9090ff;stroke:none" /><polygon
           points="337.36,185.02 335.33,184.43 333.3,183.89 331.25,183.37 329.2,182.9 300,300 300,300 351.25,190.1 349.3,189.27 347.34,188.47 345.37,187.71 343.38,186.99 341.39,186.29 339.38,185.64 "
           id="polygon6706"
           style="fill:#9090ff;stroke:none" /><polygon
           points="316.75,180.85 314.66,180.62 312.57,180.44 310.47,180.29 308.38,180.18 300,300 300,300 331.24,183.42 329.18,182.95 327.13,182.51 325.06,182.1 322.99,181.73 320.91,181.4 318.83,181.11 "
           id="polygon6708"
           style="fill:#9191ff;stroke:none" /><polygon
           points="295.82,180.32 293.74,180.47 291.65,180.65 289.58,180.86 287.5,181.11 300,300 300,300 310.47,180.34 308.38,180.23 306.28,180.15 304.19,180.11 302.09,180.11 300,180.15 297.91,180.22 "
           id="polygon6710"
           style="fill:#9292ff;stroke:none" /><polygon
           points="275.22,183.43 273.2,183.93 271.19,184.47 269.2,185.04 267.21,185.64 300,300 300,300 289.58,180.91 287.51,181.17 285.44,181.45 283.39,181.78 281.33,182.14 279.29,182.53 277.25,182.96 "
           id="polygon6712"
           style="fill:#9292ff;stroke:none" /><polygon
           points="255.57,190.04 253.68,190.88 251.8,191.75 249.94,192.65 248.1,193.59 300,300 300,300 269.21,185.09 267.22,185.69 265.25,186.33 263.29,187.01 261.34,187.71 259.4,188.45 257.48,189.23 "
           id="polygon6714"
           style="fill:#9393ff;stroke:none" /><polygon
           points="237.46,199.91 235.75,201.06 234.06,202.24 232.39,203.45 230.75,204.68 300,300 300,300 249.97,192.7 248.12,193.64 246.3,194.61 244.49,195.61 242.7,196.64 240.94,197.7 239.19,198.79 "
           id="polygon6716"
           style="fill:#9494ff;stroke:none" /><polygon
           points="221.41,212.72 219.93,214.14 218.48,215.59 217.06,217.06 215.66,218.56 300,300 300,300 232.42,203.49 230.78,204.73 229.16,205.99 227.56,207.28 225.99,208.6 224.44,209.95 222.91,211.32 "
           id="polygon6718"
           style="fill:#9494ff;stroke:none" /><polygon
           points="207.9,228.04 206.7,229.69 205.53,231.36 204.39,233.05 203.28,234.76 300,300 300,300 217.1,217.1 215.7,218.59 214.33,220.11 212.99,221.66 211.67,223.22 210.39,224.81 209.13,226.41 "
           id="polygon6720"
           style="fill:#9595ff;stroke:none" /><polygon
           points="197.31,245.4 196.42,247.22 195.56,249.06 194.74,250.92 193.94,252.78 300,300 300,300 204.43,233.08 203.32,234.79 202.24,236.52 201.19,238.26 200.18,240.02 199.19,241.8 198.24,243.59 "
           id="polygon6722"
           style="fill:#9696ff;stroke:none" /><polygon
           points="189.94,264.24 189.38,266.18 188.86,268.13 188.37,270.09 187.91,272.05 300,300 300,300 194.78,250.94 193.99,252.8 193.23,254.68 192.51,256.57 191.81,258.47 191.15,260.38 190.53,262.31 "
           id="polygon6724"
           style="fill:#9696ff;stroke:none" /><polygon
           points="185.97,283.97 185.76,285.97 185.58,287.97 185.44,289.98 185.34,291.98 300,300 300,300 188.42,270.1 187.96,272.07 187.55,274.04 187.16,276.02 186.81,278 186.49,279.99 186.21,281.98 "
           id="polygon6726"
           style="fill:#9797ff;stroke:none" /><polygon
           points="185.49,304 185.63,305.99 185.81,307.99 186.02,309.97 186.26,311.95 300,300 300,300 185.49,289.98 185.39,291.99 185.32,293.99 185.28,295.99 185.28,298 185.32,300 185.39,302 "
           id="polygon6728"
           style="fill:#9898ff;stroke:none" /><polygon
           points="188.49,323.7 188.97,325.63 189.49,327.55 190.03,329.47 190.62,331.37 300,300 300,300 186.07,309.97 186.31,311.95 186.59,313.93 186.9,315.9 187.25,317.86 187.63,319.81 188.04,321.76 "
           id="polygon6730"
           style="fill:#9898ff;stroke:none" /><polygon
           points="194.83,342.49 195.64,344.3 196.47,346.09 197.34,347.87 198.24,349.63 300,300 300,300 190.08,329.45 190.67,331.35 191.28,333.24 191.93,335.12 192.6,336.98 193.31,338.83 194.06,340.67 "
           id="polygon6732"
           style="fill:#9999ff;stroke:none" /><polygon
           points="204.3,359.8 205.4,361.44 206.53,363.05 207.68,364.64 208.87,366.21 300,300 300,300 197.39,347.85 198.29,349.61 199.21,351.35 200.17,353.08 201.16,354.79 202.18,356.48 203.22,358.15 "
           id="polygon6734"
           style="fill:#9a9aff;stroke:none" /><polygon
           points="216.56,375.13 217.92,376.54 219.31,377.92 220.72,379.28 222.15,380.62 300,300 300,300 207.73,364.61 208.91,366.18 210.12,367.73 211.36,369.25 212.62,370.76 213.91,372.24 215.22,373.7 "
           id="polygon6736"
           style="fill:#9a9aff;stroke:none" /><polygon
           points="231.23,388.02 232.81,389.17 234.4,390.29 236.02,391.37 237.65,392.43 300,300 300,300 220.76,379.24 222.19,380.58 223.64,381.89 225.12,383.17 226.61,384.42 228.13,385.65 229.67,386.85 "
           id="polygon6738"
           style="fill:#9b9bff;stroke:none" /><polygon
           points="247.83,398.12 249.57,398.97 251.33,399.79 253.1,400.57 254.88,401.33 300,300 300,300 236.05,391.33 237.68,392.39 239.33,393.42 241,394.42 242.68,395.39 244.38,396.33 246.1,397.24 "
           id="polygon6740"
           style="fill:#9c9cff;stroke:none" /><polygon
           points="265.84,405.14 267.69,405.67 269.56,406.17 271.43,406.64 273.31,407.07 300,300 300,300 253.12,400.53 254.91,401.28 256.7,402.01 258.51,402.7 260.32,403.36 262.15,403.98 263.99,404.58 "
           id="polygon6742"
           style="fill:#9d9dff;stroke:none" /><polygon
           points="284.69,408.91 286.6,409.11 288.51,409.27 290.43,409.4 292.34,409.5 300,300 300,300 271.44,406.58 273.32,407.02 275.2,407.41 277.09,407.78 278.99,408.11 280.88,408.41 282.79,408.68 "
           id="polygon6744"
           style="fill:#9d9dff;stroke:none" /><polygon
           points="303.82,409.34 305.72,409.2 307.62,409.03 309.52,408.83 311.41,408.6 300,300 300,300 290.43,409.35 292.35,409.45 294.26,409.52 296.17,409.55 298.09,409.54 300,409.51 301.91,409.44 "
           id="polygon6746"
           style="fill:#9e9eff;stroke:none" /><polygon
           points="322.63,406.45 324.47,405.99 326.3,405.5 328.13,404.97 329.94,404.41 300,300 300,300 309.52,408.78 311.41,408.55 313.29,408.28 315.18,407.98 317.05,407.64 318.92,407.28 320.78,406.88 "
           id="polygon6748"
           style="fill:#9f9fff;stroke:none" /><polygon
           points="340.55,400.37 342.28,399.6 343.99,398.8 345.68,397.97 347.36,397.11 300,300 300,300 328.11,404.92 329.93,404.36 331.73,403.77 333.52,403.16 335.3,402.51 337.06,401.82 338.81,401.11 "
           id="polygon6750"
           style="fill:#9f9fff;stroke:none" /><polygon
           points="357.06,391.32 358.62,390.26 360.16,389.18 361.67,388.08 363.17,386.95 300,300 300,300 345.66,397.92 347.34,397.06 349,396.18 350.65,395.26 352.28,394.32 353.89,393.34 355.49,392.34 "
           id="polygon6752"
           style="fill:#a0a0ff;stroke:none" /><polygon
           points="371.67,379.59 373.01,378.29 374.33,376.97 375.62,375.62 376.89,374.26 300,300 300,300 361.64,388.04 363.14,386.9 364.61,385.75 366.07,384.56 367.5,383.36 368.91,382.13 370.3,380.87 "
           id="polygon6754"
           style="fill:#a1a1ff;stroke:none" /><polygon
           points="383.95,365.59 385.04,364.08 386.1,362.56 387.14,361.01 388.14,359.45 300,300 300,300 375.59,375.59 376.86,374.22 378.1,372.83 379.32,371.42 380.52,369.99 381.69,368.54 382.83,367.07 "
           id="polygon6756"
           style="fill:#a1a1ff;stroke:none" /><polygon
           points="393.55,349.74 394.36,348.08 395.14,346.4 395.89,344.71 396.6,343.01 300,300 300,300 387.09,360.98 388.1,359.43 389.08,357.85 390.03,356.26 390.96,354.65 391.85,353.03 392.72,351.39 "
           id="polygon6758"
           style="fill:#a2a2ff;stroke:none" /><polygon
           points="400.22,332.56 400.73,330.8 401.2,329.02 401.64,327.23 402.05,325.44 300,300 300,300 395.84,344.69 396.56,342.99 397.24,341.28 397.9,339.55 398.53,337.82 399.12,336.08 399.69,334.33 "
           id="polygon6760"
           style="fill:#a3a3ff;stroke:none" /><polygon
           points="403.79,314.59 403.97,312.77 404.13,310.94 404.25,309.12 404.34,307.3 300,300 300,300 401.59,327.22 402,325.43 402.38,323.64 402.72,321.83 403.03,320.03 403.32,318.22 403.57,316.4 "
           id="polygon6762"
           style="fill:#a3a3ff;stroke:none" /><polygon
           points="404.17,296.36 404.04,294.55 403.87,292.74 403.68,290.93 403.45,289.13 300,300 300,300 404.2,309.12 404.29,307.29 404.35,305.47 404.38,303.64 404.37,301.82 404.34,300 404.27,298.18 "
           id="polygon6764"
           style="fill:#a4a4ff;stroke:none" /><polygon
           points="401.39,278.45 400.95,276.69 400.48,274.95 399.97,273.21 399.44,271.49 300,300 300,300 403.63,290.93 403.4,289.13 403.14,287.34 402.86,285.54 402.54,283.76 402.19,281.98 401.8,280.21 "
           id="polygon6766"
           style="fill:#a5a5ff;stroke:none" /><polygon
           points="395.58,261.38 394.84,259.74 394.08,258.12 393.28,256.5 392.46,254.9 300,300 300,300 399.92,273.23 399.39,271.5 398.83,269.79 398.24,268.08 397.61,266.39 396.96,264.71 396.28,263.04 "
           id="polygon6768"
           style="fill:#a5a5ff;stroke:none" /><polygon
           points="386.93,245.68 385.93,244.2 384.9,242.74 383.84,241.29 382.76,239.87 300,300 300,300 393.24,256.52 392.42,254.93 391.57,253.34 390.69,251.78 389.79,250.23 388.86,248.69 387.91,247.18 "
           id="polygon6770"
           style="fill:#a6a6ff;stroke:none" /><polygon
           points="375.75,231.79 374.51,230.52 373.25,229.26 371.97,228.03 370.66,226.83 300,300 300,300 383.8,241.32 382.72,239.9 381.62,238.5 380.49,237.12 379.34,235.75 378.17,234.41 376.97,233.09 "
           id="polygon6772"
           style="fill:#a7a7ff;stroke:none" /><polygon
           points="362.4,220.13 360.97,219.09 359.52,218.08 358.05,217.1 356.56,216.14 300,300 300,300 371.93,228.07 370.63,226.86 369.3,225.68 367.96,224.52 366.6,223.39 365.22,222.27 363.82,221.19 "
           id="polygon6774"
           style="fill:#a7a7ff;stroke:none" /><polygon
           points="347.32,211.01 345.73,210.25 344.13,209.51 342.53,208.8 340.91,208.12 300,300 300,300 358.02,217.14 356.53,216.19 355.03,215.26 353.52,214.35 351.99,213.48 350.44,212.63 348.89,211.81 "
           id="polygon6776"
           style="fill:#a8a8ff;stroke:none" /><polygon
           points="330.97,204.7 329.28,204.22 327.59,203.77 325.9,203.36 324.19,202.97 300,300 300,300 342.5,208.85 340.89,208.17 339.26,207.52 337.62,206.89 335.97,206.3 334.31,205.74 332.64,205.2 "
           id="polygon6778"
           style="fill:#a9a9ff;stroke:none" /><polygon
           points="313.87,201.34 312.14,201.16 310.4,201.02 308.67,200.9 306.94,200.82 300,300 300,300 325.88,203.41 324.18,203.02 322.47,202.66 320.76,202.34 319.04,202.04 317.32,201.78 315.59,201.54 "
           id="polygon6780"
           style="fill:#a9a9ff;stroke:none" /><polygon
           points="296.54,201 294.82,201.13 293.1,201.29 291.38,201.47 289.67,201.69 300,300 300,300 308.67,200.95 306.93,200.87 305.2,200.82 303.46,200.79 301.73,200.8 300,200.84 298.27,200.9 "
           id="polygon6782"
           style="fill:#aaaaff;stroke:none" /><polygon
           points="279.52,203.67 277.86,204.09 276.2,204.54 274.55,205.02 272.91,205.53 300,300 300,300 291.38,201.53 289.67,201.74 287.97,201.99 286.26,202.27 284.57,202.57 282.88,202.91 281.2,203.27 "
           id="polygon6784"
           style="fill:#ababff;stroke:none" /><polygon
           points="263.32,209.22 261.76,209.92 260.22,210.65 258.69,211.41 257.17,212.19 300,300 300,300 274.56,205.07 272.93,205.58 271.3,206.12 269.68,206.68 268.07,207.28 266.48,207.9 264.89,208.54 "
           id="polygon6786"
           style="fill:#acacff;stroke:none" /><polygon
           points="248.42,217.45 247.02,218.41 245.63,219.39 244.26,220.4 242.91,221.42 300,300 300,300 258.71,211.45 257.19,212.23 255.69,213.04 254.21,213.87 252.73,214.73 251.28,215.61 249.84,216.52 "
           id="polygon6788"
           style="fill:#acacff;stroke:none" /><polygon
           points="235.25,228.09 234.04,229.27 232.86,230.47 231.69,231.69 230.55,232.93 300,300 300,300 244.29,220.44 242.94,221.47 241.61,222.51 240.3,223.59 239.01,224.68 237.74,225.8 236.48,226.93 "
           id="polygon6790"
           style="fill:#adadff;stroke:none" /><polygon
           points="224.2,240.78 223.22,242.15 222.27,243.52 221.34,244.92 220.43,246.33 300,300 300,300 231.73,231.73 230.58,232.97 229.46,234.22 228.36,235.5 227.29,236.79 226.24,238.11 225.21,239.44 "
           id="polygon6792"
           style="fill:#aeaeff;stroke:none" /><polygon
           points="215.58,255.11 214.86,256.62 214.16,258.13 213.49,259.66 212.85,261.2 300,300 300,300 221.38,244.95 220.47,246.36 219.59,247.78 218.74,249.22 217.91,250.68 217.11,252.14 216.33,253.62 "
           id="polygon6794"
           style="fill:#aeaeff;stroke:none" /><polygon
           points="209.61,270.63 209.17,272.23 208.75,273.83 208.35,275.44 207.99,277.06 300,300 300,300 213.54,259.68 212.89,261.22 212.28,262.76 211.69,264.32 211.13,265.89 210.6,267.46 210.09,269.04 "
           id="polygon6796"
           style="fill:#afafff;stroke:none" /><polygon
           points="206.46,286.85 206.29,288.49 206.16,290.14 206.05,291.78 205.98,293.43 300,300 300,300 208.4,275.46 208.04,277.07 207.7,278.69 207.4,280.32 207.12,281.95 206.87,283.58 206.65,285.21 "
           id="polygon6798"
           style="fill:#b0b0ff;stroke:none" /><polygon
           points="206.17,303.28 206.29,304.91 206.45,306.54 206.63,308.17 206.84,309.79 300,300 300,300 206.11,291.79 206.03,293.43 205.98,295.07 205.96,296.72 205.97,298.36 206.01,300 206.07,301.64 "
           id="polygon6800"
           style="fill:#b0b0ff;stroke:none" /><polygon
           points="208.73,319.4 209.13,320.98 209.56,322.55 210.02,324.11 210.5,325.66 300,300 300,300 206.68,308.16 206.89,309.79 207.12,311.4 207.39,313.02 207.68,314.62 208,316.22 208.35,317.81 "
           id="polygon6802"
           style="fill:#b1b1ff;stroke:none" /><polygon
           points="214.02,334.74 214.68,336.22 215.38,337.68 216.09,339.13 216.84,340.56 300,300 300,300 210.07,324.1 210.55,325.65 211.06,327.19 211.6,328.72 212.17,330.24 212.76,331.75 213.37,333.25 "
           id="polygon6804"
           style="fill:#b2b2ff;stroke:none" /><polygon
           points="221.84,348.84 222.75,350.17 223.68,351.48 224.63,352.77 225.61,354.05 300,300 300,300 216.14,339.1 216.88,340.54 217.65,341.96 218.44,343.37 219.26,344.76 220.09,346.13 220.96,347.49 "
           id="polygon6806"
           style="fill:#b2b2ff;stroke:none" /><polygon
           points="231.94,361.28 233.05,362.43 234.19,363.55 235.35,364.65 236.52,365.73 300,300 300,300 224.68,352.74 225.65,354.02 226.65,355.28 227.66,356.52 228.7,357.74 229.76,358.94 230.84,360.12 "
           id="polygon6808"
           style="fill:#b3b3ff;stroke:none" /><polygon
           points="243.97,371.72 245.26,372.64 246.56,373.55 247.89,374.43 249.22,375.28 300,300 300,300 235.39,364.61 236.56,365.7 237.75,366.75 238.96,367.79 240.19,368.81 241.43,369.8 242.69,370.77 "
           id="polygon6810"
           style="fill:#b4b4ff;stroke:none" /><polygon
           points="257.54,379.85 258.97,380.54 260.4,381.19 261.85,381.82 263.3,382.43 300,300 300,300 247.92,374.38 249.25,375.24 250.6,376.07 251.96,376.87 253.34,377.66 254.73,378.41 256.13,379.15 "
           id="polygon6812"
           style="fill:#b4b4ff;stroke:none" /><polygon
           points="272.23,385.47 273.74,385.89 275.26,386.28 276.78,386.65 278.31,386.99 300,300 300,300 261.87,381.78 263.32,382.38 264.79,382.96 266.26,383.51 267.74,384.04 269.23,384.54 270.73,385.02 "
           id="polygon6814"
           style="fill:#b5b5ff;stroke:none" /><polygon
           points="287.57,388.42 289.12,388.57 290.68,388.7 292.23,388.79 293.79,388.86 300,300 300,300 276.8,386.6 278.32,386.94 279.86,387.26 281.39,387.54 282.93,387.8 284.48,388.04 286.02,388.24 "
           id="polygon6816"
           style="fill:#b6b6ff;stroke:none" /><polygon
           points="303.1,388.66 304.64,388.54 306.18,388.39 307.72,388.22 309.25,388.02 300,300 300,300 292.24,388.74 293.79,388.81 295.34,388.85 296.9,388.87 298.45,388.86 300,388.82 301.55,388.75 "
           id="polygon6818"
           style="fill:#b6b6ff;stroke:none" /><polygon
           points="318.33,386.21 319.82,385.83 321.3,385.42 322.77,384.99 324.24,384.52 300,300 300,300 307.71,388.17 309.25,387.97 310.77,387.74 312.3,387.49 313.81,387.21 315.32,386.9 316.83,386.57 "
           id="polygon6820"
           style="fill:#b7b7ff;stroke:none" /><polygon
           points="332.8,381.19 334.19,380.56 335.57,379.9 336.94,379.22 338.29,378.52 300,300 300,300 322.76,384.93 324.22,384.47 325.68,383.99 327.12,383.48 328.56,382.94 329.98,382.38 331.4,381.8 "
           id="polygon6822"
           style="fill:#b8b8ff;stroke:none" /><polygon
           points="346.1,373.77 347.35,372.91 348.59,372.03 349.81,371.13 351.01,370.21 300,300 300,300 336.92,379.17 338.27,378.47 339.61,377.74 340.94,376.99 342.25,376.22 343.55,375.43 344.83,374.61 "
           id="polygon6824"
           style="fill:#b9b9ff;stroke:none" /><polygon
           points="357.82,364.22 358.9,363.16 359.96,362.09 360.99,360.99 362.01,359.88 300,300 300,300 349.78,371.09 350.98,370.17 352.16,369.22 353.33,368.26 354.48,367.28 355.61,366.28 356.73,365.26 "
           id="polygon6826"
           style="fill:#b9b9ff;stroke:none" /><polygon
           points="367.64,352.85 368.51,351.63 369.36,350.39 370.19,349.15 370.99,347.88 300,300 300,300 360.96,360.96 361.97,359.85 362.97,358.72 363.95,357.58 364.9,356.42 365.84,355.24 366.75,354.05 "
           id="polygon6828"
           style="fill:#babaff;stroke:none" /><polygon
           points="375.29,340.03 375.93,338.69 376.54,337.33 377.14,335.97 377.7,334.6 300,300 300,300 370.15,349.12 370.95,347.86 371.73,346.58 372.49,345.3 373.22,344 373.93,342.69 374.62,341.36 "
           id="polygon6830"
           style="fill:#bbbbff;stroke:none" /><polygon
           points="380.55,326.17 380.94,324.75 381.31,323.32 381.65,321.88 381.97,320.44 300,300 300,300 377.09,335.95 377.66,334.57 378.2,333.19 378.72,331.8 379.21,330.41 379.68,329 380.13,327.59 "
           id="polygon6832"
           style="fill:#bbbbff;stroke:none" /><polygon
           points="383.3,311.71 383.44,310.24 383.55,308.78 383.64,307.32 383.7,305.85 300,300 300,300 381.6,321.87 381.92,320.43 382.22,318.98 382.48,317.53 382.73,316.08 382.94,314.62 383.13,313.17 "
           id="polygon6834"
           style="fill:#bcbcff;stroke:none" /><polygon
           points="383.49,297.08 383.38,295.63 383.23,294.18 383.07,292.73 382.88,291.29 300,300 300,300 383.59,307.31 383.65,305.85 383.69,304.39 383.7,302.92 383.69,301.46 383.65,300 383.58,298.54 "
           id="polygon6836"
           style="fill:#bdbdff;stroke:none" /><polygon
           points="381.15,282.75 380.79,281.35 380.4,279.95 379.99,278.57 379.55,277.19 300,300 300,300 383.02,292.74 382.82,291.29 382.61,289.86 382.37,288.42 382.1,287 381.81,285.57 381.49,284.16 "
           id="polygon6838"
           style="fill:#bdbdff;stroke:none" /><polygon
           points="376.39,269.14 375.79,267.83 375.17,266.53 374.53,265.25 373.87,263.97 300,300 300,300 379.94,278.58 379.5,277.2 379.04,275.83 378.56,274.47 378.05,273.12 377.52,271.78 376.97,270.45 "
           id="polygon6840"
           style="fill:#bebeff;stroke:none" /><polygon
           points="369.39,256.64 368.57,255.47 367.74,254.31 366.89,253.16 366.02,252.03 300,300 300,300 374.48,265.27 373.82,264 373.13,262.74 372.43,261.49 371.7,260.26 370.95,259.04 370.18,257.83 "
           id="polygon6842"
           style="fill:#bfbfff;stroke:none" /><polygon
           points="360.38,245.64 359.38,244.63 358.37,243.64 357.34,242.66 356.29,241.71 300,300 300,300 366.85,253.19 365.98,252.06 365.09,250.95 364.19,249.85 363.26,248.77 362.32,247.71 361.35,246.67 "
           id="polygon6844"
           style="fill:#bfbfff;stroke:none" /><polygon
           points="349.66,236.43 348.52,235.62 347.35,234.82 346.18,234.05 344.99,233.3 300,300 300,300 357.3,242.7 356.25,241.75 355.19,240.81 354.12,239.9 353.03,239 351.92,238.12 350.8,237.27 "
           id="polygon6846"
           style="fill:#c0c0ff;stroke:none" /><polygon
           points="337.6,229.28 336.34,228.68 335.07,228.11 333.78,227.55 332.49,227.02 300,300 300,300 346.15,234.09 344.96,233.34 343.76,232.61 342.55,231.9 341.33,231.21 340.1,230.55 338.86,229.9 "
           id="polygon6848"
           style="fill:#c1c1ff;stroke:none" /><polygon
           points="324.57,224.37 323.23,224.01 321.89,223.66 320.54,223.34 319.19,223.05 300,300 300,300 333.76,227.6 332.47,227.07 331.17,226.56 329.87,226.08 328.55,225.62 327.23,225.18 325.91,224.76 "
           id="polygon6850"
           style="fill:#c1c1ff;stroke:none" /><polygon
           points="310.99,221.82 309.61,221.7 308.24,221.59 306.87,221.51 305.49,221.46 300,300 300,300 320.53,223.39 319.17,223.1 317.82,222.82 316.46,222.58 315.09,222.35 313.73,222.15 312.36,221.98 "
           id="polygon6852"
           style="fill:#c2c2ff;stroke:none" /><polygon
           points="297.26,221.68 295.9,221.79 294.54,221.93 293.18,222.08 291.83,222.27 300,300 300,300 306.86,221.56 305.49,221.51 304.12,221.48 302.74,221.47 301.37,221.49 300,221.53 298.63,221.59 "
           id="polygon6854"
           style="fill:#c3c3ff;stroke:none" /><polygon
           points="283.83,223.9 282.51,224.25 281.2,224.62 279.91,225.01 278.61,225.42 300,300 300,300 293.19,222.14 291.84,222.32 290.49,222.53 289.14,222.75 287.81,223.01 286.47,223.28 285.15,223.58 "
           id="polygon6856"
           style="fill:#c3c3ff;stroke:none" /><polygon
           points="271.07,228.4 269.85,228.97 268.63,229.55 267.43,230.16 266.24,230.78 300,300 300,300 279.92,225.06 278.63,225.47 277.35,225.9 276.07,226.36 274.81,226.84 273.55,227.34 272.31,227.86 "
           id="polygon6858"
           style="fill:#c4c4ff;stroke:none" /><polygon
           points="259.38,235 258.28,235.76 257.2,236.54 256.13,237.34 255.07,238.16 300,300 300,300 267.45,230.2 266.26,230.83 265.08,231.48 263.92,232.14 262.77,232.83 261.62,233.53 260.5,234.26 "
           id="polygon6860"
           style="fill:#c5c5ff;stroke:none" /><polygon
           points="249.1,243.47 248.16,244.4 247.23,245.35 246.32,246.32 245.43,247.3 300,300 300,300 256.16,237.39 255.1,238.2 254.06,239.04 253.04,239.89 252.03,240.76 251.04,241.65 250.06,242.55 "
           id="polygon6862"
           style="fill:#c6c6ff;stroke:none" /><polygon
           points="240.51,253.52 239.75,254.6 239.01,255.69 238.29,256.79 237.58,257.9 300,300 300,300 246.36,246.36 245.47,247.34 244.59,248.33 243.74,249.34 242.9,250.37 242.09,251.4 241.29,252.46 "
           id="polygon6864"
           style="fill:#c6c6ff;stroke:none" /><polygon
           points="233.85,264.83 233.29,266.01 232.75,267.2 232.24,268.4 231.75,269.61 300,300 300,300 238.33,256.82 237.63,257.93 236.95,259.05 236.29,260.19 235.65,261.33 235.03,262.49 234.43,263.65 "
           id="polygon6866"
           style="fill:#c7c7ff;stroke:none" /><polygon
           points="229.29,277.03 228.95,278.28 228.63,279.54 228.34,280.8 228.06,282.06 300,300 300,300 232.29,268.43 231.79,269.63 231.32,270.85 230.87,272.07 230.44,273.3 230.04,274.54 229.65,275.78 "
           id="polygon6868"
           style="fill:#c8c8ff;stroke:none" /><polygon
           points="226.95,289.73 226.83,291.02 226.74,292.3 226.66,293.58 226.62,294.87 300,300 300,300 228.39,280.81 228.11,282.08 227.86,283.35 227.64,284.62 227.43,285.89 227.25,287.17 227.08,288.45 "
           id="polygon6870"
           style="fill:#c8c8ff;stroke:none" /><polygon
           points="226.85,302.55 226.95,303.83 227.09,305.1 227.24,306.37 227.41,307.63 300,300 300,300 226.72,293.59 226.67,294.87 226.64,296.16 226.64,297.44 226.66,298.72 226.7,300 226.76,301.28 "
           id="polygon6872"
           style="fill:#c9c9ff;stroke:none" /><polygon
           points="228.96,315.1 229.29,316.32 229.64,317.54 230,318.76 230.39,319.96 300,300 300,300 227.29,306.36 227.46,307.62 227.66,308.88 227.88,310.14 228.12,311.39 228.38,312.63 228.66,313.87 "
           id="polygon6874"
           style="fill:#cacaff;stroke:none" /><polygon
           points="233.2,326.99 233.73,328.13 234.28,329.26 234.84,330.38 235.43,331.49 300,300 300,300 230.05,318.74 230.44,319.95 230.85,321.14 231.28,322.33 231.73,323.51 232.2,324.68 232.69,325.84 "
           id="polygon6876"
           style="fill:#cacaff;stroke:none" /><polygon
           points="239.39,337.88 240.1,338.9 240.83,339.91 241.58,340.91 242.35,341.89 300,300 300,300 234.89,330.36 235.48,331.47 236.08,332.57 236.71,333.65 237.35,334.73 238.01,335.79 238.69,336.84 "
           id="polygon6878"
           style="fill:#cbcbff;stroke:none" /><polygon
           points="247.31,347.44 248.19,348.32 249.07,349.18 249.98,350.02 250.89,350.85 300,300 300,300 241.62,340.88 242.39,341.86 243.17,342.83 243.97,343.78 244.78,344.72 245.61,345.64 246.45,346.55 "
           id="polygon6880"
           style="fill:#ccccff;stroke:none" /><polygon
           points="256.7,355.42 257.71,356.12 258.73,356.81 259.75,357.48 260.79,358.13 300,300 300,300 250.01,349.99 250.93,350.81 251.86,351.62 252.8,352.42 253.76,353.19 254.73,353.95 255.71,354.69 "
           id="polygon6882"
           style="fill:#ccccff;stroke:none" /><polygon
           points="267.25,361.58 268.36,362.1 269.47,362.6 270.59,363.07 271.72,363.53 300,300 300,300 259.78,357.43 260.82,358.08 261.87,358.72 262.93,359.33 264,359.92 265.07,360.5 266.16,361.05 "
           id="polygon6884"
           style="fill:#cdcdff;stroke:none" /><polygon
           points="278.62,365.79 279.79,366.1 280.96,366.39 282.14,366.67 283.32,366.92 300,300 300,300 270.61,363.02 271.74,363.48 272.87,363.92 274.01,364.33 275.15,364.73 276.31,365.1 277.46,365.46 "
           id="polygon6886"
           style="fill:#ceceff;stroke:none" /><polygon
           points="290.45,367.93 291.65,368.04 292.84,368.12 294.03,368.18 295.23,368.22 300,300 300,300 282.15,366.62 283.33,366.87 284.51,367.1 285.69,367.31 286.88,367.49 288.07,367.66 289.26,367.81 "
           id="polygon6888"
           style="fill:#ceceff;stroke:none" /><polygon
           points="302.37,367.98 303.56,367.88 304.74,367.76 305.92,367.61 307.09,367.44 300,300 300,300 294.04,368.13 295.23,368.17 296.43,368.19 297.62,368.19 298.81,368.17 300,368.13 301.19,368.07 "
           id="polygon6890"
           style="fill:#cfcfff;stroke:none" /><polygon
           points="314.02,365.98 315.16,365.67 316.29,365.35 317.42,365 318.53,364.64 300,300 300,300 305.91,367.56 307.08,367.39 308.25,367.21 309.42,367 310.58,366.77 311.73,366.53 312.88,366.26 "
           id="polygon6892"
           style="fill:#d0d0ff;stroke:none" /><polygon
           points="325.05,362.01 326.11,361.51 327.16,361 328.2,360.47 329.22,359.92 300,300 300,300 317.4,364.95 318.52,364.59 319.63,364.2 320.73,363.8 321.82,363.38 322.91,362.94 323.98,362.48 "
           id="polygon6894"
           style="fill:#d0d0ff;stroke:none" /><polygon
           points="335.13,356.23 336.08,355.56 337.02,354.88 337.94,354.18 338.85,353.47 300,300 300,300 328.17,360.42 329.2,359.87 330.22,359.31 331.22,358.72 332.22,358.13 333.2,357.51 334.17,356.88 "
           id="polygon6896"
           style="fill:#d1d1ff;stroke:none" /><polygon
           points="343.98,348.84 344.79,348.03 345.58,347.2 346.36,346.36 347.13,345.51 300,300 300,300 337.91,354.14 338.82,353.43 339.71,352.7 340.59,351.96 341.46,351.2 342.32,350.43 343.15,349.64 "
           id="polygon6898"
           style="fill:#d2d2ff;stroke:none" /><polygon
           points="351.34,340.11 351.99,339.18 352.62,338.23 353.24,337.28 353.84,336.32 300,300 300,300 346.33,346.33 347.09,345.48 347.84,344.61 348.57,343.73 349.29,342.85 349.99,341.95 350.67,341.03 "
           id="polygon6900"
           style="fill:#d3d3ff;stroke:none" /><polygon
           points="357.02,330.32 357.49,329.29 357.95,328.26 358.38,327.23 358.8,326.18 300,300 300,300 353.2,337.25 353.8,336.29 354.38,335.31 354.94,334.33 355.49,333.34 356.02,332.34 356.53,331.33 "
           id="polygon6902"
           style="fill:#d3d3ff;stroke:none" /><polygon
           points="360.87,319.78 361.16,318.7 361.42,317.61 361.67,316.52 361.9,315.43 300,300 300,300 358.34,327.2 358.76,326.16 359.15,325.11 359.54,324.05 359.9,322.99 360.24,321.93 360.56,320.85 "
           id="polygon6904"
           style="fill:#d4d4ff;stroke:none" /><polygon
           points="362.81,308.83 362.9,307.72 362.98,306.62 363.03,305.51 363.06,304.41 300,300 300,300 361.62,316.51 361.85,315.42 362.06,314.33 362.25,313.23 362.42,312.13 362.57,311.03 362.7,309.93 "
           id="polygon6906"
           style="fill:#d5d5ff;stroke:none" /><polygon
           points="362.81,297.81 362.71,296.71 362.6,295.62 362.46,294.54 362.3,293.45 300,300 300,300 362.98,305.51 363.01,304.41 363.03,303.3 363.02,302.2 363,301.1 362.96,300 362.9,298.9 "
           id="polygon6908"
           style="fill:#d5d5ff;stroke:none" /><polygon
           points="360.92,287.05 360.63,286 360.33,284.96 360,283.92 359.66,282.89 300,300 300,300 362.41,294.54 362.25,293.46 362.07,292.38 361.88,291.3 361.67,290.23 361.43,289.17 361.19,288.11 "
           id="polygon6910"
           style="fill:#d6d6ff;stroke:none" /><polygon
           points="357.21,276.89 356.75,275.91 356.27,274.95 355.78,273.99 355.27,273.04 300,300 300,300 359.95,283.94 359.61,282.91 359.26,281.88 358.88,280.87 358.49,279.86 358.08,278.86 357.65,277.87 "
           id="polygon6912"
           style="fill:#d7d7ff;stroke:none" /><polygon
           points="351.84,267.61 351.22,266.74 350.59,265.88 349.95,265.03 349.28,264.19 300,300 300,300 355.73,274.01 355.22,273.07 354.7,272.13 354.16,271.2 353.6,270.29 353.03,269.38 352.44,268.49 "
           id="polygon6914"
           style="fill:#d7d7ff;stroke:none" /><polygon
           points="345,259.48 344.25,258.74 343.48,258.01 342.71,257.29 341.92,256.59 300,300 300,300 349.9,265.06 349.24,264.22 348.57,263.4 347.88,262.59 347.18,261.79 346.47,261.01 345.74,260.24 "
           id="polygon6916"
           style="fill:#d8d8ff;stroke:none" /><polygon
           points="336.93,252.74 336.06,252.14 335.19,251.56 334.31,251 333.42,250.45 300,300 300,300 342.67,257.33 341.88,256.63 341.08,255.94 340.27,255.27 339.45,254.61 338.62,253.97 337.78,253.35 "
           id="polygon6918"
           style="fill:#d9d9ff;stroke:none" /><polygon
           points="327.89,247.55 326.95,247.12 326,246.7 325.04,246.3 324.08,245.92 300,300 300,300 334.28,251.04 333.39,250.49 332.5,249.96 331.59,249.44 330.68,248.95 329.75,248.46 328.83,248 "
           id="polygon6920"
           style="fill:#d9d9ff;stroke:none" /><polygon
           points="318.18,244.05 317.18,243.79 316.19,243.55 315.19,243.33 314.18,243.12 300,300 300,300 325.02,246.35 324.06,245.97 323.09,245.61 322.12,245.26 321.14,244.93 320.16,244.62 319.17,244.33 "
           id="polygon6922"
           style="fill:#dadaff;stroke:none" /><polygon
           points="308.11,242.31 307.09,242.23 306.08,242.17 305.06,242.12 304.05,242.1 300,300 300,300 315.17,243.38 314.17,243.17 313.16,242.98 312.16,242.81 311.15,242.66 310.13,242.53 309.12,242.41 "
           id="polygon6924"
           style="fill:#dbdbff;stroke:none" /><polygon
           points="297.99,242.35 296.98,242.45 295.98,242.56 294.99,242.7 293.99,242.84 300,300 300,300 305.06,242.17 304.05,242.15 303.03,242.14 302.02,242.15 301.01,242.17 300,242.22 298.99,242.28 "
           id="polygon6926"
           style="fill:#dbdbff;stroke:none" /><polygon
           points="288.13,244.14 287.17,244.41 286.21,244.69 285.26,244.99 284.32,245.31 300,300 300,300 294.99,242.75 294,242.9 293.01,243.06 292.02,243.24 291.04,243.44 290.07,243.66 289.09,243.89 "
           id="polygon6928"
           style="fill:#dcdcff;stroke:none" /><polygon
           points="278.82,247.59 277.93,248.01 277.05,248.45 276.18,248.91 275.31,249.38 300,300 300,300 285.27,245.04 284.33,245.36 283.4,245.69 282.47,246.04 281.54,246.4 280.63,246.78 279.72,247.18 "
           id="polygon6930"
           style="fill:#ddddff;stroke:none" /><polygon
           points="270.35,252.55 269.55,253.12 268.77,253.7 267.99,254.29 267.23,254.9 300,300 300,300 276.2,248.96 275.33,249.43 274.48,249.91 273.63,250.41 272.8,250.92 271.97,251.45 271.15,251.99 "
           id="polygon6932"
           style="fill:#ddddff;stroke:none" /><polygon
           points="262.94,258.84 262.27,259.53 261.6,260.24 260.95,260.95 260.31,261.67 300,300 300,300 268.02,254.33 267.26,254.94 266.51,255.56 265.78,256.19 265.05,256.84 264.33,257.5 263.63,258.16 "
           id="polygon6934"
           style="fill:#dedeff;stroke:none" /><polygon
           points="256.81,266.26 256.27,267.05 255.74,267.85 255.23,268.65 254.74,269.47 300,300 300,300 260.99,260.99 260.35,261.71 259.73,262.44 259.12,263.19 258.52,263.94 257.94,264.7 257.37,265.48 "
           id="polygon6936"
           style="fill:#dfdfff;stroke:none" /><polygon
           points="252.12,274.54 251.73,275.4 251.35,276.27 250.99,277.15 250.65,278.03 300,300 300,300 255.28,268.68 254.78,269.5 254.3,270.32 253.83,271.15 253.38,271.99 252.94,272.83 252.52,273.68 "
           id="polygon6938"
           style="fill:#e0e0ff;stroke:none" /><polygon
           points="248.97,283.42 248.74,284.33 248.52,285.24 248.32,286.15 248.14,287.07 300,300 300,300 251.04,277.17 250.7,278.05 250.37,278.93 250.06,279.82 249.76,280.71 249.48,281.61 249.22,282.51 "
           id="polygon6940"
           style="fill:#e0e0ff;stroke:none" /><polygon
           points="247.43,292.61 247.36,293.54 247.31,294.46 247.28,295.39 247.26,296.31 300,300 300,300 248.37,286.17 248.19,287.08 248.02,288 247.87,288.92 247.74,289.84 247.62,290.76 247.52,291.69 "
           id="polygon6942"
           style="fill:#e1e1ff;stroke:none" /><polygon
           points="247.52,301.83 247.62,302.75 247.72,303.66 247.85,304.56 247.99,305.47 300,300 300,300 247.33,295.39 247.31,296.32 247.3,297.24 247.32,298.16 247.34,299.08 247.39,300 247.45,300.92 "
           id="polygon6944"
           style="fill:#e2e2ff;stroke:none" /><polygon
           points="249.2,310.8 249.45,311.67 249.71,312.54 249.99,313.4 250.28,314.26 300,300 300,300 247.9,304.56 248.04,305.46 248.19,306.36 248.37,307.26 248.55,308.15 248.75,309.04 248.97,309.92 "
           id="polygon6946"
           style="fill:#e2e2ff;stroke:none" /><polygon
           points="252.38,319.24 252.77,320.05 253.18,320.85 253.6,321.64 254.03,322.42 300,300 300,300 250.04,313.39 250.33,314.24 250.64,315.09 250.96,315.94 251.29,316.77 251.64,317.6 252,318.42 "
           id="polygon6948"
           style="fill:#e3e3ff;stroke:none" /><polygon
           points="256.93,326.91 257.45,327.63 257.99,328.34 258.53,329.04 259.08,329.73 300,300 300,300 253.64,321.62 254.07,322.4 254.52,323.17 254.98,323.94 255.45,324.7 255.93,325.44 256.43,326.18 "
           id="polygon6950"
           style="fill:#e4e4ff;stroke:none" /><polygon
           points="262.69,333.6 263.32,334.21 263.96,334.81 264.61,335.39 265.27,335.97 300,300 300,300 258.57,329.01 259.13,329.7 259.69,330.37 260.27,331.04 260.86,331.7 261.46,332.34 262.07,332.97 "
           id="polygon6952"
           style="fill:#e4e4ff;stroke:none" /></g><g
         transform="translate(-38.697634,-11.965894)"
         id="g3637"><path
           d="m 306.455,409.625 2.462,-2.24 0,1.409 c 1.809,0 3.142,-0.735 3.996,-2.207 0.852,-1.471 1.279,-3.603 1.279,-6.399 0,-3.205 -0.412,-5.614 -1.234,-7.227 -0.823,-1.613 -2.17,-2.419 -4.041,-2.419 l -2.87,0 0,17.803 0,0.449 0.037,1.848 -2.128,0 0,-21.948 4.967,0 c 1.523,0 2.868,0.43 4.037,1.289 1.168,0.861 2.032,2.15 2.593,3.872 0.561,1.717 0.842,3.596 0.842,5.631 0,3.629 -0.62,6.397 -1.854,8.299 -1.236,1.905 -3.106,2.857 -5.618,2.857 l 0,1.399 -2.468,-2.416 z"
           style="fill:#000000;fill-opacity:1;fill-rule:evenodd;stroke:none"
           id="path3118"
           inkscape:connector-curvature="0" /><g
           id="g3630"><path
             inkscape:connector-curvature="0"
             id="path3120"
             style="fill:none;stroke:#000000;stroke-width:0.5;stroke-linecap:butt;stroke-linejoin:miter;stroke-miterlimit:4;stroke-opacity:1;stroke-dasharray:none"
             d="m 306.455,409.625 2.462,-2.24 0,1.409 c 1.809,0 3.142,-0.735 3.996,-2.207 0.852,-1.471 1.279,-3.603 1.279,-6.399 0,-3.205 -0.412,-5.614 -1.234,-7.227 -0.823,-1.613 -2.17,-2.419 -4.041,-2.419 l -2.87,0 0,17.803 0,0.449 0.037,1.848 -2.128,0 0,-21.948 4.967,0 c 1.523,0 2.868,0.43 4.037,1.289 1.168,0.861 2.032,2.15 2.593,3.872 0.561,1.717 0.842,3.596 0.842,5.631 0,3.629 -0.62,6.397 -1.854,8.299 -1.236,1.905 -3.106,2.857 -5.618,2.857 l 0,1.399 -2.468,-2.416 z" /><text
             style="font-size:11.89722538px"
             y="-385.12616"
             x="287.57819"
             id="text3122"
             transform="scale(0.99143541,-1.0086386)"><tspan
               id="tspan3124"
               y="-385.12616"
               x="287.57819"
               style="font-size:32.29640579px;font-variant:normal;font-weight:normal;font-stretch:condensed;writing-mode:lr-tb;fill:#000000;fill-opacity:1;fill-rule:nonzero;stroke:none;font-family:Myriad Pro;-inkscape-font-specification:AbadiMT-CondensedLight">R</tspan></text>
<text
             style="font-size:11.89722538px"
             y="-385.12616"
             x="319.00363"
             id="text3126"
             transform="scale(0.99143541,-1.0086386)"><tspan
               id="tspan3128"
               sodipodi:role="line"
               y="-385.12616"
               x="319.00363 336.83124 344.38861"
               style="font-size:32.29640579px;font-variant:normal;font-weight:normal;font-stretch:condensed;writing-mode:lr-tb;fill:#000000;fill-opacity:1;fill-rule:nonzero;stroke:none;font-family:Myriad Pro;-inkscape-font-specification:AbadiMT-CondensedLight">Kit</tspan></text>
</g></g></g></g></svg>